<?xml version="1.0" encoding="UTF-8"?>
<svg xmlns="http://www.w3.org/2000/svg" xmlns:xlink="http://www.w3.org/1999/xlink" id="Group_850" data-name="Group 850" width="356.43" height="112.283" viewBox="0 0 356.43 112.283">
  <defs>
    <clipPath id="clip-path">
      <rect id="Rectangle_741" data-name="Rectangle 741" width="356.43" height="112.283" fill="#036a37"></rect>
    </clipPath>
  </defs>
  <path id="Path_589" data-name="Path 589" d="M232.968,36.842,229.562,27.4l-3.406,9.442Zm-6.739-14.774h6.7l9.7,25.919H237l-2.221-6.109H224.34l-2.221,6.109h-5.591Z" transform="translate(-91.472 -9.323)" fill="#036a37"></path>
  <g id="Group_849" data-name="Group 849">
    <g id="Group_848" data-name="Group 848" clip-path="url(#clip-path)">
      <path id="Path_590" data-name="Path 590" d="M284.363,22.034V37.226c0,7.176-4.518,10.746-10.529,10.746s-10.528-3.57-10.528-10.746V22.034h5.282v14.9c0,4.445,2.186,6.084,5.246,6.084s5.246-1.64,5.246-6.084v-14.9Z" transform="translate(-111.234 -9.308)" fill="#036a37"></path>
      <path id="Path_591" data-name="Path 591" d="M327.857,40.126c0,5.84-5.3,7.846-9.53,7.846-7.344,0-10.354-4.155-10.927-8.491h5.158c.682,2.472,2.185,3.726,5.733,3.726,2.9,0,4.407-1.075,4.407-2.866,0-1.863-1.755-2.114-6.162-3.081-4.478-.932-8.491-2.4-8.491-7.345,0-5.267,4.693-7.882,9.458-7.882,6.735,0,9.531,3.618,10.1,7.774h-5.2c-.538-1.756-1.792-3.01-4.872-3.01-3.045,0-4.336,1.29-4.336,2.9,0,1.469,1.254,1.828,4.55,2.544,6.7,1.433,10.1,2.9,10.1,7.882" transform="translate(-129.862 -9.308)" fill="#036a37"></path>
      <path id="Path_592" data-name="Path 592" d="M367.348,27.1h-7.479V47.986h-5.3V27.1h-7.442V22.068h20.217Z" transform="translate(-146.646 -9.323)" fill="#036a37"></path>
      <path id="Path_593" data-name="Path 593" d="M398.234,34.028c2.777,0,4.073-1.333,4.073-3.444,0-2.147-1.333-3.48-4.073-3.48h-5.257v6.924Zm-10.552-11.96h11.146c5.553,0,8.849,3.3,8.849,8.442,0,4.221-2.185,6.813-5.777,7.739l7.22,9.738H402.6l-6.7-9.331h-2.924v9.331h-5.3Z" transform="translate(-163.777 -9.323)" fill="#036a37"></path>
      <path id="Path_594" data-name="Path 594" d="M445.3,36.842,441.892,27.4l-3.406,9.442Zm-6.738-14.774h6.7l9.7,25.919h-5.628l-2.221-6.109H436.671l-2.222,6.109h-5.591Z" transform="translate(-181.172 -9.323)" fill="#036a37"></path>
      <path id="Path_595" data-name="Path 595" d="M484.929,42.951h11.107v5.036h-16.4V22.068h5.3Z" transform="translate(-202.622 -9.323)" fill="#036a37"></path>
      <rect id="Rectangle_736" data-name="Rectangle 736" width="5.295" height="25.919" transform="translate(296.595 12.745)" fill="#036a37"></rect>
      <path id="Path_596" data-name="Path 596" d="M544.56,36.842,541.154,27.4l-3.407,9.442Zm-6.739-14.774h6.7l9.7,25.919H548.6l-2.221-6.109H535.933l-2.222,6.109H528.12Z" transform="translate(-223.105 -9.323)" fill="#036a37"></path>
      <path id="Path_597" data-name="Path 597" d="M595.623,22.068l.481,18.106L584.812,22.068h-6.073V47.987h5.3V29.844L594.81,47.987h6.108V22.068Z" transform="translate(-244.489 -9.323)" fill="#036a37"></path>
      <rect id="Rectangle_737" data-name="Rectangle 737" width="5.295" height="25.919" transform="translate(125.056 46.872)" fill="#036a37"></rect>
      <path id="Path_598" data-name="Path 598" d="M250.114,99.262l-.481-18.106h5.294v25.919h-6.109L238.043,88.931v18.143h-5.294V81.156h6.072Z" transform="translate(-98.325 -34.284)" fill="#036a37"></path>
      <path id="Path_599" data-name="Path 599" d="M298.162,99.214c0,5.84-5.3,7.846-9.53,7.846-7.345,0-10.354-4.155-10.927-8.491h5.159c.681,2.472,2.186,3.726,5.732,3.726,2.9,0,4.407-1.075,4.407-2.866,0-1.863-1.756-2.114-6.162-3.081-4.479-.932-8.491-2.4-8.491-7.345,0-5.266,4.693-7.882,9.459-7.882,6.735,0,9.53,3.618,10.1,7.774h-5.2c-.537-1.756-1.791-3.01-4.872-3.01-3.045,0-4.335,1.29-4.335,2.9,0,1.469,1.254,1.828,4.551,2.544,6.7,1.433,10.1,2.9,10.1,7.882" transform="translate(-117.317 -34.27)" fill="#036a37"></path>
      <path id="Path_600" data-name="Path 600" d="M337.653,86.191h-7.479v20.883h-5.3V86.191h-7.442V81.156h20.217Z" transform="translate(-134.102 -34.284)" fill="#036a37"></path>
      <rect id="Rectangle_738" data-name="Rectangle 738" width="5.296" height="25.919" transform="translate(206.751 46.872)" fill="#036a37"></rect>
      <path id="Path_601" data-name="Path 601" d="M392.774,86.191H385.3v20.883H380V86.191h-7.442V81.156h20.217Z" transform="translate(-157.387 -34.284)" fill="#036a37"></path>
      <path id="Path_602" data-name="Path 602" d="M434.509,81.122V96.138c0,7.294-4.592,10.923-10.7,10.923s-10.7-3.629-10.7-10.923V81.122h5.369V95.841c0,4.517,2.222,6.183,5.331,6.183s5.332-1.666,5.332-6.183V81.122Z" transform="translate(-174.518 -34.27)" fill="#036a37"></path>
      <path id="Path_603" data-name="Path 603" d="M475.77,86.191h-7.479v20.883H463V86.191h-7.442V81.156H475.77Z" transform="translate(-192.449 -34.284)" fill="#036a37"></path>
      <path id="Path_604" data-name="Path 604" d="M513.507,86.191H501.4v5.221h11.107v5.036H501.4v5.591h12.107v5.035H496.1V81.156h17.4Z" transform="translate(-209.58 -34.284)" fill="#036a37"></path>
      <path id="Path_605" data-name="Path 605" d="M219.237,155.53a4.141,4.141,0,1,0,4.139-4.262,4.079,4.079,0,0,0-4.139,4.262m11.005,0a6.857,6.857,0,1,1-6.866-6.827,6.724,6.724,0,0,1,6.866,6.827" transform="translate(-91.472 -62.82)" fill="#1a1818"></path>
      <path id="Path_606" data-name="Path 606" d="M254.155,151.66H248v2.772h5.644V157H248v5.3h-2.69V149.1h8.842Z" transform="translate(-103.633 -62.986)" fill="#1a1818"></path>
      <path id="Path_607" data-name="Path 607" d="M284.61,156.828h-5.851V162.3h-2.69V149.1h2.69v5.167h5.851V149.1h2.69v13.2h-2.69Z" transform="translate(-116.626 -62.986)" fill="#1a1818"></path>
      <rect id="Rectangle_739" data-name="Rectangle 739" width="2.69" height="13.202" transform="translate(174.241 86.11)" fill="#1a1818"></rect>
      <path id="Path_608" data-name="Path 608" d="M324.646,154.965v7.166h-2.3v-2.225a4.581,4.581,0,0,1-4.44,2.452,6.526,6.526,0,0,1-6.547-6.808,6.627,6.627,0,0,1,6.81-6.846,6.39,6.39,0,0,1,6.359,4.6h-2.879a3.723,3.723,0,0,0-3.5-2.036,4.009,4.009,0,0,0-4.082,4.319,3.946,3.946,0,0,0,4.045,4.281,3.669,3.669,0,0,0,3.763-2.641h-4.44v-2.263Z" transform="translate(-131.536 -62.82)" fill="#1a1818"></path>
      <path id="Path_609" data-name="Path 609" d="M348.882,156.828h-5.851V162.3h-2.69V149.1h2.69v5.167h5.851V149.1h2.69v13.2h-2.69Z" transform="translate(-143.777 -62.986)" fill="#1a1818"></path>
      <path id="Path_610" data-name="Path 610" d="M374.811,151.66h-6.151v2.659H374.3v2.565h-5.644v2.848h6.151V162.3h-8.842V149.1h8.842Z" transform="translate(-154.604 -62.986)" fill="#1a1818"></path>
      <path id="Path_611" data-name="Path 611" d="M391.993,155.186c1.411,0,2.069-.679,2.069-1.754,0-1.094-.677-1.772-2.069-1.772h-2.671v3.527Zm-5.361-6.091h5.662c2.822,0,4.5,1.678,4.5,4.3a3.723,3.723,0,0,1-2.935,3.942l3.669,4.96h-3.311l-3.405-4.753h-1.486V162.3h-2.69Z" transform="translate(-163.333 -62.985)" fill="#1a1818"></path>
      <path id="Path_612" data-name="Path 612" d="M429.422,151.66h-6.151v2.659h5.643v2.565h-5.643v2.848h6.151V162.3H420.58V149.1h8.842Z" transform="translate(-177.675 -62.986)" fill="#1a1818"></path>
      <path id="Path_613" data-name="Path 613" d="M446,159.732a4.036,4.036,0,1,0,0-8.072h-2.069v8.072Zm-4.76-10.637H446a6.6,6.6,0,1,1,0,13.2h-4.76Z" transform="translate(-186.404 -62.985)" fill="#1a1818"></path>
      <path id="Path_614" data-name="Path 614" d="M476.839,149.1v7.864c0,3.715-2.333,5.563-5.437,5.563s-5.436-1.848-5.436-5.563V149.1h2.728v7.713c0,2.3,1.129,3.15,2.709,3.15s2.709-.849,2.709-3.15V149.1Z" transform="translate(-196.847 -62.985)" fill="#1a1818"></path>
      <path id="Path_615" data-name="Path 615" d="M489.674,155.53a6.644,6.644,0,0,1,6.81-6.827,6.41,6.41,0,0,1,6.358,4.753h-2.878a3.692,3.692,0,0,0-3.5-2.188,4.266,4.266,0,0,0,0,8.525,3.692,3.692,0,0,0,3.5-2.188h2.878a6.41,6.41,0,0,1-6.358,4.753,6.644,6.644,0,0,1-6.81-6.827" transform="translate(-206.863 -62.82)" fill="#1a1818"></path>
      <path id="Path_616" data-name="Path 616" d="M522.91,156.62l-1.73-4.809-1.731,4.809Zm-3.424-7.525h3.405l4.929,13.2h-2.859l-1.129-3.112h-5.3L517.4,162.3h-2.84Z" transform="translate(-217.376 -62.985)" fill="#1a1818"></path>
      <path id="Path_617" data-name="Path 617" d="M547.792,151.66h-3.8V162.3H541.3V151.66H537.52V149.1h10.272Z" transform="translate(-227.076 -62.986)" fill="#1a1818"></path>
      <rect id="Rectangle_740" data-name="Rectangle 740" width="2.69" height="13.202" transform="translate(323.035 86.11)" fill="#1a1818"></rect>
      <path id="Path_618" data-name="Path 618" d="M571.636,155.53a4.141,4.141,0,1,0,4.139-4.262,4.079,4.079,0,0,0-4.139,4.262m11.005,0a6.857,6.857,0,1,1-6.866-6.827,6.724,6.724,0,0,1,6.866,6.827" transform="translate(-240.344 -62.82)" fill="#1a1818"></path>
      <path id="Path_619" data-name="Path 619" d="M606.209,149.1v5.526l.244,3.7-5.737-9.222H597.63v13.2h2.691v-5.526l-.245-3.715L605.8,162.3h3.1V149.1Z" transform="translate(-252.469 -62.985)" fill="#1a1818"></path>
      <path id="Path_620" data-name="Path 620" d="M112.285,0H.025s-3,75.875,56.133,112.283C115.292,75.875,112.285,0,112.285,0" transform="translate(0 0)" fill="#036a37"></path>
      <path id="Path_621" data-name="Path 621" d="M83.16,57.257,75.377,35.686,67.594,57.257ZM67.763,23.5H83.075L105.238,82.72H92.38L87.3,68.761H63.449L58.374,82.72H45.6Z" transform="translate(-19.264 -9.929)" fill="#fff"></path>
    </g>
  </g>
</svg>
