<svg width="233" height="51" fill="none" xmlns="http://www.w3.org/2000/svg"><path d="M18.159 1.13h10.64l3.566 3.553 3.569-3.552h10.64l17.775 17.705v10.598L41.251 6.427.375 47.142V36.544L27.042 9.982l-3.569-3.555-23.1 23.01V18.839L18.156 1.13h.003Zm-.003 35.412v10.6L32.354 33l14.199 14.142v-10.6L32.354 22.399 18.156 36.542Zm17.775-17.706L64.35 47.142V36.544L41.251 13.537l-5.32 5.3ZM79.665 11.236h2.414c1.198 0 1.834-.596 1.834-1.531 0-.935-.639-1.528-1.834-1.528h-2.414v3.06Zm2.072-5.046c1.216 0 1.855-.477 1.855-1.451 0-.975-.639-1.412-1.855-1.412h-2.075v2.86h2.075v.003Zm4.668 3.733c0 2.245-1.556 3.457-4.11 3.457h-5.087V1.18h4.686c2.554 0 4.13 1.132 4.13 3.318 0 1.31-.718 2.266-1.614 2.583 1.158.378 1.995 1.51 1.995 2.841ZM90.612.468H88.14v12.915h2.472V.468ZM100.667 13.38h-2.473v-.815c-.497.557-1.355 1.015-2.393 1.015-1.994 0-3.13-1.31-3.13-3.278V4.499h2.473v5.305c0 .934.46 1.568 1.435 1.568.757 0 1.417-.458 1.596-1.233V4.497h2.495v8.88l-.003.003ZM104.696 7.977h3.451c-.019-.935-.577-1.67-1.596-1.67-.957 0-1.636.575-1.855 1.67Zm5.822 2.503c-.318 1.888-1.716 3.1-3.948 3.1-2.593 0-4.328-1.889-4.328-4.629 0-2.74 1.796-4.649 4.288-4.649 2.491 0 4.05 1.808 4.05 4.41v.753h-5.943c.08 1.332.837 2.125 1.935 2.125.837 0 1.457-.357 1.655-1.113h2.294l-.003.003ZM121.907 13.38l-3.032-7.968v7.968h-2.392V1.18h3.031l3.272 8.604 3.251-8.604h2.992V13.38h-2.414V5.412l-2.97 7.968h-1.738ZM135.092 6.387c-1.238 0-1.914 1.073-1.914 2.562 0 1.488.679 2.543 1.914 2.543 1.235 0 1.914-1.073 1.914-2.543 0-1.47-.679-2.562-1.914-2.562Zm0 7.192c-2.593 0-4.368-1.906-4.368-4.628 0-2.721 1.775-4.649 4.368-4.649 2.593 0 4.368 1.907 4.368 4.65 0 2.742-1.775 4.627-4.368 4.627ZM148.935 13.38h-2.473v-.815c-.497.557-1.356 1.015-2.393 1.015-1.994 0-3.13-1.31-3.13-3.278V4.499h2.472v5.305c0 .934.46 1.568 1.436 1.568.757 0 1.417-.458 1.596-1.233V4.497h2.494v8.88l-.002.003ZM151.068 4.499h2.473v.815c.478-.557 1.355-1.015 2.393-1.015 2.015 0 3.151 1.31 3.151 3.278v5.803h-2.472V8.094c0-.935-.479-1.569-1.457-1.569-.757 0-1.417.458-1.615 1.233v5.622h-2.473V4.499ZM161.679 6.486h-1.356V4.499h1.356V2.094h2.454V4.5h1.954v1.987h-1.954v3.893c0 .695.379 1.012 1.018 1.012.38 0 .8-.12 1.078-.299v2.187c-.34.178-.939.277-1.596.277-1.816 0-2.952-.895-2.952-2.86V6.483l-.002.003ZM172.829 10.32c-.219-.477-.898-.775-1.614-.775-.778 0-1.575.338-1.575 1.092s.799 1.092 1.575 1.092c.719 0 1.395-.298 1.614-.775v-.637.003Zm0 3.06v-.477c-.299.298-1.197.636-2.173.636-1.794 0-3.31-1.033-3.31-2.88 0-1.689 1.516-2.842 3.452-2.842.777 0 1.676.258 2.034.517v-.655c0-.754-.46-1.372-1.457-1.372-.698 0-1.117.317-1.315.834h-2.353c.259-1.609 1.716-2.842 3.751-2.842 2.374 0 3.751 1.292 3.751 3.417v5.661h-2.374l-.006.003ZM179.689 13.38h-2.473V4.5h2.473v8.88Zm-1.235-10.031c-.797 0-1.476-.575-1.476-1.412 0-.836.679-1.41 1.476-1.41.797 0 1.457.596 1.457 1.41 0 .815-.679 1.412-1.457 1.412ZM181.844 4.499h2.473v.815c.478-.557 1.355-1.015 2.392-1.015 2.016 0 3.152 1.31 3.152 3.278v5.803h-2.473V8.094c0-.935-.478-1.569-1.457-1.569-.756 0-1.416.458-1.614 1.233v5.622h-2.473V4.499ZM193.791 10.738c.201.637.757.975 1.497.975.741 0 1.257-.298 1.257-.874 0-.396-.278-.596-.898-.753l-1.794-.397c-1.356-.317-2.313-1.015-2.313-2.503 0-1.728 1.556-2.881 3.55-2.881 2.254 0 3.492 1.073 3.791 2.742h-2.352c-.161-.497-.578-.873-1.396-.873-.599 0-1.176.277-1.176.834 0 .356.241.556.799.695l1.834.418c1.556.378 2.374 1.233 2.374 2.583 0 1.808-1.574 2.88-3.649 2.88s-3.711-1.032-3.97-2.84h2.454l-.008-.006Z" fill="#00264D"/><path d="M79.063 18.442H77.49v12.199h1.574V18.442ZM81.857 21.819h1.497v1.113a3.313 3.313 0 0 1 2.612-1.292c2.016 0 3.112 1.292 3.112 3.22v5.78h-1.516v-5.543c0-1.233-.617-2.088-1.954-2.088-1.038 0-1.936.695-2.254 1.648v5.981h-1.497v-8.822.003ZM92.03 23.089h-1.436v-1.273h1.435V19.49h1.497v2.325h2.134v1.273h-2.134v5.166c0 .855.42 1.233 1.177 1.233.42 0 .858-.16 1.157-.357v1.39c-.34.178-.858.298-1.395.298-1.436 0-2.433-.775-2.433-2.404v-5.326h-.003ZM98.731 25.374h4.708c-.018-1.31-.719-2.463-2.195-2.463-1.336 0-2.293.913-2.513 2.463Zm6.104 2.623c-.318 1.67-1.575 2.82-3.572 2.82-2.414 0-4.069-1.848-4.069-4.57 0-2.721 1.615-4.61 4.029-4.61 2.414 0 3.729 1.769 3.729 4.333v.535h-6.263c.018 1.888 1.077 3.041 2.571 3.041 1.096 0 1.915-.556 2.155-1.55h1.42ZM111.497 23.31c-.241-.16-.618-.24-.997-.24-.939 0-1.757.616-2.054 1.649v5.92h-1.497v-8.823h1.497v1.153a2.478 2.478 0 0 1 2.195-1.331c.38 0 .698.058.858.138v1.531l-.002.003ZM113 22.181h1.497v1.113a3.314 3.314 0 0 1 2.612-1.291c2.016 0 3.112 1.291 3.112 3.22v5.78h-1.516V25.46c0-1.233-.618-2.088-1.954-2.088-1.038 0-1.936.695-2.254 1.649V31H113v-8.822.003ZM128.09 27.541c-.259-.655-1.157-1.091-2.074-1.091-1.078 0-2.115.476-2.115 1.53 0 1.055 1.037 1.57 2.115 1.57.917 0 1.815-.438 2.074-1.093v-.916Zm0 3.1v-.655c-.339.357-1.277.815-2.333.815-1.794 0-3.291-1.073-3.291-2.823 0-1.648 1.497-2.761 3.389-2.761.917 0 1.856.378 2.235.716V24.82c0-1.092-.679-1.888-1.954-1.888-.938 0-1.534.397-1.815 1.212h-1.476c.3-1.492 1.615-2.504 3.313-2.504 2.114 0 3.371 1.193 3.371 3.119v5.88h-1.436l-.003.002ZM132.44 23.089h-1.436v-1.273h1.436V19.49h1.497v2.325h2.133v1.273h-2.133v5.166c0 .855.42 1.233 1.176 1.233.42 0 .858-.16 1.158-.357v1.39c-.34.178-.858.298-1.396.298-1.435 0-2.432-.775-2.432-2.404v-5.326h-.003ZM139.84 30.64h-1.497V21.82h1.497v8.822Zm-.759-10.531a.968.968 0 0 1-.957-.953c0-.517.438-.954.957-.954.518 0 .978.418.978.954a.96.96 0 0 1-.978.953ZM145.591 23.313c-1.596 0-2.553 1.35-2.553 3.278s.957 3.278 2.553 3.278 2.553-1.35 2.553-3.278-.957-3.278-2.553-3.278Zm0 7.869c-2.433 0-4.069-1.888-4.069-4.591 0-2.703 1.636-4.591 4.069-4.591s4.069 1.888 4.069 4.59c0 2.704-1.655 4.592-4.069 4.592ZM152.046 21.819h1.498v1.113a3.31 3.31 0 0 1 2.611-1.292c2.016 0 3.112 1.292 3.112 3.22v5.78h-1.516v-5.543c0-1.233-.617-2.088-1.954-2.088-1.037 0-1.935.695-2.253 1.648v5.981h-1.498v-8.822.003ZM166.785 27.541c-.26-.655-1.158-1.091-2.075-1.091-1.077 0-2.114.476-2.114 1.53 0 1.055 1.037 1.57 2.114 1.57.917 0 1.815-.438 2.075-1.093v-.916Zm0 3.1v-.655c-.34.357-1.278.815-2.334.815-1.794 0-3.291-1.073-3.291-2.823 0-1.648 1.497-2.761 3.39-2.761.917 0 1.855.378 2.235.716V24.82c0-1.092-.679-1.888-1.954-1.888-.939 0-1.535.397-1.816 1.212h-1.475c.299-1.492 1.614-2.504 3.312-2.504 2.115 0 3.371 1.193 3.371 3.119v5.88h-1.436l-.002.002ZM172.271 17.726h-1.498V30.64h1.498V17.726ZM189.543 18.442v12.199h-1.574v-5.563h-6.922v5.563h-1.577V18.442h1.577v5.225h6.922v-5.225h1.574ZM195.767 22.95c-1.596 0-2.553 1.35-2.553 3.279 0 1.927.957 3.277 2.553 3.277s2.553-1.35 2.553-3.277c0-1.928-.957-3.278-2.553-3.278Zm0 7.87c-2.433 0-4.069-1.889-4.069-4.591 0-2.703 1.636-4.591 4.069-4.591s4.069 1.888 4.069 4.59c0 2.703-1.655 4.591-4.069 4.591ZM202.287 23.089h-1.435v-1.273h1.435V19.49h1.497v2.325h2.134v1.273h-2.134v5.166c0 .855.42 1.233 1.177 1.233.419 0 .858-.16 1.157-.357v1.39c-.339.178-.858.298-1.395.298-1.436 0-2.433-.775-2.433-2.404v-5.326h-.003ZM208.989 25.374h4.708c-.019-1.31-.719-2.463-2.195-2.463-1.336 0-2.293.913-2.513 2.463Zm6.104 2.623c-.319 1.67-1.575 2.82-3.572 2.82-2.414 0-4.069-1.848-4.069-4.57 0-2.721 1.615-4.61 4.029-4.61 2.414 0 3.729 1.769 3.729 4.333v.535h-6.263c.018 1.888 1.077 3.041 2.571 3.041 1.096 0 1.914-.556 2.155-1.55h1.42ZM218.704 17.726h-1.497V30.64h1.497V17.726ZM82.854 47.135l-3.868-9.3v9.3h-1.497V34.936h1.775l4.149 10.013 4.13-10.013h1.714v12.199h-1.495v-9.3l-3.83 9.3h-1.078ZM97.037 44.035c-.26-.655-1.158-1.092-2.075-1.092-1.077 0-2.115.477-2.115 1.531 0 1.055 1.038 1.569 2.115 1.569.917 0 1.815-.437 2.075-1.092v-.916Zm0 3.1v-.655c-.34.356-1.278.814-2.334.814-1.794 0-3.291-1.073-3.291-2.82 0-1.648 1.497-2.761 3.39-2.761.916 0 1.855.378 2.234.716v-1.113c0-1.092-.679-1.888-1.954-1.888-.938 0-1.534.397-1.815 1.212h-1.476c.3-1.491 1.615-2.503 3.313-2.503 2.114 0 3.37 1.193 3.37 3.118v5.882H97.04l-.002-.002ZM101.025 38.312h1.497v1.114a3.314 3.314 0 0 1 2.612-1.292c2.016 0 3.112 1.291 3.112 3.22v5.78h-1.516V41.59c0-1.23-.617-2.085-1.954-2.085-1.037 0-1.936.695-2.254 1.649v5.98h-1.497v-8.822ZM115.766 44.035c-.259-.655-1.157-1.092-2.074-1.092-1.078 0-2.115.477-2.115 1.531 0 1.055 1.037 1.569 2.115 1.569.917 0 1.815-.437 2.074-1.092v-.916Zm0 3.1v-.655c-.339.356-1.278.814-2.334.814-1.794 0-3.291-1.073-3.291-2.82 0-1.648 1.497-2.761 3.39-2.761.917 0 1.856.378 2.235.716v-1.113c0-1.092-.679-1.888-1.954-1.888-.938 0-1.535.397-1.815 1.212h-1.476c.299-1.491 1.615-2.503 3.312-2.503 2.115 0 3.371 1.193 3.371 3.118v5.882h-1.435l-.003-.002ZM125.559 40.837c-.46-.834-1.297-1.372-2.254-1.372-1.676 0-2.652 1.31-2.652 3.14s.978 3.118 2.652 3.118c.957 0 1.797-.535 2.254-1.371v-3.518.003Zm0 5.046c-.439.615-1.377 1.193-2.473 1.193-2.593 0-3.97-2.146-3.97-4.471s1.377-4.471 3.97-4.471c1.096 0 2.034.557 2.473 1.172v-.994h1.515v8.128c0 2.9-1.676 4.27-3.948 4.27-2.155 0-3.51-1.112-3.791-2.92h1.476c.259 1.113 1.096 1.648 2.312 1.648 1.596 0 2.433-.993 2.433-2.9v-.655h.003ZM130.643 41.87h4.708c-.018-1.31-.719-2.463-2.195-2.463-1.336 0-2.293.914-2.513 2.463Zm6.104 2.62c-.318 1.67-1.575 2.82-3.572 2.82-2.414 0-4.069-1.848-4.069-4.569s1.615-4.61 4.029-4.61c2.414 0 3.729 1.769 3.729 4.333v.538h-6.263c.018 1.888 1.077 3.041 2.571 3.041 1.097 0 1.915-.556 2.155-1.55h1.417l.003-.003ZM147.839 38.134c1.796 0 2.793 1.252 2.793 3.158v5.84h-1.516V41.53c0-1.233-.54-2.045-1.676-2.045-.898 0-1.676.615-1.954 1.569v6.08h-1.497v-5.604c0-1.233-.537-2.045-1.676-2.045-.899 0-1.676.615-1.955 1.569v6.08h-1.497V38.31h1.497v1.033c.439-.695 1.297-1.211 2.393-1.211 1.096 0 1.976.575 2.393 1.41.559-.793 1.457-1.41 2.692-1.41M154.06 41.87h4.707c-.018-1.31-.719-2.463-2.195-2.463-1.336 0-2.293.914-2.512 2.463Zm6.103 2.62c-.318 1.67-1.575 2.82-3.572 2.82-2.414 0-4.069-1.848-4.069-4.569s1.615-4.61 4.029-4.61c2.414 0 3.729 1.769 3.729 4.333v.538h-6.263c.018 1.888 1.077 3.041 2.572 3.041 1.096 0 1.914-.556 2.154-1.55h1.417l.003-.003ZM162.277 38.312h1.498v1.114a3.31 3.31 0 0 1 2.611-1.292c2.016 0 3.112 1.291 3.112 3.22v5.78h-1.516V41.59c0-1.23-.617-2.085-1.954-2.085-1.037 0-1.935.695-2.253 1.649v5.98h-1.498v-8.822ZM172.45 39.585h-1.436v-1.27h1.436V35.99h1.497v2.325h2.133v1.27h-2.133v5.166c0 .855.419 1.233 1.176 1.233.42 0 .858-.16 1.158-.357v1.39c-.34.179-.859.299-1.396.299-1.436 0-2.433-.775-2.433-2.405v-5.326h-.002ZM183.48 43.955c.46 1.35 1.615 2.027 3.112 2.027 1.596 0 2.713-.775 2.713-2.125 0-.954-.537-1.569-1.954-1.928l-2.195-.576c-1.695-.436-2.932-1.291-2.932-3.139 0-2.066 1.716-3.456 4.028-3.456 2.532 0 4.029 1.291 4.489 3.219h-1.575c-.379-1.092-1.296-1.888-2.911-1.888-1.457 0-2.534.754-2.534 2.008 0 1.033.679 1.531 1.954 1.867l2.096.535c1.954.498 3.053 1.55 3.053 3.278 0 2.205-1.797 3.536-4.23 3.536-2.432 0-4.248-1.212-4.707-3.358h1.596-.003ZM196.403 38.134c1.994 0 3.251 1.153 3.55 2.841h-1.537c-.2-.953-.957-1.53-2.016-1.53-1.515 0-2.513 1.35-2.513 3.277 0 1.928.998 3.278 2.513 3.278 1.056 0 1.816-.575 2.016-1.53h1.537c-.299 1.688-1.556 2.84-3.55 2.84-2.374 0-4.029-1.848-4.029-4.59 0-2.743 1.655-4.591 4.029-4.591M201.908 34.22h1.497v5.206a3.31 3.31 0 0 1 2.612-1.292c2.015 0 3.111 1.292 3.111 3.22v5.78h-1.515v-5.543c0-1.23-.618-2.086-1.955-2.086-1.037 0-1.935.695-2.253 1.649v5.98h-1.497V34.22ZM215.093 39.444c-1.596 0-2.553 1.35-2.553 3.278S213.497 46 215.093 46s2.553-1.35 2.553-3.278-.957-3.278-2.553-3.278Zm0 7.87c-2.433 0-4.069-1.889-4.069-4.592 0-2.702 1.636-4.59 4.069-4.59 2.432 0 4.068 1.888 4.068 4.59 0 2.703-1.654 4.591-4.068 4.591ZM224.666 39.444c-1.596 0-2.553 1.35-2.553 3.278S223.07 46 224.666 46s2.553-1.35 2.553-3.278-.957-3.278-2.553-3.278Zm0 7.87c-2.433 0-4.069-1.889-4.069-4.592 0-2.702 1.636-4.59 4.069-4.59s4.069 1.888 4.069 4.59c0 2.703-1.655 4.591-4.069 4.591ZM232.266 34.22h-1.497v12.915h1.497V34.22Z" fill="#74889C"/></svg>
