<?xml version="1.0" encoding="UTF-8"?>
<svg id="Layer_1" data-name="Layer 1" xmlns="http://www.w3.org/2000/svg" version="1.1" viewBox="0 0 366.1 177.7">
  <defs>
    <style>
      .cls-1, .cls-2, .cls-3, .cls-4, .cls-5, .cls-6, .cls-7 {
        stroke-width: 0px;
      }

      .cls-1, .cls-4 {
        fill: #f15c4e;
      }

      .cls-1, .cls-7 {
        fill-rule: evenodd;
      }

      .cls-2 {
        fill: #231f20;
      }

      .cls-3 {
        fill: #edab38;
      }

      .cls-5, .cls-7 {
        fill: #f15e4f;
      }

      .cls-6 {
        fill: #edab37;
      }

      .cls-8 {
        display: none;
      }
    </style>
  </defs>
  <g class="cls-8">
    <g>
      <path class="cls-2" d="M630.1,207.8v-11.3h4.3c.7,0,1.3,0,1.7.1.6,0,1,.3,1.4.5.4.3.7.6.9,1.1.2.5.3,1,.3,1.5,0,1-.3,1.8-.9,2.4-.6.7-1.7,1-3.3,1h-2.9v4.6h-1.5ZM631.6,201.9h2.9c1,0,1.6-.2,2.1-.5s.6-.9.6-1.5-.1-.9-.4-1.2c-.2-.3-.6-.6-.9-.7-.3,0-.7-.1-1.4-.1h-2.9v4Z"/>
      <path class="cls-2" d="M639.9,203.7c0-1.5.4-2.6,1.3-3.4.7-.6,1.6-.9,2.6-.9s2,.4,2.8,1.1c.7.7,1.1,1.8,1.1,3s-.2,1.9-.5,2.5c-.3.6-.8,1.1-1.4,1.4-.6.3-1.3.5-2,.5-1.1,0-2.1-.4-2.8-1.1s-1.1-1.8-1.1-3.2ZM641.3,203.7c0,1,.2,1.8.7,2.3.5.5,1,.8,1.7.8s1.3-.3,1.7-.8c.5-.5.7-1.3.7-2.4s-.2-1.8-.7-2.3c-.5-.5-1-.8-1.7-.8s-1.3.3-1.7.8c-.5.5-.7,1.3-.7,2.3Z"/>
      <path class="cls-2" d="M650.7,207.8l-2.5-8.2h1.4l1.3,4.7.5,1.8c0,0,.2-.6.4-1.7l1.3-4.8h1.4l1.2,4.7.4,1.6.5-1.6,1.4-4.7h1.3l-2.6,8.2h-1.4l-1.3-4.9-.3-1.4-1.7,6.3h-1.4Z"/>
      <path class="cls-2" d="M666.1,205.2l1.4.2c-.2.8-.6,1.5-1.3,1.9s-1.4.7-2.3.7-2.1-.4-2.8-1.1-1-1.8-1-3.1.4-2.4,1.1-3.2c.7-.8,1.6-1.1,2.8-1.1s2,.4,2.7,1.1c.7.7,1,1.8,1,3.1s0,.2,0,.4h-6.1c0,.9.3,1.6.8,2.1.5.5,1,.7,1.7.7s.9-.1,1.3-.4c.4-.3.6-.7.9-1.3ZM661.6,202.9h4.6c0-.7-.2-1.2-.5-1.5-.4-.5-1-.8-1.7-.8s-1.2.2-1.6.6c-.4.4-.7,1-.7,1.7Z"/>
      <path class="cls-2" d="M669.3,207.8v-8.2h1.2v1.2c.3-.6.6-1,.9-1.1.3-.2.6-.3.9-.3.5,0,.9.1,1.4.4l-.5,1.3c-.3-.2-.7-.3-1-.3s-.6,0-.8.3c-.2.2-.4.4-.5.8-.2.5-.2,1-.2,1.6v4.3h-1.4Z"/>
      <path class="cls-2" d="M680.1,205.2l1.4.2c-.2.8-.6,1.5-1.3,1.9s-1.4.7-2.3.7-2.1-.4-2.8-1.1-1-1.8-1-3.1.4-2.4,1.1-3.2c.7-.8,1.6-1.1,2.8-1.1s2,.4,2.7,1.1c.7.7,1,1.8,1,3.1s0,.2,0,.4h-6.1c0,.9.3,1.6.8,2.1.5.5,1,.7,1.7.7s.9-.1,1.3-.4c.4-.3.6-.7.9-1.3ZM675.6,202.9h4.6c0-.7-.2-1.2-.5-1.5-.4-.5-1-.8-1.7-.8s-1.2.2-1.6.6c-.4.4-.7,1-.7,1.7Z"/>
      <path class="cls-2" d="M688.6,207.8v-1c-.5.8-1.3,1.2-2.3,1.2s-1.2-.2-1.8-.5c-.5-.4-1-.9-1.3-1.5s-.4-1.4-.4-2.2.1-1.6.4-2.2c.3-.7.7-1.2,1.2-1.5.5-.4,1.2-.5,1.8-.5s.9.1,1.3.3c.4.2.7.5.9.8v-4h1.4v11.3h-1.3ZM684.2,203.7c0,1,.2,1.8.7,2.3.4.5,1,.8,1.6.8s1.1-.2,1.5-.7c.4-.5.6-1.2.6-2.3s-.2-1.9-.6-2.5c-.4-.5-1-.8-1.6-.8s-1.1.3-1.5.8-.6,1.3-.6,2.4Z"/>
      <path class="cls-2" d="M697.7,207.8h-1.3v-11.3h1.4v4c.6-.7,1.3-1.1,2.2-1.1s1,.1,1.4.3c.4.2.8.5,1.1.9.3.4.5.8.7,1.3.2.5.2,1.1.2,1.7,0,1.4-.3,2.5-1,3.2-.7.8-1.5,1.1-2.5,1.1s-1.7-.4-2.3-1.2v1ZM697.7,203.7c0,1,.1,1.7.4,2.1.4.7,1,1.1,1.8,1.1s1.1-.3,1.6-.8.7-1.3.7-2.3-.2-1.9-.6-2.4c-.4-.5-.9-.8-1.5-.8s-1.1.3-1.6.8-.7,1.3-.7,2.3Z"/>
      <path class="cls-2" d="M705.1,210.9l-.2-1.3c.3,0,.6.1.8.1s.6,0,.7-.2c.2-.1.3-.2.5-.4,0-.1.2-.5.4-1,0,0,0-.2.1-.3l-3.1-8.2h1.5l1.7,4.7c.2.6.4,1.2.6,1.9.2-.6.3-1.3.6-1.9l1.7-4.8h1.4l-3.1,8.3c-.3.9-.6,1.5-.8,1.9-.2.5-.5.8-.8,1-.3.2-.7.3-1.1.3s-.6,0-.9-.2Z"/>
      <path class="cls-2" d="M556.8,229.9l5.6-14.5h2.1l5.9,14.5h-2.2l-1.7-4.4h-6.1l-1.6,4.4h-2ZM561,223.9h4.9l-1.5-4c-.5-1.2-.8-2.2-1-3-.2.9-.4,1.9-.8,2.8l-1.6,4.3Z"/>
      <path class="cls-2" d="M571.7,229.9v-10.5h1.6v1.6c.4-.7.8-1.2,1.1-1.5.3-.2.7-.4,1.1-.4.6,0,1.2.2,1.8.6l-.6,1.7c-.4-.3-.9-.4-1.3-.4s-.7.1-1,.4c-.3.2-.5.6-.7,1-.2.6-.3,1.3-.3,2.1v5.5h-1.8Z"/>
      <path class="cls-2" d="M578.5,217.4v-2h1.8v2h-1.8ZM578.5,229.9v-10.5h1.8v10.5h-1.8Z"/>
      <path class="cls-2" d="M582,229.9v-1.4l6.7-7.7c-.8,0-1.4,0-2,0h-4.3v-1.4h8.6v1.2l-5.7,6.7-1.1,1.2c.8,0,1.5,0,2.2,0h4.9v1.5h-9.3Z"/>
      <path class="cls-2" d="M592.5,224.6c0-1.9.5-3.4,1.6-4.3.9-.8,2-1.2,3.3-1.2s2.6.5,3.5,1.4c.9.9,1.4,2.3,1.4,3.9s-.2,2.4-.6,3.2c-.4.8-1,1.4-1.8,1.8-.8.4-1.6.6-2.5.6-1.5,0-2.7-.5-3.6-1.4-.9-.9-1.4-2.3-1.4-4.1ZM594.3,224.6c0,1.3.3,2.4.9,3s1.3,1,2.2,1,1.6-.3,2.2-1c.6-.7.9-1.7.9-3.1s-.3-2.3-.9-3-1.3-1-2.2-1-1.6.3-2.2,1c-.6.7-.9,1.7-.9,3Z"/>
      <path class="cls-2" d="M604.4,229.9v-10.5h1.6v1.5c.8-1.2,1.9-1.7,3.3-1.7s1.2.1,1.7.3.9.5,1.2.9c.3.4.4.8.6,1.3,0,.3,0,.9,0,1.7v6.5h-1.8v-6.4c0-.7,0-1.3-.2-1.6-.1-.4-.4-.6-.7-.9-.4-.2-.8-.3-1.2-.3-.8,0-1.4.2-2,.7-.6.5-.8,1.4-.8,2.7v5.7h-1.8Z"/>
      <path class="cls-2" d="M622.5,228.6c-.7.6-1.3,1-1.9,1.2-.6.2-1.3.3-2,.3-1.2,0-2-.3-2.7-.8-.6-.6-.9-1.3-.9-2.2s.1-1,.4-1.4c.2-.4.5-.8.9-1,.4-.3.8-.5,1.3-.6.3,0,.9-.2,1.6-.3,1.4-.2,2.5-.4,3.2-.6,0-.2,0-.4,0-.5,0-.7-.2-1.2-.5-1.5-.5-.4-1.1-.6-2-.6s-1.5.1-1.9.4-.7.8-.9,1.6l-1.7-.2c.2-.7.4-1.3.8-1.8.4-.5.9-.8,1.6-1.1.7-.2,1.5-.4,2.4-.4s1.6.1,2.2.3c.6.2,1,.5,1.2.8.3.3.4.7.6,1.2,0,.3,0,.9,0,1.6v2.4c0,1.7,0,2.7.1,3.1,0,.4.2.9.5,1.3h-1.9c-.2-.4-.3-.8-.4-1.3ZM622.4,224.6c-.6.3-1.6.5-2.9.7-.7.1-1.3.2-1.6.4s-.5.3-.7.6c-.2.3-.2.5-.2.8,0,.5.2.9.5,1.2.4.3.9.5,1.6.5s1.3-.2,1.8-.5c.5-.3.9-.7,1.2-1.2.2-.4.3-1,.3-1.8v-.7Z"/>
      <path class="cls-2" d="M632.2,225.2l1.8-.2c0,.7.3,1.3.6,1.8.3.5.8.8,1.5,1.1s1.4.4,2.2.4,1.4-.1,1.9-.3c.6-.2,1-.5,1.3-.9.3-.4.4-.8.4-1.2s-.1-.9-.4-1.2-.7-.6-1.3-.9c-.4-.2-1.3-.4-2.6-.7-1.3-.3-2.3-.6-2.8-.9-.7-.4-1.2-.8-1.5-1.4-.3-.5-.5-1.1-.5-1.8s.2-1.4.6-2.1c.4-.6,1-1.1,1.8-1.5.8-.3,1.7-.5,2.7-.5s2,.2,2.8.5c.8.3,1.5.9,1.9,1.5.4.7.7,1.4.7,2.3h-1.8c0-.8-.4-1.5-1-1.9-.6-.5-1.4-.7-2.5-.7s-2,.2-2.5.6c-.5.4-.8.9-.8,1.5s.2,1,.6,1.3c.4.3,1.3.7,2.9,1,1.6.4,2.6.7,3.2.9.8.4,1.5.9,1.9,1.5s.6,1.3.6,2.1-.2,1.5-.7,2.2c-.4.7-1.1,1.2-1.9,1.6-.8.4-1.8.6-2.8.6s-2.4-.2-3.3-.6-1.6-1-2.1-1.7-.8-1.6-.8-2.6Z"/>
      <path class="cls-2" d="M650,228.3l.3,1.6c-.5.1-1,.2-1.3.2-.6,0-1.1-.1-1.5-.3-.4-.2-.6-.5-.8-.8-.1-.3-.2-1-.2-2.1v-6h-1.3v-1.4h1.3v-2.6l1.8-1.1v3.7h1.8v1.4h-1.8v6.1c0,.5,0,.8,0,1,0,.1.2.3.3.3.1,0,.3.1.6.1s.5,0,.8,0Z"/>
      <path class="cls-2" d="M658.6,228.6c-.7.6-1.3,1-1.9,1.2-.6.2-1.3.3-2,.3-1.2,0-2-.3-2.7-.8-.6-.6-.9-1.3-.9-2.2s.1-1,.4-1.4c.2-.4.5-.8.9-1,.4-.3.8-.5,1.3-.6.3,0,.9-.2,1.6-.3,1.4-.2,2.5-.4,3.2-.6,0-.2,0-.4,0-.5,0-.7-.2-1.2-.5-1.5-.5-.4-1.1-.6-2-.6s-1.5.1-1.9.4-.7.8-.9,1.6l-1.7-.2c.2-.7.4-1.3.8-1.8.4-.5.9-.8,1.6-1.1.7-.2,1.5-.4,2.4-.4s1.6.1,2.2.3c.6.2,1,.5,1.2.8.3.3.4.7.6,1.2,0,.3,0,.9,0,1.6v2.4c0,1.7,0,2.7.1,3.1s.2.9.5,1.3h-1.9c-.2-.4-.3-.8-.4-1.3ZM658.5,224.6c-.6.3-1.6.5-2.9.7-.7.1-1.3.2-1.6.4-.3.1-.5.3-.7.6-.2.3-.2.5-.2.8,0,.5.2.9.5,1.2.4.3.9.5,1.6.5s1.3-.2,1.8-.5c.5-.3.9-.7,1.2-1.2.2-.4.3-1,.3-1.8v-.7Z"/>
      <path class="cls-2" d="M666.9,228.3l.3,1.6c-.5.1-1,.2-1.3.2-.6,0-1.1-.1-1.5-.3-.4-.2-.6-.5-.8-.8-.1-.3-.2-1-.2-2.1v-6h-1.3v-1.4h1.3v-2.6l1.8-1.1v3.7h1.8v1.4h-1.8v6.1c0,.5,0,.8,0,1,0,.1.2.3.3.3.1,0,.3.1.6.1s.5,0,.8,0Z"/>
      <path class="cls-2" d="M675.9,226.5l1.8.2c-.3,1.1-.8,1.9-1.6,2.5s-1.8.9-3,.9-2.8-.5-3.7-1.4-1.4-2.3-1.4-4,.5-3.1,1.4-4.1c.9-1,2.1-1.5,3.5-1.5s2.6.5,3.4,1.4c.9,1,1.3,2.3,1.3,4s0,.3,0,.5h-7.8c0,1.2.4,2,1,2.7.6.6,1.3.9,2.2.9s1.2-.2,1.7-.5c.5-.3.8-.9,1.1-1.6ZM670,223.6h5.9c0-.9-.3-1.5-.7-2-.6-.7-1.3-1-2.2-1s-1.5.3-2.1.8c-.6.5-.9,1.3-.9,2.2Z"/>
      <path class="cls-2" d="M695.3,215.3h1.9v8.4c0,1.5-.2,2.6-.5,3.5s-.9,1.6-1.8,2.1c-.9.5-2,.8-3.4.8s-2.5-.2-3.3-.7c-.9-.5-1.5-1.1-1.9-2s-.6-2.1-.6-3.6v-8.4h1.9v8.4c0,1.3.1,2.2.4,2.8.2.6.6,1.1,1.2,1.4.6.3,1.3.5,2.1.5,1.4,0,2.4-.3,3-1,.6-.6.9-1.9.9-3.7v-8.4Z"/>
      <path class="cls-2" d="M700.2,229.9v-10.5h1.6v1.5c.8-1.2,1.9-1.7,3.3-1.7s1.2.1,1.7.3c.5.2.9.5,1.2.9.3.4.4.8.6,1.3,0,.3,0,.9,0,1.7v6.5h-1.8v-6.4c0-.7,0-1.3-.2-1.6-.1-.4-.4-.6-.7-.9-.4-.2-.8-.3-1.2-.3-.8,0-1.4.2-2,.7-.6.5-.8,1.4-.8,2.7v5.7h-1.8Z"/>
      <path class="cls-2" d="M711.5,217.4v-2h1.8v2h-1.8ZM711.5,229.9v-10.5h1.8v10.5h-1.8Z"/>
      <path class="cls-2" d="M718.9,229.9l-4-10.5h1.9l2.3,6.3c.2.7.5,1.4.7,2.1.2-.6.4-1.2.7-2l2.3-6.4h1.8l-4,10.5h-1.7Z"/>
      <path class="cls-2" d="M733.3,226.5l1.8.2c-.3,1.1-.8,1.9-1.6,2.5-.8.6-1.8.9-3,.9s-2.8-.5-3.7-1.4-1.4-2.3-1.4-4,.5-3.1,1.4-4.1,2.1-1.5,3.5-1.5,2.6.5,3.4,1.4c.9,1,1.3,2.3,1.3,4s0,.3,0,.5h-7.8c0,1.2.4,2,1,2.7s1.3.9,2.2.9,1.2-.2,1.7-.5c.5-.3.8-.9,1.1-1.6ZM727.5,223.6h5.9c0-.9-.3-1.5-.7-2-.6-.7-1.3-1-2.2-1s-1.5.3-2.1.8c-.6.5-.9,1.3-.9,2.2Z"/>
      <path class="cls-2" d="M737.4,229.9v-10.5h1.6v1.6c.4-.7.8-1.2,1.1-1.5.3-.2.7-.4,1.1-.4.6,0,1.2.2,1.8.6l-.6,1.7c-.4-.3-.9-.4-1.3-.4s-.7.1-1,.4c-.3.2-.5.6-.7,1-.2.6-.3,1.3-.3,2.1v5.5h-1.8Z"/>
      <path class="cls-2" d="M743.4,226.7l1.8-.3c0,.7.4,1.2.8,1.6.5.4,1.1.6,1.9.6s1.4-.2,1.8-.5c.4-.3.6-.7.6-1.2s-.2-.7-.5-1c-.2-.2-.9-.4-1.8-.6-1.3-.3-2.2-.6-2.7-.9-.5-.2-.9-.6-1.1-1-.3-.4-.4-.9-.4-1.4s.1-.9.3-1.3c.2-.4.5-.7.9-1,.3-.2.7-.4,1.1-.5.5-.1,1-.2,1.5-.2.8,0,1.5.1,2.2.4.6.2,1.1.6,1.4,1s.5.9.6,1.6l-1.7.2c0-.5-.3-1-.7-1.3s-.9-.5-1.6-.5-1.4.1-1.8.4c-.4.3-.5.6-.5,1s0,.4.2.6c.1.2.4.3.7.5.2,0,.7.2,1.6.5,1.3.3,2.1.6,2.6.8.5.2.9.5,1.2.9s.4.9.4,1.5-.2,1.2-.5,1.7c-.3.5-.8.9-1.5,1.2-.7.3-1.4.4-2.2.4-1.4,0-2.4-.3-3.1-.9-.7-.6-1.2-1.4-1.4-2.5Z"/>
      <path class="cls-2" d="M754.3,217.4v-2h1.8v2h-1.8ZM754.3,229.9v-10.5h1.8v10.5h-1.8Z"/>
      <path class="cls-2" d="M762.7,228.3l.3,1.6c-.5.1-1,.2-1.3.2-.6,0-1.1-.1-1.5-.3-.4-.2-.6-.5-.8-.8-.1-.3-.2-1-.2-2.1v-6h-1.3v-1.4h1.3v-2.6l1.8-1.1v3.7h1.8v1.4h-1.8v6.1c0,.5,0,.8,0,1,0,.1.2.3.3.3s.3.1.6.1.5,0,.8,0Z"/>
      <path class="cls-2" d="M764.4,233.9l-.2-1.7c.4.1.7.2,1,.2s.7,0,1-.2c.2-.1.4-.3.6-.6.1-.2.3-.6.5-1.3,0,0,0-.2.2-.4l-4-10.5h1.9l2.2,6.1c.3.8.5,1.6.8,2.4.2-.8.4-1.6.7-2.4l2.2-6.1h1.8l-4,10.7c-.4,1.2-.8,2-1,2.4-.3.6-.7,1-1.1,1.3s-.9.4-1.5.4-.7,0-1.1-.2Z"/>
      <path class="cls-2" d="M779.6,214.5c.7,0,1.4.2,2.1.6s1.2.9,1.6,1.6c.4.7.6,1.4.6,2.2s-.2,1.5-.6,2.2c-.4.7-.9,1.2-1.6,1.6-.7.4-1.4.6-2.2.6s-1.5-.2-2.2-.6c-.7-.4-1.2-.9-1.6-1.6-.4-.7-.6-1.4-.6-2.2s.2-1.5.6-2.2c.4-.7.9-1.2,1.6-1.6.7-.4,1.4-.6,2.1-.6ZM779.6,215.2c-.6,0-1.2.2-1.8.5s-1,.8-1.4,1.3c-.3.6-.5,1.2-.5,1.8s.2,1.2.5,1.8c.3.6.8,1,1.3,1.3.6.3,1.2.5,1.8.5s1.2-.2,1.8-.5c.6-.3,1-.8,1.3-1.3.3-.6.5-1.2.5-1.8s-.2-1.2-.5-1.8c-.3-.6-.8-1-1.4-1.3-.6-.3-1.2-.5-1.8-.5ZM777.7,221.3v-4.7h1.6c.5,0,.9,0,1.2.1.2,0,.4.2.6.5.1.2.2.4.2.7s-.1.6-.4.9c-.2.3-.6.4-1,.4.2,0,.3.2.4.2.2.2.4.5.7.9l.6.9h-.9l-.4-.7c-.3-.6-.6-.9-.8-1.1-.1-.1-.3-.2-.6-.2h-.4v2h-.8ZM778.5,218.6h.9c.4,0,.7,0,.9-.2.2-.1.2-.3.2-.5s0-.3-.1-.4c0-.1-.2-.2-.3-.2-.1,0-.4,0-.8,0h-.9v1.4Z"/>
    </g>
    <g>
      <path class="cls-3" d="M680-94.4h-18.5c-1.8,0-3,1.7-2.6,3.4l7.2,29.5c1.2,4.8,7.8,4.9,9,0l7.4-29.5c.4-1.7-.8-3.4-2.6-3.4h0ZM732.1-89.1l-28.4,31.2c-3.5,3.9.9,9.9,5.5,7.5l26-13.3c.9-.5,1.5-1.4,1.5-2.4v-21.1c0-2.5-3-3.7-4.6-1.9ZM608.8-88.4c-1.7-1.8-4.6-.6-4.6,1.9v21.1c0,1,.6,2,1.5,2.4l26,13.4c4.7,2.4,9-3.6,5.5-7.5l-28.4-31.2ZM733.2-46.9l-26.8,6.9c-5.2,1.3-4.5,9.1.9,9.4l26.5,1.7c1.6.1,2.8-1.1,2.8-2.7v-12.7c0-1.8-1.7-3.1-3.4-2.6h0ZM718.3-94.4l-16.9-.3c-1.2,0-2.2.6-2.8,1.6l-14.7,27.6c-2.6,5,4.8,9.3,8.8,5.1l27.8-29.5c1.6-1.8.3-4.4-2.2-4.4h0ZM642.4-93.1c-.5-.9-1.6-1.6-2.8-1.6l-16.9.3c-2.5,0-3.9,2.7-2.2,4.4l27.8,29.5c4,4.2,11.4,0,8.8-5.1l-14.7-27.6h0ZM634.4-39.3l-26.8-6.9c-1.7-.4-3.3.9-3.3,2.6v12.7c0,1.6,1.2,2.8,2.8,2.7l26.5-1.7c5.3-.3,6-8.1.9-9.4h0Z"/>
      <path class="cls-5" d="M665.6,30.4l-6.7,40.6c-.2,1,.2,2,.9,2.6l8.4,7c1,.8,2.4.8,3.4,0l7.9-7c.7-.6,1-1.5.9-2.4l-5.6-40.6c-.7-5.4-8.3-5.5-9.2-.1Z"/>
      <path class="cls-5" d="M636.6,9.8l-19.9,25.6c-.9,1.2-2.6,1.4-3.8.4l-7.6-6.3c-.6-.5-1-1.3-1-2.1v-3.1c0-.9.4-1.7,1.1-2.2l24.7-19.1c4.4-3.4,9.9,2.4,6.5,6.8h0Z"/>
      <path class="cls-5" d="M704.2,9.1l19.9,25.6c.9,1.2,2.6,1.4,3.8.4l7.6-6.3c.6-.5,1-1.3,1-2.1v-3.1c0-.9-.4-1.7-1.1-2.2l-24.7-19.1c-4.4-3.4-9.9,2.4-6.5,6.8h0Z"/>
      <path class="cls-5" d="M656.4,22.5l-10.9,34.2c-.6,1.8-2.7,2.5-4.2,1.3l-9.8-8c-1.1-.9-1.3-2.4-.6-3.6l17.1-27.9c2.9-4.8,10.1-1.3,8.4,4Z"/>
      <path class="cls-5" d="M635.5-12.7l-27.1,16.7c-1.8,1.1-4-.2-4-2.4v-13.2c0-1.2.8-2.3,2-2.6l25.6-7.2c5.2-1.5,8.3,5.8,3.6,8.7h0Z"/>
      <path class="cls-5" d="M684.4,21.9l10.9,34.2c.6,1.8,2.7,2.5,4.2,1.3l9.8-8c1.1-.9,1.3-2.4.6-3.6l-17.1-27.9c-2.9-4.8-10.1-1.3-8.4,4Z"/>
      <path class="cls-5" d="M705.3-13.4l27.1,16.7c1.8,1.1,4-.2,4-2.4v-13.2c0-1.2-.8-2.3-2-2.6l-25.6-7.2c-5.2-1.5-8.3,5.8-3.6,8.7h0Z"/>
      <path class="cls-3" d="M671.5,22c-.7.5-1.6.5-2.4,0l-7-5.2,5-10.6c-2.6,3.2-8,7.5-11,3.4l6-8.9c-2.6,2.7-8.2,7-11.7,2l7.7-7.5c-2.9,2.2-9.4,5.3-12.3.3l9.3-6.5c-3.8,1.6-11.6,3.4-12.7-2l8-3.8c-3.3.3-10.1-.3-10.7-5.8h17c.8,2.6,3.1,7.3,7.1,8.2,1.4.3,3-.4,3.4-1.8.3-.8,0-1.6-1.1-2-.8-.3-1.7.2-2.2.9l-.5.6c-1.1-1.1-2.6-3.4-.3-5.1.8-.6,1.9-.7,2.9-.7h12.1v1.4c-.9.1-2.3.5-3.2,1.3-2,1.8.5,5.8,3.1,5.1,1.8-.5,3.9-2.6,6.1-7.8h16.7c-.5,5.5-7.3,6.1-10.7,5.8l8,3.8c-1.1,5.5-8.9,3.6-12.7,2l9.3,6.5c-2.9,4.9-9.4,1.8-12.3-.3l7.7,7.5c-3.5,4.9-9.1.7-11.7-2l6,8.9c-3,4.1-8.4-.2-11-3.4l5,10.6-7,5.2h0Z"/>
      <path class="cls-5" d="M651.6-46.7c0-.3.4-.3.5,0l1.2,4.9c0,.2.2.3.4.2l4.5-2.1c.3-.1.5.2.3.4l-3,4s0,.3,0,.4l4.4,2.3c.3.1.2.5-.1.5h-4.9c-.2.1-.3.3-.3.4l1,5c0,.3-.3.5-.5.2l-3.2-3.9s-.3-.1-.4,0l-3.2,3.9c-.2.2-.5,0-.5-.2l1-5c0-.2,0-.3-.3-.3h-4.9c-.3-.1-.4-.5-.1-.6l4.4-2.3c.1,0,.2-.3,0-.4l-3-4c-.2-.2,0-.5.3-.4l4.5,2.1c.1,0,.3,0,.4-.2l1.2-4.9h0Z"/>
      <path class="cls-5" d="M675.7-35.7c0,.2-.2.3-.3.2l-1-1.3s-.2-.1-.3,0l-1,1.3c-.1.2-.4,0-.3-.2l.3-1.6s0-.3-.2-.3h-1.6c-.2,0-.3-.3,0-.5l1.4-.7s.1-.2,0-.3l-1-1.3c-.1-.2,0-.4.2-.3l1.5.7s.3,0,.3-.1l.4-1.6c0-.2.3-.2.4,0l.4,1.6s.2.2.3.1l1.5-.7c.2,0,.4.1.2.3l-1,1.3s0,.2,0,.3l1.4.8c.2.1.1.4,0,.4h-1.6s-.2.1-.2.3l.3,1.6h0Z"/>
      <path class="cls-5" d="M683.6-46.8c0,.2-.2.3-.3.2l-1-1.3s-.2-.1-.3,0l-1,1.3c-.1.2-.4,0-.3-.2l.3-1.6s0-.3-.2-.3h-1.6c-.2,0-.3-.3,0-.5l1.4-.7s.1-.2,0-.3l-1-1.3c-.1-.2,0-.4.2-.3l1.5.7s.3,0,.3-.1l.4-1.6c0-.2.3-.2.4,0l.4,1.6s.2.2.3.1l1.5-.7c.2,0,.4.1.2.3l-1,1.3s0,.2,0,.3l1.4.8c.2.1.1.4,0,.4h-1.6s-.2.1-.2.3l.3,1.6h0Z"/>
      <path class="cls-5" d="M683.6-27.8c0,.2-.2.3-.3.2l-1-1.3s-.2-.1-.3,0l-1.1,1.2c-.1.2-.4,0-.3-.2l.3-1.6s0-.3-.2-.3h-1.6c-.2,0-.3-.4,0-.5l1.4-.7s.1-.2,0-.3l-.9-1.3c-.1-.2,0-.4.3-.3l1.5.7s.3,0,.3-.1l.4-1.6c0-.2.3-.2.4,0l.4,1.6s.2.2.3.1l1.5-.6c.2,0,.4.1.2.3l-1,1.3s0,.2,0,.3l1.4.8c.2.1.1.4,0,.4h-1.6s-.2.1-.2.2l.3,1.6h0Z"/>
      <path class="cls-5" d="M694.6-41.5c0,.2-.2.3-.3.2l-1-1.2s-.2,0-.3,0l-1,1.2c-.1.2-.4,0-.3-.2l.3-1.6s0-.3-.2-.3h-1.6c-.2,0-.3-.3,0-.5l1.4-.7s.1-.2,0-.3l-.9-1.3c-.1-.2,0-.4.2-.3l1.4.7s.3,0,.3-.1l.4-1.6c0-.2.3-.2.4,0l.4,1.6s.2.2.3.1l1.4-.6c.2,0,.4.1.2.3l-.9,1.3s0,.3,0,.3l1.4.7c.2,0,.1.4,0,.4h-1.6s-.2.1-.2.3l.3,1.6"/>
      <path class="cls-7" d="M690.9-38.5l.6,1.5h1.6c0,.1.2.3,0,.4l-1.2,1,.4,1.6s-.1.2-.2.1l-1.3-.8-1.3.8s-.3,0-.2-.1l.4-1.6-1.2-1s0-.3,0-.3h1.6c0-.1.6-1.6.6-1.6,0,0,.2-.1.3,0h0Z"/>
      <path class="cls-3" d="M622.9,143c-1.4,0-2.5-.2-3.2-.7-.8-.5-1.3-1.3-1.6-2.4-.3-1.1-.5-2.7-.5-4.7v-31.7h7.7v31.7c0,1.8.2,3.2.7,4.3.5,1.1,1.6,1.6,3.4,1.6h.6v1.8h-7.1Z"/>
      <path class="cls-3" d="M636.5,143v-31.7c0-1.8-.2-3.2-.7-4.3-.5-1.1-1.6-1.6-3.4-1.6h-.6v-1.8h7.1c1.4,0,2.5.2,3.2.7.8.5,1.3,1.3,1.6,2.4.3,1.1.5,2.7.5,4.7v9.9h15.9v-17.6h7.7v31.7c0,1.8.2,3.2.7,4.3.5,1.1,1.6,1.6,3.4,1.6h.6v1.8h-7.1c-1.4,0-2.5-.2-3.2-.7-.8-.5-1.3-1.3-1.6-2.4-.3-1.1-.5-2.7-.5-4.7v-11.4h-15.9v19.1h-7.7Z"/>
      <path class="cls-3" d="M723.4,145.7c-2.8,0-5.1-.4-6.9-1.3-1.8-.9-3.1-2.3-3.9-4.2-.8-1.9-1.2-4.3-1.2-7.3v-21.2l-12.9,31.3h-1.9l-15.8-32.5v32.5h-3v-39.4h7.2l14.3,29.3,12.1-29.3h7.7v29.3c0,3.6.3,6.3.9,8.2.6,1.8,1.7,2.9,3.4,3.2v1.5Z"/>
      <path class="cls-3" d="M729.3,172.3c1,0,1.8-.2,2.3-.7.6-.5,1.1-1.1,1.5-1.7v-5.4h-1.2c-2,0-3.6.4-4.7,1.1-1.1.7-1.7,1.7-1.7,2.9s.4,2.3,1.2,2.9c.8.6,1.6.9,2.6.9h0ZM727.5,174.1c-.6,0-1.2,0-1.8-.3-.6-.2-1.3-.5-1.9-.9-.6-.4-1.1-1-1.5-1.7-.4-.7-.6-1.6-.6-2.7s.5-2.6,1.4-3.4c1-.8,2.2-1.4,3.7-1.7,1.6-.3,3.2-.5,5-.5h1.2c0-1.9-.2-3.3-.6-4.3-.4-1-.9-1.7-1.5-2-.6-.4-1.3-.6-2.1-.6s-2.1.2-2.8.7c-.7.5-1.3,1.4-1.6,2.7h-1.8c0-.7,0-1.3.1-1.9,0-.6.4-1.2.9-1.7s1.3-.9,2.5-1.1,2.3-.3,3.5-.3,1.8.1,2.6.3c.9.2,1.6.6,2.2,1.2.7.6,1.2,1.4,1.6,2.5.4,1.1.6,2.6.6,4.4v10.9h-2l-1.4-1.8h-.2c-.4.5-1,1-2,1.5-.9.5-2.1.7-3.6.7h0ZM717.6,152.4c-.6,0-1.1-.3-1.6-.8-.4-.5-.6-1.1-.6-1.8s.2-1,.5-1.3c.3-.3.8-.5,1.4-.5s1.1.3,1.6.8c.5.5.7,1.1.7,1.8s-.2,1-.5,1.3c-.3.3-.8.5-1.3.5ZM716.1,173.7v-14.1c0-1.2-.2-2.2-.5-2.9-.3-.8-1.1-1.1-2.3-1.1h-.8v-.8h3.6c.9,0,1.6.1,2.2.4.5.2.9.7,1.1,1.4.2.7.3,1.7.3,3.1v14.1h-3.6,0ZM707.7,173.7v-21.7c0-1.2-.2-2.2-.5-2.9-.3-.8-1.1-1.1-2.3-1.1h-.8v-.8h3.6c.9,0,1.6.1,2.2.4.5.2.9.7,1.1,1.4.2.7.3,1.7.3,3.1v21.7h-3.6ZM697.4,172.3c1,0,1.8-.2,2.3-.7.6-.5,1.1-1.1,1.5-1.7v-5.4h-1.2c-2,0-3.6.4-4.7,1.1-1.1.7-1.7,1.7-1.7,2.9s.4,2.3,1.2,2.9c.8.6,1.6.9,2.6.9h0ZM695.6,174.1c-.6,0-1.2,0-1.8-.3-.6-.2-1.3-.5-1.9-.9-.6-.4-1.1-1-1.5-1.7-.4-.7-.6-1.6-.6-2.7s.5-2.6,1.4-3.4c1-.8,2.2-1.4,3.7-1.7,1.6-.3,3.2-.5,5-.5h1.2c0-1.9-.2-3.3-.6-4.3-.4-1-.9-1.7-1.5-2-.6-.4-1.3-.6-2.1-.6s-2.1.2-2.8.7c-.7.5-1.3,1.4-1.6,2.7h-1.8c0-.7,0-1.3.1-1.9,0-.6.4-1.2.9-1.7s1.3-.9,2.5-1.1,2.3-.3,3.5-.3,1.8.1,2.6.3c.9.2,1.6.6,2.2,1.2.7.6,1.2,1.4,1.6,2.5.4,1.1.6,2.6.6,4.4v10.9h-2l-1.4-1.8h-.2c-.4.5-1,1-2,1.5-.9.5-2.1.7-3.6.7h0ZM677.8,173.7v-14.1c0-1.2-.2-2.2-.5-2.9-.3-.8-1.1-1.1-2.3-1.1h-.4v-.8h3.2c1,0,1.8.1,2.3.4.5.3.9.8,1.1,1.4.5-.5,1.1-.9,2-1.4.9-.5,1.9-.8,3-.8s.8,0,1.3.2c.5,0,.8.2,1.1.4.3.2.5.5.8.8s.4.6.6,1l-1.6,1.2c-.3-.4-.7-.7-1.3-.9-.6-.2-1.2-.3-1.9-.3s-1.5.2-2.2.6c-.7.3-1.2.8-1.6,1.4v14.9h-3.6,0ZM669.6,174.1c-1.4,0-2.6-.4-3.5-1.2-.9-.8-1.3-2.2-1.3-4v-12.5h-2.8v-1.6h2.8v-3.6l2-2.4h1.6v6h4.8v1.6h-4.8v12.5c0,1.2.2,2.1.7,2.7.5.6,1.2.9,2.1.9s1.3,0,1.7-.2c.5-.2.9-.3,1.3-.6l.4.8c-.4.3-1,.7-1.8,1-.7.4-1.8.6-3.2.6h0ZM654.7,174.1c-1.6,0-2.9-.1-3.9-.4-1-.3-1.8-.7-2.3-1.2-.5-.5-.8-1.1-.9-1.7,0-.6-.1-1.5-.1-2.5h.8c.2,1.3.8,2.3,1.7,3.1.9.8,2.2,1.1,3.9,1.1s2.6-.3,3.3-.8c.7-.5,1.1-1.2,1.1-2s-.3-1.5-.9-2c-.6-.6-1.5-1.1-2.7-1.6l-2.4-1c-1.5-.6-2.7-1.3-3.5-2.2-.8-.9-1.2-1.9-1.2-3.3s.6-3,1.9-3.9c1.2-.9,2.8-1.4,4.7-1.4s2.8.1,3.7.4c1,.3,1.7.7,2.2,1.2.5.5.8,1.1.9,1.7,0,.6.1,1.5.1,2.5h-.8c-.2-1.3-.8-2.3-1.7-3.1-.9-.8-2.1-1.1-3.7-1.1s-2.3.3-3,.8c-.7.5-1,1.2-1,2s.3,1.3.8,1.9c.6.6,1.3,1.1,2.4,1.5l2.4,1c1.7.7,3,1.5,3.9,2.3.9.8,1.3,1.9,1.3,3.3s-.7,3-2,3.9c-1.3.9-3,1.3-5,1.3h0ZM636.2,174.1c-1.1,0-2.2-.2-3.2-.6-1-.4-1.9-1.1-2.5-2.2-.7-1-1-2.5-1-4.5v-7.2c0-1.2-.2-2.2-.5-2.9-.3-.8-1.1-1.1-2.3-1.1h-.4v-.8h3.2c.9,0,1.6.1,2.2.4.5.2.9.7,1.1,1.4.2.7.3,1.7.3,3.1v7.2c0,1.3.2,2.4.6,3.2.4.8,1,1.3,1.6,1.7.7.3,1.4.5,2.1.5s1,0,1.5-.3c.5-.2.9-.5,1.4-.8.4-.3.8-.7,1.1-1v-15.4h3.6v18.9h-2l-1.4-1.6h-.2c-.5.5-1.2,1-2.1,1.4-.9.4-1.9.6-3.1.6ZM609.9,164.5h9.8l-4.8-11.7-5,11.7ZM628.2,173.9c-.6,0-1.3-.1-2.2-.3-.9-.2-1.7-.7-2.5-1.4-.8-.8-1.5-1.9-2.1-3.5l-1-2.6h-11.2l-3.2,7.6h-1.8l11.2-26.6h1.2l8.8,21.5c.6,1.5,1.2,2.6,1.8,3.2.6.6,1.4.9,2.5,1v.8c-.2,0-.5,0-.8.1-.3,0-.5,0-.8,0Z"/>
    </g>
  </g>
  <g class="cls-8">
    <g>
      <path class="cls-2" d="M1056.3,113.9v-14.3h5.4c.9,0,1.7,0,2.2.1.7.1,1.3.3,1.8.7.5.3.9.8,1.1,1.4.3.6.4,1.2.4,2,0,1.2-.4,2.2-1.2,3.1-.8.8-2.2,1.3-4.2,1.3h-3.7v5.8h-1.9ZM1058.2,106.4h3.7c1.2,0,2.1-.2,2.6-.7.5-.5.8-1.1.8-1.9s-.2-1.1-.5-1.5c-.3-.4-.7-.7-1.2-.8-.3,0-.9-.1-1.8-.1h-3.7v5.1Z"/>
      <path class="cls-2" d="M1068.8,108.7c0-1.9.5-3.3,1.6-4.3.9-.8,2-1.2,3.3-1.2s2.6.5,3.5,1.4,1.4,2.2,1.4,3.9-.2,2.4-.6,3.1c-.4.8-1,1.4-1.7,1.8-.8.4-1.6.6-2.5.6-1.4,0-2.6-.5-3.5-1.4-.9-.9-1.3-2.3-1.3-4ZM1070.6,108.7c0,1.3.3,2.3.9,3,.6.7,1.3,1,2.2,1s1.6-.3,2.2-1c.6-.7.9-1.7.9-3s-.3-2.3-.9-2.9c-.6-.7-1.3-1-2.2-1s-1.6.3-2.2,1-.9,1.6-.9,3Z"/>
      <path class="cls-2" d="M1082.4,113.9l-3.2-10.4h1.8l1.6,6,.6,2.2c0-.1.2-.8.5-2.1l1.6-6.1h1.8l1.6,6,.5,2,.6-2,1.8-6h1.7l-3.2,10.4h-1.8l-1.6-6.2-.4-1.8-2.1,8h-1.8Z"/>
      <path class="cls-2" d="M1102,110.5l1.8.2c-.3,1.1-.8,1.9-1.6,2.5-.8.6-1.8.9-3,.9s-2.7-.5-3.6-1.4c-.9-.9-1.3-2.2-1.3-3.9s.4-3.1,1.3-4.1,2.1-1.4,3.5-1.4,2.5.5,3.4,1.4c.9.9,1.3,2.3,1.3,4s0,.3,0,.5h-7.7c0,1.1.4,2,1,2.6.6.6,1.3.9,2.2.9s1.2-.2,1.6-.5c.5-.3.8-.9,1.1-1.6ZM1096.3,107.7h5.8c0-.9-.3-1.5-.7-2-.6-.7-1.3-1-2.2-1s-1.5.3-2,.8c-.5.5-.9,1.3-.9,2.2Z"/>
      <path class="cls-2" d="M1106,113.9v-10.4h1.6v1.6c.4-.7.8-1.2,1.1-1.5.3-.2.7-.4,1.1-.4.6,0,1.2.2,1.8.6l-.6,1.6c-.4-.3-.9-.4-1.3-.4s-.7.1-1,.3c-.3.2-.5.6-.7,1-.2.6-.3,1.3-.3,2v5.4h-1.8Z"/>
      <path class="cls-2" d="M1119.8,110.5l1.8.2c-.3,1.1-.8,1.9-1.6,2.5s-1.8.9-3,.9-2.7-.5-3.6-1.4c-.9-.9-1.3-2.2-1.3-3.9s.4-3.1,1.3-4.1,2.1-1.4,3.5-1.4,2.5.5,3.4,1.4c.9.9,1.3,2.3,1.3,4s0,.3,0,.5h-7.7c0,1.1.4,2,1,2.6.6.6,1.3.9,2.2.9s1.2-.2,1.6-.5.8-.9,1.1-1.6ZM1114,107.7h5.8c0-.9-.3-1.5-.7-2-.6-.7-1.3-1-2.2-1s-1.5.3-2,.8c-.5.5-.9,1.3-.9,2.2Z"/>
      <path class="cls-2" d="M1130.5,113.9v-1.3c-.7,1-1.6,1.5-2.9,1.5s-1.6-.2-2.3-.7c-.7-.5-1.2-1.1-1.6-1.9-.4-.8-.6-1.8-.6-2.8s.2-2,.5-2.8c.3-.8.9-1.5,1.6-1.9.7-.4,1.5-.7,2.3-.7s1.2.1,1.7.4c.5.3.9.6,1.2,1v-5.1h1.7v14.3h-1.6ZM1125,108.7c0,1.3.3,2.3.8,3,.6.7,1.2,1,2,1s1.4-.3,2-.9c.5-.6.8-1.6.8-2.9s-.3-2.5-.8-3.1-1.2-1-2-1-1.4.3-2,1c-.5.6-.8,1.6-.8,3Z"/>
      <path class="cls-2" d="M1142.1,113.9h-1.6v-14.3h1.8v5.1c.7-.9,1.7-1.4,2.8-1.4s1.2.1,1.8.4c.6.3,1,.6,1.4,1.1.4.5.7,1,.9,1.7.2.7.3,1.4.3,2.1,0,1.8-.4,3.1-1.3,4.1-.9,1-1.9,1.5-3.2,1.5s-2.2-.5-2.9-1.5v1.3ZM1142.1,108.6c0,1.2.2,2.1.5,2.7.6.9,1.3,1.4,2.2,1.4s1.4-.3,2-1c.6-.7.8-1.7.8-3s-.3-2.3-.8-3c-.5-.6-1.2-1-1.9-1s-1.4.3-2,1c-.6.7-.8,1.6-.8,2.9Z"/>
      <path class="cls-2" d="M1151.5,117.9l-.2-1.6c.4.1.7.2,1,.2s.7,0,.9-.2.4-.3.6-.5c.1-.2.3-.6.5-1.3,0,0,0-.2.2-.4l-3.9-10.4h1.9l2.2,6c.3.8.5,1.6.8,2.4.2-.8.4-1.6.7-2.4l2.2-6h1.8l-3.9,10.5c-.4,1.1-.8,1.9-1,2.4-.3.6-.7,1-1.1,1.3-.4.3-.9.4-1.4.4s-.7,0-1.1-.2Z"/>
      <path class="cls-2" d="M1165,113.9l6.7-17.4h2.5l7.1,17.4h-2.6l-2-5.3h-7.3l-1.9,5.3h-2.4ZM1170,106.7h5.9l-1.8-4.8c-.6-1.5-1-2.7-1.2-3.6-.2,1.1-.5,2.2-.9,3.3l-1.9,5.1Z"/>
      <path class="cls-2" d="M1182.8,113.9v-12.6h1.9v1.9c.5-.9.9-1.5,1.4-1.8.4-.3.9-.4,1.4-.4.7,0,1.5.2,2.2.7l-.7,2c-.5-.3-1-.5-1.6-.5s-.9.1-1.3.4c-.4.3-.6.7-.8,1.2-.2.8-.4,1.6-.4,2.5v6.6h-2.1Z"/>
      <path class="cls-2" d="M1190.9,98.9v-2.5h2.1v2.5h-2.1ZM1190.9,113.9v-12.6h2.1v12.6h-2.1Z"/>
      <path class="cls-2" d="M1195.2,113.9v-1.7l8-9.2c-.9,0-1.7,0-2.4,0h-5.1v-1.7h10.3v1.4l-6.8,8-1.3,1.5c1,0,1.9-.1,2.7-.1h5.8v1.8h-11.1Z"/>
      <path class="cls-2" d="M1207.7,107.6c0-2.3.6-4.1,1.9-5.2,1.1-.9,2.4-1.4,4-1.4s3.1.6,4.2,1.7c1.1,1.1,1.6,2.7,1.6,4.7s-.2,2.9-.7,3.8c-.5.9-1.2,1.7-2.1,2.2-.9.5-1.9.8-3,.8-1.8,0-3.2-.6-4.3-1.7-1.1-1.1-1.6-2.8-1.6-4.9ZM1209.9,107.6c0,1.6.4,2.8,1.1,3.6.7.8,1.6,1.2,2.7,1.2s1.9-.4,2.6-1.2,1.1-2,1.1-3.7-.4-2.7-1.1-3.5c-.7-.8-1.6-1.2-2.6-1.2s-2,.4-2.7,1.2c-.7.8-1.1,2-1.1,3.6Z"/>
      <path class="cls-2" d="M1222,113.9v-12.6h1.9v1.8c.9-1.4,2.3-2.1,4-2.1s1.5.1,2.1.4c.6.3,1.1.6,1.4,1.1s.5,1,.7,1.6c0,.4.1,1.1.1,2.1v7.7h-2.1v-7.7c0-.9,0-1.5-.2-2-.2-.4-.5-.8-.9-1-.4-.3-.9-.4-1.5-.4-.9,0-1.7.3-2.4.9-.7.6-1,1.7-1,3.3v6.9h-2.1Z"/>
      <path class="cls-2" d="M1243.7,112.3c-.8.7-1.6,1.1-2.3,1.4-.7.3-1.5.4-2.4.4-1.4,0-2.4-.3-3.2-1-.7-.7-1.1-1.5-1.1-2.6s.1-1.2.4-1.7c.3-.5.6-.9,1.1-1.2.5-.3,1-.5,1.5-.7.4-.1,1.1-.2,1.9-.3,1.7-.2,3-.5,3.8-.7,0-.3,0-.5,0-.6,0-.9-.2-1.5-.6-1.8-.5-.5-1.4-.7-2.4-.7s-1.7.2-2.2.5c-.5.4-.8,1-1.1,1.9l-2.1-.3c.2-.9.5-1.6.9-2.2.4-.5,1.1-1,1.9-1.3.8-.3,1.8-.4,2.9-.4s1.9.1,2.6.4,1.2.6,1.5,1c.3.4.5.9.7,1.5,0,.4.1,1,.1,2v2.8c0,2,0,3.2.1,3.8,0,.5.3,1,.5,1.5h-2.2c-.2-.4-.4-1-.4-1.6ZM1243.5,107.5c-.8.3-1.9.6-3.5.8-.9.1-1.5.3-1.9.4s-.6.4-.8.7c-.2.3-.3.6-.3,1,0,.6.2,1,.6,1.4.4.4,1.1.6,1.9.6s1.6-.2,2.2-.5c.6-.4,1.1-.9,1.4-1.5.2-.5.3-1.2.3-2.1v-.8Z"/>
      <path class="cls-2" d="M1255.2,108.3l2.2-.2c.1.9.3,1.6.7,2.1.4.6,1,1,1.7,1.4.8.3,1.7.5,2.7.5s1.7-.1,2.3-.4,1.2-.6,1.5-1.1c.3-.5.5-1,.5-1.5s-.2-1-.5-1.4c-.3-.4-.8-.7-1.6-1-.5-.2-1.5-.5-3.1-.8-1.6-.4-2.7-.7-3.4-1.1-.8-.4-1.4-1-1.9-1.6-.4-.6-.6-1.4-.6-2.2s.2-1.7.7-2.5c.5-.8,1.2-1.3,2.2-1.7s2-.6,3.2-.6,2.4.2,3.4.6c1,.4,1.7,1,2.3,1.8s.8,1.7.9,2.7l-2.2.2c-.1-1.1-.5-1.9-1.2-2.5-.7-.6-1.7-.8-3-.8s-2.4.3-3,.8c-.6.5-1,1.1-1,1.8s.2,1.1.7,1.5c.4.4,1.6.8,3.5,1.2,1.9.4,3.2.8,3.8,1.1,1,.5,1.8,1.1,2.2,1.8.5.7.7,1.5.7,2.5s-.3,1.8-.8,2.6c-.5.8-1.3,1.5-2.3,1.9-1,.5-2.1.7-3.4.7s-2.9-.2-4-.7c-1.1-.5-1.9-1.1-2.5-2.1-.6-.9-.9-2-1-3.1Z"/>
      <path class="cls-2" d="M1276.6,112l.3,1.9c-.6.1-1.1.2-1.6.2-.8,0-1.4-.1-1.8-.4-.4-.2-.7-.6-.9-1-.2-.4-.3-1.2-.3-2.5v-7.2h-1.6v-1.7h1.6v-3.1l2.1-1.3v4.4h2.1v1.7h-2.1v7.4c0,.6,0,1,.1,1.2,0,.2.2.3.4.4.2.1.4.2.7.2s.5,0,.9,0Z"/>
      <path class="cls-2" d="M1286.9,112.3c-.8.7-1.6,1.1-2.3,1.4-.7.3-1.5.4-2.4.4-1.4,0-2.4-.3-3.2-1-.7-.7-1.1-1.5-1.1-2.6s.1-1.2.4-1.7c.3-.5.6-.9,1.1-1.2.5-.3,1-.5,1.5-.7.4-.1,1.1-.2,1.9-.3,1.7-.2,3-.5,3.8-.7,0-.3,0-.5,0-.6,0-.9-.2-1.5-.6-1.8-.5-.5-1.4-.7-2.4-.7s-1.7.2-2.2.5c-.5.4-.8,1-1.1,1.9l-2.1-.3c.2-.9.5-1.6.9-2.2.4-.5,1.1-1,1.9-1.3.8-.3,1.8-.4,2.9-.4s1.9.1,2.6.4,1.2.6,1.5,1c.3.4.5.9.7,1.5,0,.4.1,1,.1,2v2.8c0,2,0,3.2.1,3.8,0,.5.3,1,.5,1.5h-2.2c-.2-.4-.4-1-.4-1.6ZM1286.7,107.5c-.8.3-1.9.6-3.5.8-.9.1-1.5.3-1.9.4s-.6.4-.8.7c-.2.3-.3.6-.3,1,0,.6.2,1,.6,1.4.4.4,1.1.6,1.9.6s1.6-.2,2.2-.5c.6-.4,1.1-.9,1.4-1.5.2-.5.3-1.2.3-2.1v-.8Z"/>
      <path class="cls-2" d="M1296.9,112l.3,1.9c-.6.1-1.1.2-1.6.2-.8,0-1.4-.1-1.8-.4-.4-.2-.7-.6-.9-1-.2-.4-.3-1.2-.3-2.5v-7.2h-1.6v-1.7h1.6v-3.1l2.1-1.3v4.4h2.1v1.7h-2.1v7.4c0,.6,0,1,.1,1.2,0,.2.2.3.4.4.2.1.4.2.7.2s.5,0,.9,0Z"/>
      <path class="cls-2" d="M1307.6,109.8l2.2.3c-.3,1.3-1,2.3-1.9,3-.9.7-2.1,1.1-3.6,1.1s-3.3-.6-4.4-1.7c-1.1-1.1-1.6-2.7-1.6-4.8s.5-3.8,1.6-4.9,2.5-1.8,4.2-1.8,3.1.6,4.1,1.7c1.1,1.1,1.6,2.8,1.6,4.8s0,.3,0,.6h-9.4c0,1.4.5,2.4,1.2,3.2.7.7,1.6,1.1,2.6,1.1s1.5-.2,2-.6,1-1.1,1.3-2ZM1300.6,106.4h7c0-1.1-.4-1.9-.8-2.4-.7-.8-1.6-1.2-2.6-1.2s-1.8.3-2.5,1c-.7.7-1,1.5-1.1,2.6Z"/>
      <path class="cls-2" d="M1330.9,96.5h2.3v10c0,1.7-.2,3.1-.6,4.2s-1.1,1.9-2.1,2.5c-1,.6-2.4,1-4.1,1s-3-.3-4-.8-1.8-1.4-2.2-2.4c-.4-1.1-.7-2.5-.7-4.4v-10h2.3v10c0,1.5.1,2.6.4,3.3.3.7.8,1.3,1.4,1.7.7.4,1.5.6,2.5.6,1.7,0,2.9-.4,3.6-1.2.7-.8,1.1-2.2,1.1-4.4v-10Z"/>
      <path class="cls-2" d="M1336.7,113.9v-12.6h1.9v1.8c.9-1.4,2.3-2.1,4-2.1s1.5.1,2.1.4c.6.3,1.1.6,1.4,1.1s.5,1,.7,1.6c0,.4.1,1.1.1,2.1v7.7h-2.1v-7.7c0-.9,0-1.5-.2-2-.2-.4-.5-.8-.9-1-.4-.3-.9-.4-1.5-.4-.9,0-1.7.3-2.4.9-.7.6-1,1.7-1,3.3v6.9h-2.1Z"/>
      <path class="cls-2" d="M1350.3,98.9v-2.5h2.1v2.5h-2.1ZM1350.3,113.9v-12.6h2.1v12.6h-2.1Z"/>
      <path class="cls-2" d="M1359.1,113.9l-4.8-12.6h2.3l2.7,7.5c.3.8.6,1.7.8,2.5.2-.7.5-1.5.8-2.4l2.8-7.7h2.2l-4.8,12.6h-2Z"/>
      <path class="cls-2" d="M1376.4,109.8l2.2.3c-.3,1.3-1,2.3-1.9,3s-2.1,1.1-3.6,1.1-3.3-.6-4.4-1.7c-1.1-1.1-1.6-2.7-1.6-4.8s.5-3.8,1.6-4.9,2.5-1.8,4.2-1.8,3.1.6,4.1,1.7c1.1,1.1,1.6,2.8,1.6,4.8s0,.3,0,.6h-9.4c0,1.4.5,2.4,1.2,3.2.7.7,1.6,1.1,2.6,1.1s1.5-.2,2-.6c.6-.4,1-1.1,1.3-2ZM1369.4,106.4h7c0-1.1-.4-1.9-.8-2.4-.7-.8-1.6-1.2-2.6-1.2s-1.8.3-2.5,1c-.7.7-1,1.5-1.1,2.6Z"/>
      <path class="cls-2" d="M1381.3,113.9v-12.6h1.9v1.9c.5-.9.9-1.5,1.4-1.8.4-.3.9-.4,1.4-.4.7,0,1.5.2,2.2.7l-.7,2c-.5-.3-1-.5-1.6-.5s-.9.1-1.3.4c-.4.3-.6.7-.8,1.2-.2.8-.4,1.6-.4,2.5v6.6h-2.1Z"/>
      <path class="cls-2" d="M1388.5,110.1l2.1-.3c.1.8.4,1.5,1,1.9.5.5,1.3.7,2.3.7s1.7-.2,2.2-.6c.5-.4.7-.9.7-1.4s-.2-.9-.6-1.1c-.3-.2-1-.4-2.2-.7-1.6-.4-2.7-.7-3.3-1-.6-.3-1.1-.7-1.4-1.2-.3-.5-.5-1.1-.5-1.7s.1-1.1.4-1.6c.3-.5.6-.9,1-1.2.3-.2.8-.5,1.4-.6.6-.2,1.2-.3,1.8-.3,1,0,1.9.1,2.6.4.7.3,1.3.7,1.7,1.2.4.5.6,1.1.7,2l-2.1.3c0-.6-.4-1.2-.8-1.5-.5-.4-1.1-.5-1.9-.5s-1.7.2-2.1.5-.6.7-.6,1.1,0,.5.3.7c.2.2.4.4.8.6.2,0,.8.3,1.9.5,1.5.4,2.6.7,3.2,1,.6.3,1.1.6,1.4,1.1.3.5.5,1.1.5,1.8s-.2,1.4-.6,2c-.4.6-1,1.1-1.8,1.5-.8.3-1.7.5-2.7.5-1.6,0-2.9-.3-3.7-1-.9-.7-1.4-1.7-1.6-3Z"/>
      <path class="cls-2" d="M1401.5,98.9v-2.5h2.1v2.5h-2.1ZM1401.5,113.9v-12.6h2.1v12.6h-2.1Z"/>
      <path class="cls-2" d="M1411.6,112l.3,1.9c-.6.1-1.1.2-1.6.2-.8,0-1.4-.1-1.8-.4-.4-.2-.7-.6-.9-1-.2-.4-.3-1.2-.3-2.5v-7.2h-1.6v-1.7h1.6v-3.1l2.1-1.3v4.4h2.1v1.7h-2.1v7.4c0,.6,0,1,.1,1.2,0,.2.2.3.4.4.2.1.4.2.7.2s.5,0,.9,0Z"/>
      <path class="cls-2" d="M1413.6,118.7l-.2-2c.5.1.9.2,1.2.2s.9,0,1.1-.2.5-.4.7-.7c.1-.2.4-.7.7-1.6,0-.1.1-.3.2-.5l-4.8-12.6h2.3l2.6,7.3c.3.9.6,1.9.9,2.9.2-1,.5-1.9.9-2.9l2.7-7.3h2.1l-4.8,12.8c-.5,1.4-.9,2.3-1.2,2.9-.4.7-.8,1.2-1.3,1.5-.5.3-1.1.5-1.8.5s-.9,0-1.4-.3Z"/>
      <path class="cls-2" d="M1431.9,95.5c.9,0,1.7.2,2.6.7.8.4,1.5,1.1,1.9,1.9.5.8.7,1.7.7,2.6s-.2,1.8-.7,2.6c-.5.8-1.1,1.5-1.9,1.9-.8.5-1.7.7-2.6.7s-1.8-.2-2.6-.7c-.8-.5-1.5-1.1-1.9-1.9-.5-.8-.7-1.7-.7-2.6s.2-1.8.7-2.6c.5-.8,1.1-1.5,2-1.9.8-.4,1.7-.7,2.6-.7ZM1431.9,96.3c-.7,0-1.4.2-2.1.6-.7.4-1.2.9-1.6,1.6s-.6,1.4-.6,2.2.2,1.5.6,2.2c.4.7.9,1.2,1.6,1.6.7.4,1.4.6,2.2.6s1.5-.2,2.2-.6,1.2-.9,1.6-1.6c.4-.7.6-1.4.6-2.2s-.2-1.5-.6-2.2c-.4-.7-.9-1.2-1.6-1.6-.7-.4-1.4-.6-2.1-.6ZM1429.6,103.6v-5.6h1.9c.7,0,1.1,0,1.4.2.3.1.5.3.7.5.2.3.3.5.3.8s-.1.8-.4,1.1c-.3.3-.7.5-1.2.5.2,0,.4.2.5.3.2.2.5.6.8,1.1l.7,1.1h-1.1l-.5-.9c-.4-.7-.7-1.1-.9-1.3-.2-.1-.4-.2-.7-.2h-.5v2.4h-.9ZM1430.5,100.4h1.1c.5,0,.9,0,1.1-.2s.3-.4.3-.6,0-.3-.1-.4-.2-.2-.4-.3c-.2,0-.5,0-.9,0h-1v1.7Z"/>
    </g>
    <g>
      <g>
        <path class="cls-3" d="M1062.6,75.1c-1.6,0-2.9-.3-3.8-.8-.9-.5-1.5-1.5-1.9-2.8-.4-1.3-.6-3.2-.6-5.5V28.5h9.1v37.4c0,2.1.3,3.8.9,5.1.6,1.3,1.9,1.9,4,1.9h.7v2.1h-8.4Z"/>
        <path class="cls-3" d="M1078.6,75.1v-37.4c0-2.1-.3-3.8-.9-5.1-.6-1.3-1.9-1.9-4-1.9h-.7v-2.1h8.4c1.6,0,2.9.3,3.8.8.9.6,1.5,1.5,1.9,2.8.4,1.3.6,3.2.6,5.5v11.6h18.8v-20.8h9.1v37.4c0,2.1.3,3.8.9,5.1.6,1.3,1.9,1.9,4,1.9h.7v2.1h-8.4c-1.6,0-2.9-.3-3.8-.8-.9-.5-1.5-1.5-1.9-2.8-.4-1.3-.6-3.2-.6-5.5v-13.4h-18.8v22.6h-9.1Z"/>
        <path class="cls-3" d="M1181.2,78.2c-3.3,0-6.1-.5-8.2-1.6s-3.6-2.7-4.6-4.9c-1-2.2-1.4-5.1-1.4-8.6v-25l-15.3,37h-2.3l-18.7-38.4v38.4h-3.5V28.5h8.5l16.9,34.6,14.3-34.6h9.1v34.6c0,4.3.4,7.5,1.1,9.6.7,2.1,2.1,3.4,4,3.8v1.8Z"/>
        <path class="cls-3" d="M1423.9,73.8c1.8,0,3.2-.4,4.2-1.3,1-.9,1.9-1.9,2.7-3v-9.8h-2.2c-3.6,0-6.4.7-8.5,2-2,1.3-3,3-3,5.2s.7,4.1,2.1,5.2c1.4,1.1,3,1.7,4.7,1.7h0ZM1420.6,77c-1,0-2.1-.2-3.3-.5-1.1-.3-2.3-.8-3.4-1.6-1.1-.8-2-1.8-2.7-3.1-.7-1.3-1-2.9-1-4.9s.8-4.7,2.5-6.2c1.7-1.4,4-2.5,6.7-3,2.8-.6,5.8-.9,9-.9h2.2c0-3.4-.3-5.9-1-7.7-.7-1.8-1.6-3-2.7-3.6-1.1-.7-2.4-1-3.8-1s-3.7.4-5.1,1.3c-1.3.9-2.3,2.5-2.8,4.9h-3.2c0-1.3,0-2.4.2-3.5.1-1.1.7-2.1,1.6-3s2.4-1.6,4.4-2c2.1-.4,4.2-.6,6.3-.6s3.2.2,4.7.6c1.5.4,2.9,1.1,4,2.2,1.2,1,2.1,2.5,2.8,4.6.7,2,1.1,4.6,1.1,7.9v19.6h-3.6l-2.5-3.3h-.4c-.7.9-1.9,1.8-3.5,2.7s-3.8,1.3-6.5,1.3h0ZM1402.8,37.9c-1.1,0-2.1-.5-2.9-1.4-.8-.9-1.1-2-1.1-3.3s.3-1.8.9-2.4c.6-.6,1.4-.9,2.4-.9s2,.5,2.8,1.4c.8.9,1.2,2,1.2,3.3s-.3,1.8-.9,2.4c-.6.6-1.4.9-2.4.9ZM1400.1,76.3v-25.3c0-2.2-.3-3.9-.9-5.2-.6-1.3-1.9-2-4.1-2h-1.4v-1.4h6.4c1.7,0,3,.2,3.9.6,1,.4,1.6,1.3,2,2.5.4,1.3.6,3.1.6,5.5v25.3h-6.4,0ZM1384.9,76.3v-39.1c0-2.2-.3-3.9-.9-5.2-.6-1.3-1.9-2-4.1-2h-1.4v-1.4h6.5c1.7,0,3,.2,3.9.6,1,.4,1.6,1.3,2,2.5.4,1.3.6,3.1.6,5.5v39.1h-6.4ZM1366.4,73.8c1.8,0,3.2-.4,4.2-1.3,1-.9,1.9-1.9,2.7-3v-9.8h-2.2c-3.6,0-6.4.7-8.5,2-2,1.3-3,3-3,5.2s.7,4.1,2.1,5.2c1.4,1.1,3,1.7,4.7,1.7h0ZM1363.2,77c-1,0-2.1-.2-3.3-.5-1.1-.3-2.3-.8-3.4-1.6-1.1-.8-2-1.8-2.7-3.1-.7-1.3-1-2.9-1-4.9s.8-4.7,2.5-6.2c1.7-1.4,4-2.5,6.7-3,2.8-.6,5.8-.9,9-.9h2.2c0-3.4-.3-5.9-1-7.7-.7-1.8-1.6-3-2.7-3.6-1.1-.7-2.4-1-3.8-1s-3.7.4-5.1,1.3c-1.3.9-2.3,2.5-2.8,4.9h-3.2c0-1.3,0-2.4.2-3.5.1-1.1.7-2.1,1.6-3,.9-.9,2.4-1.6,4.4-2,2.1-.4,4.2-.6,6.3-.6s3.2.2,4.7.6c1.5.4,2.9,1.1,4,2.2,1.2,1,2.1,2.5,2.8,4.6.7,2,1.1,4.6,1.1,7.9v19.6h-3.6l-2.5-3.3h-.4c-.7.9-1.9,1.8-3.5,2.7-1.6.9-3.8,1.3-6.5,1.3h0ZM1331.2,76.3v-25.3c0-2.2-.3-3.9-.9-5.2-.6-1.3-1.9-2-4.1-2h-.7v-1.4h5.7c1.8,0,3.2.3,4.1.8,1,.5,1.6,1.3,2,2.5.8-.8,2-1.7,3.5-2.6,1.6-.9,3.4-1.4,5.4-1.4s1.5,0,2.3.3c.8.1,1.5.4,2,.8.5.4,1,.8,1.4,1.4.4.5.8,1.2,1.1,1.9l-2.9,2.2c-.5-.7-1.3-1.3-2.4-1.6-1-.4-2.1-.6-3.4-.6s-2.8.3-3.9,1c-1.2.6-2.2,1.5-2.9,2.6v26.8h-6.5,0ZM1316.4,77c-2.5,0-4.6-.7-6.2-2.2-1.6-1.5-2.4-3.9-2.4-7.2v-22.4h-5v-2.9h5v-6.5l3.6-4.3h2.9v10.9h8.6v2.9h-8.6v22.4c0,2.2.4,3.8,1.2,4.9.9,1.1,2.1,1.6,3.8,1.6s2.3-.1,3.1-.4c.8-.3,1.6-.6,2.3-1l.7,1.4c-.8.6-1.8,1.2-3.2,1.9-1.3.7-3.3,1-5.8,1h0ZM1289.7,77c-2.9,0-5.2-.2-7-.7-1.8-.5-3.2-1.3-4.1-2.2-.9-.9-1.4-2-1.6-3.1s-.2-2.7-.2-4.5h1.4c.4,2.4,1.4,4.2,3,5.6,1.6,1.3,4,2,7,2s4.7-.5,6-1.4c1.3-1,1.9-2.2,1.9-3.6s-.5-2.7-1.6-3.6c-1-1-2.7-2-4.8-2.9l-4.3-1.8c-2.7-1.1-4.9-2.4-6.4-3.9-1.5-1.5-2.2-3.5-2.2-5.9s1.1-5.4,3.4-6.9c2.2-1.6,5.1-2.5,8.5-2.5s5,.3,6.7.8c1.8.5,3.1,1.2,4,2.1.9.9,1.4,2,1.6,3.1.1,1.2.2,2.7.2,4.5h-1.4c-.4-2.4-1.4-4.2-3-5.6-1.6-1.3-3.8-2-6.7-2s-4.1.5-5.4,1.4c-1.2,1-1.8,2.2-1.8,3.6s.5,2.4,1.5,3.5c1,1,2.4,1.9,4.2,2.7l4.3,1.8c3.1,1.3,5.4,2.6,6.9,4.1,1.6,1.5,2.4,3.5,2.4,6s-1.2,5.4-3.6,7c-2.4,1.6-5.4,2.4-9,2.4h0ZM1256.3,77c-2,0-3.9-.4-5.8-1.1s-3.4-2-4.6-3.9c-1.2-1.9-1.8-4.6-1.8-8v-13c0-2.2-.3-3.9-.9-5.2-.6-1.3-1.9-2-4.1-2h-.7v-1.4h5.7c1.7,0,3,.2,3.9.6,1,.4,1.6,1.3,2,2.5.4,1.3.6,3.1.6,5.5v13c0,2.4.4,4.3,1.1,5.8.8,1.4,1.7,2.4,2.9,3,1.2.6,2.5.9,3.8.9s1.9-.2,2.7-.5c.9-.4,1.7-.9,2.4-1.4.8-.6,1.4-1.2,2-1.9v-27.7h6.4v34h-3.6l-2.5-2.9h-.4c-.9.9-2.2,1.8-3.7,2.5-1.6.7-3.4,1.1-5.6,1.1ZM1209,59.6h17.6l-8.6-21-9,21ZM1242,76.7c-1,0-2.3-.2-3.9-.6-1.5-.4-3-1.3-4.5-2.6-1.5-1.3-2.8-3.4-3.8-6.2l-1.8-4.7h-20.1l-5.7,13.8h-3.2l20.1-47.8h2.2l15.8,38.7c1.1,2.7,2.2,4.6,3.3,5.7,1,1.1,2.6,1.7,4.6,1.9v1.4c-.4,0-.8.2-1.4.2-.5,0-1,.1-1.5.1Z"/>
      </g>
      <g>
        <path class="cls-3" d="M1018.4,28.6h-9c-.8,0-1.5.8-1.3,1.7l3.5,14.4c.6,2.3,3.8,2.4,4.4,0l3.6-14.4c.2-.8-.4-1.7-1.3-1.7h0ZM1043.9,31.2l-13.9,15.2c-1.7,1.9.4,4.8,2.7,3.7l12.7-6.5c.4-.2.7-.7.7-1.2v-10.3c0-1.2-1.4-1.8-2.3-.9h0ZM983.6,31.6c-.8-.9-2.3-.3-2.3.9v10.3c0,.5.3,1,.7,1.2l12.7,6.5c2.3,1.2,4.4-1.8,2.7-3.7l-13.9-15.2ZM1044.4,51.8l-13.1,3.4c-2.5.7-2.2,4.4.4,4.6l12.9.8c.8,0,1.4-.6,1.4-1.3v-6.2c0-.9-.8-1.5-1.6-1.3h0ZM1037.1,28.6h-8.2c-.6-.1-1.1.2-1.4.6l-7.2,13.5c-1.3,2.4,2.3,4.5,4.3,2.5h0l13.6-14.4c.8-.8.1-2.1-1.1-2.2h0ZM1000.1,29.3c-.2-.5-.8-.8-1.4-.7h-8.2c-1.2.1-1.9,1.4-1.1,2.3l13.6,14.4h0c1.9,2.1,5.6,0,4.3-2.5l-7.2-13.5ZM996.1,55.5l-13.1-3.4c-.8-.2-1.6.4-1.6,1.3v6.2c0,.8.6,1.4,1.4,1.3l12.9-.8c2.6-.2,2.9-3.9.4-4.6h0Z"/>
        <path class="cls-5" d="M1011.4,89.5l-3.3,19.8c0,.5,0,1,.5,1.3l4.1,3.4c.5.4,1.2.4,1.7,0l3.8-3.4c.3-.3.5-.7.4-1.2l-2.7-19.8c-.4-2.6-4.1-2.7-4.5,0h0Z"/>
        <path class="cls-5" d="M997.2,79.5l-9.7,12.5c-.5.6-1.3.7-1.8.2l-3.7-3.1c-.3-.3-.5-.6-.5-1v-1.5c0-.4.2-.8.5-1.1l12.1-9.3c2.1-1.6,4.8,1.2,3.2,3.3h0Z"/>
        <path class="cls-5" d="M1030.3,79.1l9.7,12.5c.5.6,1.3.7,1.8.2l3.7-3.1c.3-.3.5-.6.5-1v-1.5c0-.4-.2-.8-.5-1.1l-12.1-9.3c-2.1-1.6-4.8,1.2-3.2,3.3Z"/>
        <path class="cls-5" d="M1006.9,85.7l-5.3,16.7c-.3.9-1.3,1.2-2,.6l-4.8-3.9c-.5-.4-.6-1.2-.3-1.7l8.4-13.6c1.4-2.3,4.9-.7,4.1,2h0Z"/>
        <path class="cls-5" d="M996.7,68.5l-13.3,8.2c-.9.5-2-.1-2-1.1v-6.5c0-.6.4-1.1,1-1.3l12.5-3.5c2.6-.7,4.1,2.8,1.8,4.2h0s0,0,0,0Z"/>
        <path class="cls-5" d="M1020.6,85.3l5.3,16.7c.3.9,1.3,1.2,2,.6l4.8-3.9c.5-.4.6-1.2.3-1.7l-8.4-13.6c-1.4-2.3-4.9-.7-4.1,2h0Z"/>
        <path class="cls-5" d="M1030.8,68.1l13.3,8.2c.9.5,2-.1,2-1.1v-6.5c0-.6-.4-1.1-1-1.3l-12.5-3.5c-2.6-.7-4.1,2.8-1.8,4.2h0s0,0,0,0Z"/>
        <path class="cls-3" d="M1014.3,85.4c-.3.2-.8.2-1.1,0l-3.4-2.5,2.4-5.2c-1.2,1.6-3.9,3.7-5.4,1.7l2.9-4.3c-1.2,1.3-4,3.4-5.7,1l3.7-3.7c-1.4,1.1-4.6,2.6-6,.2l4.6-3.2c-1.8.8-5.7,1.7-6.2-1l3.9-1.8c-1.6.2-4.9-.2-5.2-2.8h8.3c.4,1.3,1.5,3.6,3.5,4,.7.1,1.4-.2,1.7-.9.1-.4,0-.8-.6-1-.4-.1-.8,0-1.1.4l-.2.3c-.6-.5-1.2-1.7-.2-2.5.4-.3.9-.4,1.4-.4h5.9v.7c-.5,0-1.1.2-1.5.6-1,.9.2,2.8,1.5,2.5.9-.2,1.9-1.2,3-3.8h8.1c-.3,2.7-3.6,3-5.2,2.8l3.9,1.8c-.5,2.7-4.3,1.8-6.2,1l4.6,3.2c-1.4,2.4-4.6.9-6-.2l3.7,3.7c-1.7,2.4-4.5.3-5.7-1l2.9,4.3c-1.5,2-4.1-.1-5.4-1.7l2.4,5.2-3.4,2.5h0,0Z"/>
        <path class="cls-5" d="M1004.6,51.9c0-.1.2-.1.2,0l.6,2.4c0,0,.1.1.2,0l2.2-1c.1,0,.2,0,.2.2l-1.5,2c0,0,0,.2,0,.2l2.2,1.1c.1,0,0,.2,0,.3h-2.4c0,0-.1.1-.1.2l.5,2.4c0,.1-.1.2-.2.1l-1.5-1.9c0,0-.1,0-.2,0l-1.5,1.9c0,.1-.3,0-.2-.1l.5-2.4c0,0,0-.2-.1-.2h-2.4c-.1,0-.2-.2,0-.3l2.2-1.1c0,0,0-.1,0-.2l-1.5-2c0-.1,0-.3.2-.2l2.2,1c0,0,.2,0,.2,0l.6-2.4h0Z"/>
        <path class="cls-5" d="M1016.3,57.3c0,.1-.1.2-.2,0l-.5-.6s-.1,0-.2,0l-.5.6c0,0-.2,0-.2,0l.2-.8c0,0,0-.1,0-.1h-.8c-.1,0-.1-.2,0-.2l.7-.4c0,0,0,0,0-.1l-.5-.6c0,0,0-.2.1-.1l.7.3c0,0,.1,0,.1,0l.2-.8c0-.1.2,0,.2,0l.2.8c0,0,0,0,.1,0l.7-.3c0,0,.2,0,.1.2l-.5.6s0,.1,0,.2l.7.4c0,0,0,.2,0,.2h-.8c0,0-.1,0,0,.1l.2.8h0Z"/>
        <path class="cls-5" d="M1020.2,51.9c0,.1-.1.2-.2,0l-.5-.6s-.1,0-.2,0l-.5.6c0,0-.2,0-.2,0l.2-.8c0,0,0-.1,0-.1h-.8c-.1,0-.1-.2,0-.2l.7-.4c0,0,0,0,0-.1l-.5-.6c0,0,0-.2.1-.1l.7.3c0,0,.1,0,.1,0l.2-.8c0-.1.2,0,.2,0l.2.8c0,0,0,0,.1,0l.7-.3c0,0,.2,0,.1.2l-.5.6s0,.1,0,.2l.7.4c0,0,0,.2,0,.2h-.8c0,0-.1,0,0,.1l.2.8h0Z"/>
        <path class="cls-5" d="M1020.2,61.1c0,.1-.1.2-.2,0l-.5-.6s-.1,0-.2,0l-.5.6c0,0-.2,0-.2,0l.2-.8c0,0,0-.1,0-.1h-.8c-.1,0-.1-.2,0-.2l.7-.3c0,0,0,0,0-.1l-.5-.7c0,0,0-.2.1-.1l.7.3c0,0,.1,0,.1,0l.2-.8c0-.1.2,0,.2,0l.2.8c0,0,0,0,.1,0l.7-.3c0,0,.2,0,.1.2l-.5.6s0,.1,0,.2l.7.4c0,0,0,.2,0,.2h-.8c0,0-.1,0,0,.1v.8c.1,0,.2,0,.2,0Z"/>
        <path class="cls-5" d="M1025.6,54.4c0,.1-.1.2-.2,0l-.5-.6s-.1,0-.2,0l-.5.6c0,0-.2,0-.2,0l.2-.8c0,0,0-.1,0-.1h-.8c-.1,0-.1-.2,0-.2l.7-.3c0,0,0,0,0-.2l-.5-.6c0,0,0-.2.1-.2l.7.3c0,0,.1,0,.1,0l.2-.8c0-.1.2,0,.2,0l.2.8c0,0,0,0,.1,0l.7-.3c0,0,.2,0,.1.2l-.5.6s0,.1,0,.1l.7.4c0,0,0,.2,0,.2h-.8c0,0-.1,0,0,.1v.8"/>
        <path class="cls-7" d="M1023.8,55.9l.3.7h.8c0,0,0,.1,0,.2l-.6.5.2.8c0,0,0,.1-.1,0l-.7-.4-.7.4c0,0-.1,0-.1,0l.2-.8-.6-.5s0-.1,0-.1h.8c0,0,.3-.8.3-.8,0,0,.1,0,.1,0h0Z"/>
      </g>
    </g>
  </g>
  <g>
    <g>
      <g>
        <path class="cls-2" d="M129.9,142.4v-11.3h4.3c.7,0,1.3,0,1.7.1.6,0,1,.3,1.4.5.4.3.7.6.9,1.1.2.5.3,1,.3,1.5,0,1-.3,1.8-.9,2.4s-1.7,1-3.3,1h-2.9v4.6h-1.5ZM131.4,136.5h2.9c1,0,1.6-.2,2.1-.5s.6-.9.6-1.5-.1-.9-.4-1.2c-.2-.3-.6-.6-.9-.7-.3,0-.7-.1-1.4-.1h-2.9v4Z"/>
        <path class="cls-2" d="M139.7,138.4c0-1.5.4-2.6,1.3-3.4.7-.6,1.6-.9,2.6-.9s2,.4,2.8,1.1c.7.7,1.1,1.8,1.1,3s-.2,1.9-.5,2.5c-.3.6-.8,1.1-1.4,1.4s-1.3.5-2,.5c-1.1,0-2.1-.4-2.8-1.1-.7-.7-1.1-1.8-1.1-3.2ZM141.1,138.4c0,1,.2,1.8.7,2.3.5.5,1,.8,1.7.8s1.3-.3,1.7-.8c.5-.5.7-1.3.7-2.4s-.2-1.8-.7-2.3c-.5-.5-1-.8-1.7-.8s-1.3.3-1.7.8-.7,1.3-.7,2.3Z"/>
        <path class="cls-2" d="M150.5,142.4l-2.5-8.2h1.4l1.3,4.7.5,1.8c0,0,.2-.6.4-1.7l1.3-4.8h1.4l1.2,4.7.4,1.6.5-1.6,1.4-4.7h1.3l-2.6,8.2h-1.4l-1.3-4.9-.3-1.4-1.7,6.3h-1.4Z"/>
        <path class="cls-2" d="M165.9,139.8l1.4.2c-.2.8-.6,1.5-1.3,1.9-.6.5-1.4.7-2.3.7s-2.1-.4-2.8-1.1-1-1.8-1-3.1.4-2.4,1.1-3.2c.7-.8,1.6-1.1,2.8-1.1s2,.4,2.7,1.1c.7.7,1,1.8,1,3.1s0,.2,0,.4h-6.1c0,.9.3,1.6.8,2.1s1,.7,1.7.7.9-.1,1.3-.4.6-.7.9-1.3ZM161.4,137.6h4.6c0-.7-.2-1.2-.5-1.5-.4-.5-1-.8-1.7-.8s-1.2.2-1.6.6c-.4.4-.7,1-.7,1.7Z"/>
        <path class="cls-2" d="M169.1,142.4v-8.2h1.2v1.2c.3-.6.6-1,.9-1.1.3-.2.6-.3.9-.3.5,0,.9.1,1.4.4l-.5,1.3c-.3-.2-.7-.3-1-.3s-.6,0-.8.3c-.2.2-.4.4-.5.8-.2.5-.2,1-.2,1.6v4.3h-1.4Z"/>
        <path class="cls-2" d="M179.9,139.8l1.4.2c-.2.8-.6,1.5-1.3,1.9-.6.5-1.4.7-2.3.7s-2.1-.4-2.8-1.1-1-1.8-1-3.1.4-2.4,1.1-3.2c.7-.8,1.6-1.1,2.8-1.1s2,.4,2.7,1.1c.7.7,1,1.8,1,3.1s0,.2,0,.4h-6.1c0,.9.3,1.6.8,2.1s1,.7,1.7.7.9-.1,1.3-.4.6-.7.9-1.3ZM175.4,137.6h4.6c0-.7-.2-1.2-.5-1.5-.4-.5-1-.8-1.7-.8s-1.2.2-1.6.6c-.4.4-.7,1-.7,1.7Z"/>
        <path class="cls-2" d="M188.4,142.4v-1c-.5.8-1.3,1.2-2.3,1.2s-1.2-.2-1.8-.5c-.5-.4-1-.9-1.3-1.5s-.4-1.4-.4-2.2.1-1.6.4-2.2.7-1.2,1.2-1.5c.5-.4,1.2-.5,1.8-.5s.9.1,1.3.3c.4.2.7.5.9.8v-4h1.4v11.3h-1.3ZM184,138.4c0,1,.2,1.8.7,2.3.4.5,1,.8,1.6.8s1.1-.2,1.5-.7c.4-.5.6-1.2.6-2.3s-.2-1.9-.6-2.5c-.4-.5-1-.8-1.6-.8s-1.1.3-1.5.8-.6,1.3-.6,2.4Z"/>
        <path class="cls-2" d="M197.5,142.4h-1.3v-11.3h1.4v4c.6-.7,1.3-1.1,2.2-1.1s1,.1,1.4.3.8.5,1.1.9c.3.4.5.8.7,1.3.2.5.2,1.1.2,1.7,0,1.4-.3,2.5-1,3.2-.7.8-1.5,1.1-2.5,1.1s-1.7-.4-2.3-1.2v1ZM197.5,138.3c0,1,.1,1.7.4,2.1.4.7,1,1.1,1.8,1.1s1.1-.3,1.6-.8.7-1.3.7-2.3-.2-1.9-.6-2.4c-.4-.5-.9-.8-1.5-.8s-1.1.3-1.6.8-.7,1.3-.7,2.3Z"/>
        <path class="cls-2" d="M204.9,145.6l-.2-1.3c.3,0,.6.1.8.1s.6,0,.7-.2c.2-.1.3-.2.5-.4,0-.1.2-.5.4-1,0,0,0-.2.1-.3l-3.1-8.2h1.5l1.7,4.7c.2.6.4,1.2.6,1.9.2-.6.3-1.3.6-1.9l1.7-4.8h1.4l-3.1,8.3c-.3.9-.6,1.5-.8,1.9-.2.5-.5.8-.8,1-.3.2-.7.3-1.1.3s-.6,0-.9-.2Z"/>
      </g>
      <g>
        <path class="cls-2" d="M129.9,164.5l5.6-14.5h2.1l5.9,14.5h-2.2l-1.7-4.4h-6.1l-1.6,4.4h-2ZM134.1,158.6h4.9l-1.5-4c-.5-1.2-.8-2.2-1-3-.2.9-.4,1.9-.8,2.8l-1.6,4.3Z"/>
        <path class="cls-2" d="M144.8,164.5v-10.5h1.6v1.6c.4-.7.8-1.2,1.1-1.5.3-.2.7-.4,1.1-.4.6,0,1.2.2,1.8.6l-.6,1.7c-.4-.3-.9-.4-1.3-.4s-.7.1-1,.4c-.3.2-.5.6-.7,1-.2.6-.3,1.3-.3,2.1v5.5h-1.8Z"/>
        <path class="cls-2" d="M151.5,152v-2h1.8v2h-1.8ZM151.5,164.5v-10.5h1.8v10.5h-1.8Z"/>
        <path class="cls-2" d="M155.1,164.5v-1.4l6.7-7.7c-.8,0-1.4,0-2,0h-4.3v-1.4h8.6v1.2l-5.7,6.7-1.1,1.2c.8,0,1.5,0,2.2,0h4.9v1.5h-9.3Z"/>
        <path class="cls-2" d="M165.5,159.3c0-1.9.5-3.4,1.6-4.3.9-.8,2-1.2,3.3-1.2s2.6.5,3.5,1.4c.9.9,1.4,2.3,1.4,3.9s-.2,2.4-.6,3.2c-.4.8-1,1.4-1.8,1.8-.8.4-1.6.6-2.5.6-1.5,0-2.7-.5-3.6-1.4-.9-.9-1.4-2.3-1.4-4.1ZM167.3,159.3c0,1.3.3,2.4.9,3s1.3,1,2.2,1,1.6-.3,2.2-1c.6-.7.9-1.7.9-3.1s-.3-2.3-.9-3-1.3-1-2.2-1-1.6.3-2.2,1c-.6.7-.9,1.7-.9,3Z"/>
        <path class="cls-2" d="M177.5,164.5v-10.5h1.6v1.5c.8-1.2,1.9-1.7,3.3-1.7s1.2.1,1.7.3.9.5,1.2.9c.3.4.4.8.6,1.3,0,.3,0,.9,0,1.7v6.5h-1.8v-6.4c0-.7,0-1.3-.2-1.6-.1-.4-.4-.6-.7-.9-.4-.2-.8-.3-1.2-.3-.8,0-1.4.2-2,.7-.6.5-.8,1.4-.8,2.7v5.7h-1.8Z"/>
        <path class="cls-2" d="M195.6,163.2c-.7.6-1.3,1-1.9,1.2-.6.2-1.3.3-2,.3-1.2,0-2-.3-2.7-.8-.6-.6-.9-1.3-.9-2.2s.1-1,.4-1.4c.2-.4.5-.8.9-1,.4-.3.8-.5,1.3-.6.3,0,.9-.2,1.6-.3,1.4-.2,2.5-.4,3.2-.6,0-.2,0-.4,0-.5,0-.7-.2-1.2-.5-1.5-.5-.4-1.1-.6-2-.6s-1.5.1-1.9.4-.7.8-.9,1.6l-1.7-.2c.2-.7.4-1.3.8-1.8.4-.5.9-.8,1.6-1.1.7-.2,1.5-.4,2.4-.4s1.6.1,2.2.3c.6.2,1,.5,1.2.8.3.3.4.7.6,1.2,0,.3,0,.9,0,1.6v2.4c0,1.7,0,2.7.1,3.1,0,.4.2.9.5,1.3h-1.9c-.2-.4-.3-.8-.4-1.3ZM195.4,159.2c-.6.3-1.6.5-2.9.7-.7.1-1.3.2-1.6.4s-.5.3-.7.6c-.2.3-.2.5-.2.8,0,.5.2.9.5,1.2.4.3.9.5,1.6.5s1.3-.2,1.8-.5c.5-.3.9-.7,1.2-1.2.2-.4.3-1,.3-1.8v-.7Z"/>
        <path class="cls-2" d="M205.2,159.9l1.8-.2c0,.7.3,1.3.6,1.8.3.5.8.8,1.5,1.1s1.4.4,2.2.4,1.4-.1,1.9-.3c.6-.2,1-.5,1.3-.9.3-.4.4-.8.4-1.2s-.1-.9-.4-1.2-.7-.6-1.3-.9c-.4-.2-1.3-.4-2.6-.7-1.3-.3-2.3-.6-2.8-.9-.7-.4-1.2-.8-1.5-1.4-.3-.5-.5-1.1-.5-1.8s.2-1.4.6-2.1c.4-.6,1-1.1,1.8-1.5.8-.3,1.7-.5,2.7-.5s2,.2,2.8.5c.8.3,1.5.9,1.9,1.5.4.7.7,1.4.7,2.3h-1.8c0-.8-.4-1.5-1-1.9-.6-.5-1.4-.7-2.5-.7s-2,.2-2.5.6c-.5.4-.8.9-.8,1.5s.2,1,.6,1.3c.4.3,1.3.7,2.9,1,1.6.4,2.6.7,3.2.9.8.4,1.5.9,1.9,1.5s.6,1.3.6,2.1-.2,1.5-.7,2.2c-.4.7-1.1,1.2-1.9,1.6-.8.4-1.8.6-2.8.6s-2.4-.2-3.3-.6-1.6-1-2.1-1.7-.8-1.6-.8-2.6Z"/>
        <path class="cls-2" d="M223.1,162.9l.3,1.6c-.5.1-1,.2-1.3.2-.6,0-1.1-.1-1.5-.3-.4-.2-.6-.5-.8-.8-.1-.3-.2-1-.2-2.1v-6h-1.3v-1.4h1.3v-2.6l1.8-1.1v3.7h1.8v1.4h-1.8v6.1c0,.5,0,.8,0,1,0,.1.2.3.3.3.1,0,.3.1.6.1s.5,0,.8,0Z"/>
        <path class="cls-2" d="M231.7,163.2c-.7.6-1.3,1-1.9,1.2-.6.2-1.3.3-2,.3-1.2,0-2-.3-2.7-.8-.6-.6-.9-1.3-.9-2.2s.1-1,.4-1.4c.2-.4.5-.8.9-1,.4-.3.8-.5,1.3-.6.3,0,.9-.2,1.6-.3,1.4-.2,2.5-.4,3.2-.6,0-.2,0-.4,0-.5,0-.7-.2-1.2-.5-1.5-.5-.4-1.1-.6-2-.6s-1.5.1-1.9.4-.7.8-.9,1.6l-1.7-.2c.2-.7.4-1.3.8-1.8.4-.5.9-.8,1.6-1.1.7-.2,1.5-.4,2.4-.4s1.6.1,2.2.3c.6.2,1,.5,1.2.8.3.3.4.7.6,1.2,0,.3,0,.9,0,1.6v2.4c0,1.7,0,2.7.1,3.1s.2.9.5,1.3h-1.9c-.2-.4-.3-.8-.4-1.3ZM231.5,159.2c-.6.3-1.6.5-2.9.7-.7.1-1.3.2-1.6.4-.3.1-.5.3-.7.6-.2.3-.2.5-.2.8,0,.5.2.9.5,1.2.4.3.9.5,1.6.5s1.3-.2,1.8-.5c.5-.3.9-.7,1.2-1.2.2-.4.3-1,.3-1.8v-.7Z"/>
        <path class="cls-2" d="M240,162.9l.3,1.6c-.5.1-1,.2-1.3.2-.6,0-1.1-.1-1.5-.3-.4-.2-.6-.5-.8-.8-.1-.3-.2-1-.2-2.1v-6h-1.3v-1.4h1.3v-2.6l1.8-1.1v3.7h1.8v1.4h-1.8v6.1c0,.5,0,.8,0,1,0,.1.2.3.3.3.1,0,.3.1.6.1s.5,0,.8,0Z"/>
        <path class="cls-2" d="M248.9,161.1l1.8.2c-.3,1.1-.8,1.9-1.6,2.5s-1.8.9-3,.9-2.8-.5-3.7-1.4-1.4-2.3-1.4-4,.5-3.1,1.4-4.1c.9-1,2.1-1.5,3.5-1.5s2.6.5,3.4,1.4c.9,1,1.3,2.3,1.3,4s0,.3,0,.5h-7.8c0,1.2.4,2,1,2.7.6.6,1.3.9,2.2.9s1.2-.2,1.7-.5c.5-.3.8-.9,1.1-1.6ZM243.1,158.2h5.9c0-.9-.3-1.5-.7-2-.6-.7-1.3-1-2.2-1s-1.5.3-2.1.8c-.6.5-.9,1.3-.9,2.2Z"/>
        <path class="cls-2" d="M268.4,150h1.9v8.4c0,1.5-.2,2.6-.5,3.5s-.9,1.6-1.8,2.1c-.9.5-2,.8-3.4.8s-2.5-.2-3.3-.7c-.9-.5-1.5-1.1-1.9-2s-.6-2.1-.6-3.6v-8.4h1.9v8.4c0,1.3.1,2.2.4,2.8.2.6.6,1.1,1.2,1.4.6.3,1.3.5,2.1.5,1.4,0,2.4-.3,3-1,.6-.6.9-1.9.9-3.7v-8.4Z"/>
        <path class="cls-2" d="M273.3,164.5v-10.5h1.6v1.5c.8-1.2,1.9-1.7,3.3-1.7s1.2.1,1.7.3c.5.2.9.5,1.2.9.3.4.4.8.6,1.3,0,.3,0,.9,0,1.7v6.5h-1.8v-6.4c0-.7,0-1.3-.2-1.6-.1-.4-.4-.6-.7-.9-.4-.2-.8-.3-1.2-.3-.8,0-1.4.2-2,.7-.6.5-.8,1.4-.8,2.7v5.7h-1.8Z"/>
        <path class="cls-2" d="M284.5,152v-2h1.8v2h-1.8ZM284.5,164.5v-10.5h1.8v10.5h-1.8Z"/>
        <path class="cls-2" d="M292,164.5l-4-10.5h1.9l2.3,6.3c.2.7.5,1.4.7,2.1.2-.6.4-1.2.7-2l2.3-6.4h1.8l-4,10.5h-1.7Z"/>
        <path class="cls-2" d="M306.4,161.1l1.8.2c-.3,1.1-.8,1.9-1.6,2.5-.8.6-1.8.9-3,.9s-2.8-.5-3.7-1.4-1.4-2.3-1.4-4,.5-3.1,1.4-4.1,2.1-1.5,3.5-1.5,2.6.5,3.4,1.4c.9,1,1.3,2.3,1.3,4s0,.3,0,.5h-7.8c0,1.2.4,2,1,2.7s1.3.9,2.2.9,1.2-.2,1.7-.5c.5-.3.8-.9,1.1-1.6ZM300.5,158.2h5.9c0-.9-.3-1.5-.7-2-.6-.7-1.3-1-2.2-1s-1.5.3-2.1.8c-.6.5-.9,1.3-.9,2.2Z"/>
        <path class="cls-2" d="M310.4,164.5v-10.5h1.6v1.6c.4-.7.8-1.2,1.1-1.5.3-.2.7-.4,1.1-.4.6,0,1.2.2,1.8.6l-.6,1.7c-.4-.3-.9-.4-1.3-.4s-.7.1-1,.4c-.3.2-.5.6-.7,1-.2.6-.3,1.3-.3,2.1v5.5h-1.8Z"/>
        <path class="cls-2" d="M316.5,161.4l1.8-.3c0,.7.4,1.2.8,1.6.5.4,1.1.6,1.9.6s1.4-.2,1.8-.5c.4-.3.6-.7.6-1.2s-.2-.7-.5-1c-.2-.2-.9-.4-1.8-.6-1.3-.3-2.2-.6-2.7-.9-.5-.2-.9-.6-1.1-1-.3-.4-.4-.9-.4-1.4s.1-.9.3-1.3c.2-.4.5-.7.9-1,.3-.2.7-.4,1.1-.5.5-.1,1-.2,1.5-.2.8,0,1.5.1,2.2.4.6.2,1.1.6,1.4,1s.5.9.6,1.6l-1.7.2c0-.5-.3-1-.7-1.3s-.9-.5-1.6-.5-1.4.1-1.8.4c-.4.3-.5.6-.5,1s0,.4.2.6c.1.2.4.3.7.5.2,0,.7.2,1.6.5,1.3.3,2.1.6,2.6.8.5.2.9.5,1.2.9s.4.9.4,1.5-.2,1.2-.5,1.7c-.3.5-.8.9-1.5,1.2-.7.3-1.4.4-2.2.4-1.4,0-2.4-.3-3.1-.9-.7-.6-1.2-1.4-1.4-2.5Z"/>
        <path class="cls-2" d="M327.4,152v-2h1.8v2h-1.8ZM327.4,164.5v-10.5h1.8v10.5h-1.8Z"/>
        <path class="cls-2" d="M335.7,162.9l.3,1.6c-.5.1-1,.2-1.3.2-.6,0-1.1-.1-1.5-.3-.4-.2-.6-.5-.8-.8-.1-.3-.2-1-.2-2.1v-6h-1.3v-1.4h1.3v-2.6l1.8-1.1v3.7h1.8v1.4h-1.8v6.1c0,.5,0,.8,0,1,0,.1.2.3.3.3s.3.1.6.1.5,0,.8,0Z"/>
        <path class="cls-2" d="M337.4,168.6l-.2-1.7c.4.1.7.2,1,.2s.7,0,1-.2c.2-.1.4-.3.6-.6.1-.2.3-.6.5-1.3,0,0,0-.2.2-.4l-4-10.5h1.9l2.2,6.1c.3.8.5,1.6.8,2.4.2-.8.4-1.6.7-2.4l2.2-6.1h1.8l-4,10.7c-.4,1.2-.8,2-1,2.4-.3.6-.7,1-1.1,1.3s-.9.4-1.5.4-.7,0-1.1-.2Z"/>
        <path class="cls-2" d="M352.7,149.2c.7,0,1.4.2,2.1.6s1.2.9,1.6,1.6c.4.7.6,1.4.6,2.2s-.2,1.5-.6,2.2c-.4.7-.9,1.2-1.6,1.6-.7.4-1.4.6-2.2.6s-1.5-.2-2.2-.6c-.7-.4-1.2-.9-1.6-1.6-.4-.7-.6-1.4-.6-2.2s.2-1.5.6-2.2c.4-.7.9-1.2,1.6-1.6.7-.4,1.4-.6,2.1-.6ZM352.7,149.9c-.6,0-1.2.2-1.8.5s-1,.8-1.4,1.3c-.3.6-.5,1.2-.5,1.8s.2,1.2.5,1.8c.3.6.8,1,1.3,1.3.6.3,1.2.5,1.8.5s1.2-.2,1.8-.5c.6-.3,1-.8,1.3-1.3.3-.6.5-1.2.5-1.8s-.2-1.2-.5-1.8c-.3-.6-.8-1-1.4-1.3-.6-.3-1.2-.5-1.8-.5ZM350.8,155.9v-4.7h1.6c.5,0,.9,0,1.2.1.2,0,.4.2.6.5.1.2.2.4.2.7s-.1.6-.4.9c-.2.3-.6.4-1,.4.2,0,.3.2.4.2.2.2.4.5.7.9l.6.9h-.9l-.4-.7c-.3-.6-.6-.9-.8-1.1-.1-.1-.3-.2-.6-.2h-.4v2h-.8ZM351.5,153.3h.9c.4,0,.7,0,.9-.2.2-.1.2-.3.2-.5s0-.3-.1-.4c0-.1-.2-.2-.3-.2-.1,0-.4,0-.8,0h-.9v1.4Z"/>
      </g>
    </g>
    <g>
      <g>
        <path class="cls-6" d="M137.6,66.4c-1.9,0-3.4-.3-4.4-.9-1.1-.6-1.8-1.7-2.2-3.3-.4-1.6-.6-3.7-.6-6.5V12.1h10.6v43.7c0,2.5.3,4.5,1,6,.7,1.5,2.2,2.3,4.7,2.3h.8v2.5h-9.7Z"/>
        <path class="cls-6" d="M156.3,66.4V22.8c0-2.5-.3-4.5-1-6-.7-1.5-2.2-2.3-4.7-2.3h-.8v-2.5h9.7c1.9,0,3.4.3,4.4,1,1.1.7,1.8,1.8,2.2,3.3.4,1.5.6,3.7.6,6.4v13.6h21.9V12.1h10.6v43.7c0,2.5.3,4.5,1,6,.7,1.5,2.2,2.3,4.7,2.3h.8v2.5h-9.7c-1.9,0-3.4-.3-4.4-.9-1.1-.6-1.8-1.7-2.2-3.3-.4-1.6-.6-3.7-.6-6.5v-15.7h-21.9v26.4h-10.6Z"/>
        <path class="cls-6" d="M275.8,70.2c-3.9,0-7.1-.6-9.5-1.9-2.4-1.2-4.2-3.2-5.3-5.8-1.1-2.6-1.7-6-1.7-10.1v-29.2l-17.8,43.2h-2.7l-21.8-44.8v44.8h-4.1V12.1h9.9l19.7,40.5,16.6-40.5h10.6v40.4c0,5,.4,8.7,1.3,11.2.8,2.5,2.4,4,4.7,4.4v2.1Z"/>
      </g>
      <path class="cls-6" d="M162.8,109c-.8,0-1.8-.1-3-.4-1.2-.3-2.3-1-3.5-2-1.1-1-2.1-2.6-2.9-4.8l-1.4-3.6h-15.3l-4.4,10.5h-2.5l15.3-36.6h1.6l12.1,29.7c.9,2.1,1.7,3.5,2.5,4.4.8.8,2,1.3,3.5,1.4v1.1c-.3,0-.6.1-1,.2-.4,0-.7.1-1.2.1ZM137.6,96h13.4l-6.6-16.1-6.9,16.1ZM173.7,109.3c-1.5,0-3-.3-4.4-.8-1.4-.6-2.6-1.6-3.5-3-.9-1.4-1.4-3.5-1.4-6.2v-10c0-1.7-.2-3-.7-4-.4-1-1.5-1.6-3.1-1.6h-.5v-1.1h4.4c1.3,0,2.3.2,3,.5.7.3,1.2,1,1.5,1.9.3,1,.4,2.4.4,4.2v10c0,1.9.3,3.3.9,4.4.6,1.1,1.3,1.9,2.2,2.3.9.5,1.9.7,2.9.7s1.4-.1,2.1-.4c.7-.3,1.3-.7,1.9-1.1.6-.4,1.1-.9,1.5-1.4v-21.2h4.9v26.1h-2.7l-1.9-2.2h-.3c-.7.7-1.6,1.4-2.9,1.9-1.2.6-2.6.8-4.3.8ZM199.2,109.3c-2.2,0-4-.2-5.4-.6-1.4-.4-2.4-1-3.1-1.7-.7-.7-1.1-1.5-1.2-2.4-.1-.9-.2-2-.2-3.4h1.1c.3,1.8,1.1,3.2,2.3,4.3,1.2,1,3,1.6,5.4,1.6s3.6-.4,4.5-1.1c1-.7,1.5-1.7,1.5-2.8s-.4-2-1.3-2.8c-.8-.8-2-1.5-3.7-2.2l-3.3-1.4c-2.1-.9-3.7-1.9-4.9-3-1.1-1.2-1.7-2.7-1.7-4.5s.9-4.1,2.6-5.3c1.7-1.3,3.9-1.9,6.5-1.9s3.8.2,5.2.6c1.4.4,2.4.9,3.1,1.6.7.7,1.1,1.5,1.2,2.4.1.9.2,2,.2,3.4h-1.1c-.3-1.8-1.1-3.2-2.3-4.3-1.2-1-2.9-1.6-5.1-1.6s-3.2.4-4.1,1.1c-.9.7-1.4,1.7-1.4,2.8s.4,1.9,1.2,2.7c.8.8,1.8,1.5,3.2,2.1l3.3,1.4c2.3,1,4.1,2,5.3,3.2,1.2,1.1,1.8,2.7,1.8,4.6s-.9,4.1-2.7,5.4c-1.8,1.2-4.1,1.8-6.9,1.8ZM219.6,109.3c-1.9,0-3.5-.6-4.8-1.7-1.2-1.1-1.8-3-1.8-5.5v-17.2h-3.8v-2.2h3.8v-5l2.7-3.3h2.2v8.3h6.6v2.2h-6.6v17.2c0,1.7.3,2.9.9,3.8.7.8,1.6,1.2,2.9,1.2s1.7-.1,2.4-.3c.6-.2,1.2-.5,1.8-.8l.5,1.1c-.6.4-1.4.9-2.4,1.4-1,.5-2.5.8-4.4.8ZM231,108.8v-19.4c0-1.7-.2-3-.7-4-.4-1-1.5-1.6-3.1-1.6h-.5v-1.1h4.4c1.4,0,2.4.2,3.1.6.7.4,1.2,1,1.5,1.9.6-.6,1.5-1.3,2.7-2,1.2-.7,2.6-1.1,4.2-1.1s1.1,0,1.8.2c.6.1,1.1.3,1.5.6s.7.6,1,1.1c.3.4.6.9.9,1.4l-2.2,1.7c-.4-.6-1-1-1.8-1.2-.8-.3-1.6-.4-2.6-.4s-2.1.3-3,.8c-.9.5-1.6,1.1-2.2,2v20.5h-4.9ZM255.4,109.3c-.8,0-1.6-.1-2.5-.4-.9-.2-1.7-.6-2.6-1.2-.8-.6-1.5-1.4-2.1-2.4-.5-1-.8-2.3-.8-3.8s.6-3.6,1.9-4.7c1.3-1.1,3-1.9,5.2-2.3,2.2-.5,4.5-.7,6.9-.7h1.6c0-2.6-.3-4.6-.8-5.9-.5-1.4-1.2-2.3-2.1-2.8-.8-.5-1.8-.8-2.9-.8s-2.8.3-3.9,1c-1,.7-1.7,1.9-2.1,3.7h-2.5c0-1,0-1.9.2-2.7.1-.9.5-1.6,1.2-2.3s1.8-1.2,3.4-1.5c1.6-.3,3.2-.4,4.8-.4s2.4.1,3.6.4c1.2.3,2.2.9,3.1,1.7.9.8,1.6,1.9,2.1,3.5.5,1.5.8,3.5.8,6.1v15h-2.7l-1.9-2.5h-.3c-.5.7-1.4,1.4-2.7,2.1-1.2.7-2.9,1-5,1ZM257.9,106.8c1.4,0,2.4-.3,3.2-1,.8-.7,1.5-1.5,2-2.3v-7.5h-1.6c-2.7,0-4.9.5-6.5,1.6-1.5,1-2.3,2.3-2.3,4s.5,3.1,1.6,4c1.1.9,2.3,1.3,3.6,1.3ZM272.1,108.8v-30c0-1.7-.2-3-.7-4-.4-1-1.5-1.6-3.1-1.6h-1.1v-1.1h4.9c1.3,0,2.3.2,3,.5.7.3,1.2,1,1.5,1.9.3,1,.4,2.4.4,4.2v30h-4.9ZM283.6,108.8v-19.4c0-1.7-.2-3-.7-4-.4-1-1.5-1.6-3.1-1.6h-1.1v-1.1h4.9c1.3,0,2.3.2,3,.5.7.3,1.2,1,1.5,1.9.3,1,.4,2.4.4,4.2v19.4h-4.9ZM285.7,79.3c-.8,0-1.6-.4-2.2-1.1-.6-.7-.9-1.5-.9-2.5s.2-1.4.7-1.8c.5-.4,1.1-.7,1.9-.7s1.6.4,2.1,1.1c.6.7.9,1.5.9,2.5s-.2,1.4-.7,1.8c-.4.4-1,.7-1.8.7ZM299.4,109.3c-.8,0-1.6-.1-2.5-.4-.9-.2-1.7-.6-2.6-1.2-.8-.6-1.5-1.4-2.1-2.4-.5-1-.8-2.3-.8-3.8s.6-3.6,1.9-4.7c1.3-1.1,3-1.9,5.2-2.3,2.2-.5,4.5-.7,6.9-.7h1.6c0-2.6-.3-4.6-.8-5.9-.5-1.4-1.2-2.3-2.1-2.8-.8-.5-1.8-.8-2.9-.8s-2.8.3-3.9,1c-1,.7-1.7,1.9-2.1,3.7h-2.5c0-1,0-1.9.2-2.7.1-.9.5-1.6,1.2-2.3.7-.7,1.8-1.2,3.4-1.5,1.6-.3,3.2-.4,4.8-.4s2.4.1,3.6.4c1.2.3,2.2.9,3.1,1.7.9.8,1.6,1.9,2.1,3.5.5,1.5.8,3.5.8,6.1v15h-2.7l-1.9-2.5h-.3c-.5.7-1.4,1.4-2.7,2.1-1.2.7-2.9,1-5,1ZM301.9,106.8c1.4,0,2.4-.3,3.2-1,.8-.7,1.5-1.5,2-2.3v-7.5h-1.6c-2.7,0-4.9.5-6.5,1.6-1.5,1-2.3,2.3-2.3,4s.5,3.1,1.6,4c1.1.9,2.3,1.3,3.6,1.3Z"/>
      <path class="cls-6" d="M32.7,52.3l-21-5.5c-1.3-.3-2.6.7-2.6,2.1v10c0,1.2,1,2.2,2.2,2.1l20.8-1.3h0c4.2-.3,4.7-6.3.7-7.4ZM39,10.1c-.4-.8-1.2-1.2-2.2-1.2l-13.2.2c-2,0-3,2.1-1.8,3.5l21.8,23.1h0s0,0,0,0c3.1,3.3,8.9,0,6.9-4l-11.5-21.6ZM98.5,9.1l-13.2-.2c-.9,0-1.8.5-2.2,1.2l-11.5,21.6c-2.1,3.9,3.7,7.3,6.9,4h0s21.8-23.2,21.8-23.2c1.3-1.4.2-3.4-1.8-3.5ZM110.2,46.3l-21,5.5c-4,1-3.5,7.1.7,7.4h0l20.8,1.3c1.2,0,2.2-.9,2.2-2.1v-10c0-1.4-1.3-2.4-2.6-2.1ZM12.6,13.8c-1.3-1.4-3.6-.5-3.6,1.5v16.5c0,.8.4,1.6,1.2,1.9l20.4,10.5h0c3.6,1.9,7.1-2.9,4.3-5.9L12.6,13.8ZM109.3,13.3l-22.2,24.5c-2.8,3.1.7,7.8,4.3,5.9h0s20.4-10.5,20.4-10.5c.7-.4,1.2-1.1,1.2-1.9V14.8c0-1.9-2.3-2.9-3.6-1.5ZM68.5,9.1h-14.5c-1.4,0-2.4,1.3-2,2.7l5.6,23.1h0c.9,3.8,6.1,3.8,7.1,0l5.8-23.2c.3-1.4-.7-2.7-2-2.7Z"/>
      <g>
        <path class="cls-4" d="M57.2,107l-5.3,31.8c-.1.8.2,1.5.7,2l6.6,5.5c.8.7,1.9.6,2.7,0l6.2-5.5c.5-.5.8-1.2.7-1.9l-4.4-31.8c-.6-4.2-6.5-4.3-7.2-.1h0Z"/>
        <path class="cls-4" d="M34.4,90.8l-15.6,20.1c-.7.9-2.1,1.1-3,.3l-6-5c-.5-.4-.8-1-.8-1.7v-2.5c0-.7.3-1.3.8-1.7l19.4-15c3.4-2.6,7.7,1.9,5.1,5.3Z"/>
        <path class="cls-4" d="M87.5,90.3l15.6,20.1c.7.9,2.1,1.1,3,.3l6-5c.5-.4.8-1,.8-1.7v-2.5c0-.7-.3-1.3-.8-1.7l-19.4-15c-3.4-2.6-7.7,1.9-5.1,5.3h0Z"/>
        <path class="cls-4" d="M50,100.8l-8.5,26.8c-.5,1.4-2.1,1.9-3.3,1l-7.7-6.3c-.8-.7-1-1.9-.5-2.8l13.4-21.9c2.3-3.7,7.9-1.1,6.6,3.2h0Z"/>
        <path class="cls-4" d="M33.6,73.2l-21.3,13.1c-1.4.9-3.2-.2-3.2-1.8v-10.4c0-1,.6-1.8,1.5-2.1l20.1-5.7c4.1-1.2,6.5,4.6,2.9,6.8h0s0,0,0,0Z"/>
        <path class="cls-4" d="M72,100.3l8.5,26.8c.5,1.4,2.1,1.9,3.3,1l7.7-6.3c.8-.7,1-1.9.5-2.8l-13.4-21.9c-2.3-3.7-7.9-1.1-6.6,3.2Z"/>
        <path class="cls-4" d="M88.4,72.6l21.3,13.1c1.4.9,3.2-.2,3.2-1.8v-10.4c0-1-.6-1.8-1.5-2.1l-20.1-5.7c-4.1-1.2-6.5,4.6-2.9,6.8h0s0,0,0,0Z"/>
      </g>
      <path class="cls-6" d="M61.8,100.4c-.5.4-1.3.4-1.8,0l-5.5-4,3.9-8.3c-2,2.5-6.3,5.9-8.6,2.7l4.7-7c-2,2.1-6.4,5.5-9.1,1.6l6-5.9c-2.3,1.7-7.4,4.1-9.7.3l7.3-5.1c-3,1.2-9.1,2.7-9.9-1.6l6.3-2.9c-2.6.3-7.9-.3-8.4-4.6h13.3c.6,2.1,2.5,5.8,5.6,6.4,1.1.2,2.3-.3,2.7-1.4.2-.6,0-1.3-.9-1.6-.7-.2-1.3.1-1.8.7l-.4.5c-.9-.8-2-2.7-.3-4,.6-.5,1.5-.6,2.3-.6h9.5v1.1c-.7,0-1.8.4-2.5,1-1.6,1.4.4,4.5,2.4,4,1.4-.4,3.1-2,4.7-6.1h13.1c-.4,4.3-5.7,4.8-8.4,4.6l6.3,2.9c-.8,4.3-7,2.9-9.9,1.6l7.3,5.1c-2.3,3.9-7.4,1.4-9.7-.3l6,5.9c-2.7,3.9-7.1.5-9.1-1.6l4.7,7c-2.4,3.2-6.6-.2-8.6-2.7l3.9,8.3-5.5,4.1h0,0Z"/>
      <path class="cls-4" d="M46.2,46.5c0-.2.3-.2.4,0l1,3.8c0,.1.2.2.3.1l3.5-1.6c.2,0,.4.2.3.3l-2.3,3.2c0,.1,0,.3,0,.3l3.4,1.8c.2.1.1.4,0,.4h-3.9c-.1,0-.2.2-.2.3l.8,3.9c0,.2-.2.4-.4.2l-2.5-3c0-.1-.2-.1-.3,0l-2.5,3c-.1.2-.4,0-.4-.2l.8-3.9c0-.1,0-.3-.2-.3h-3.9c-.2,0-.3-.4,0-.5l3.4-1.8c.1,0,.2-.2,0-.3l-2.3-3.2c-.1-.2,0-.4.3-.3l3.5,1.6c.1,0,.3,0,.3-.1l1-3.8h0Z"/>
      <path class="cls-4" d="M65.1,55.1c0,.2-.2.3-.3.1l-.8-1c0,0-.2,0-.2,0l-.8,1c-.1.1-.3,0-.3-.1l.3-1.3c0-.1,0-.2-.1-.2h-1.3c-.2,0-.2-.3,0-.4l1.1-.6c0,0,.1-.2,0-.2l-.8-1c0-.1,0-.3.2-.2l1.1.6c0,0,.2,0,.2-.1l.3-1.3c0-.2.3-.2.3,0l.3,1.3c0,0,.1.1.2.1l1.2-.5c.1,0,.3.1.2.2l-.8,1c0,0,0,.2,0,.2l1.1.6c.1,0,0,.3,0,.3h-1.3c0,0-.2.1-.2.2l.2,1.3h0Z"/>
      <path class="cls-4" d="M71.3,46.4c0,.2-.2.3-.3.1l-.8-1c0,0-.2,0-.2,0l-.8,1c-.1.1-.3,0-.3-.1l.3-1.3c0-.1,0-.2-.1-.2h-1.3c-.2,0-.2-.3,0-.4l1.1-.6c0,0,.1-.2,0-.2l-.8-1c0-.1,0-.3.2-.2l1.1.6c0,0,.2,0,.2-.1l.3-1.3c0-.2.3-.2.3,0l.3,1.3c0,0,.1.1.2.1l1.2-.5c.1,0,.3.1.2.2l-.8,1c0,0,0,.2,0,.2l1.1.6c.1,0,0,.3,0,.3h-1.3c0,0-.2.1-.2.2l.2,1.3h0Z"/>
      <path class="cls-4" d="M71.3,61.3c0,.2-.2.3-.3.1l-.8-1c0,0-.2,0-.2,0l-.8,1c-.1.1-.3,0-.3-.1l.3-1.3c0-.1,0-.2-.1-.2h-1.3c-.2,0-.2-.3,0-.4l1.1-.6c0,0,.1-.2,0-.2l-.7-1c0-.1,0-.3.2-.2l1.1.6c0,0,.2,0,.2-.1l.3-1.2c0-.2.3-.2.3,0l.3,1.3c0,0,.1.2.2.1l1.2-.5c.2,0,.3.1.2.3l-.8,1c0,0,0,.2,0,.2l1.1.6c.1,0,0,.3,0,.3h-1.3c0,0-.2,0-.2.2l.2,1.3h0Z"/>
      <path class="cls-4" d="M79.9,50.6c0,.2-.2.3-.3.1l-.8-1c0,0-.2,0-.2,0l-.8,1c-.1.1-.3,0-.3-.1l.3-1.2c0-.1,0-.2-.2-.2h-1.2c-.2,0-.2-.3,0-.3l1.1-.6c0,0,.1-.2,0-.2l-.7-1c0-.1,0-.3.2-.2l1.1.5c0,0,.2,0,.2-.1l.3-1.2c0-.2.3-.2.3,0l.3,1.2c0,0,.1.1.2.1l1.1-.5c.1,0,.3.1.2.2l-.7,1c0,0,0,.2,0,.2l1.1.6c.1,0,0,.3,0,.3h-1.2c0,0-.2.1-.1.2l.2,1.2"/>
      <path class="cls-1" d="M77,52.9l.5,1.2h1.3c.1.1.1.2,0,.3l-1,.8.3,1.2c0,0,0,.2-.2.1l-1.1-.7-1.1.7c0,0-.2,0-.2-.1l.3-1.2-1-.8c0,0,0-.2,0-.2h1.3c0,0,.5-1.3.5-1.3,0,0,.2,0,.2,0Z"/>
    </g>
  </g>
</svg>