<?xml version="1.0" encoding="UTF-8"?> <svg xmlns="http://www.w3.org/2000/svg" width="262" height="47" viewBox="0 0 262 47" fill="none"><path d="M38.3744 46.4458L27.7865 31.9029V46.4458H17.8641V0.397217H27.7865V27.9567L37.709 13.5531H49.289L37.2479 29.9995L49.6217 46.4458H38.3744Z" fill="black"></path><path d="M38.4195 46.5088L27.8317 31.9659V46.5088H17.9092V0.460205H27.8317V28.0197L37.7541 13.6161H49.3342L37.293 30.0625L49.6669 46.5088H38.4195Z" fill="black"></path><path d="M121.467 26.0576V46.4464H111.545V27.5164C111.545 23.3977 108.965 21.4701 105.79 21.4701C102.148 21.4701 99.6378 23.5969 99.6378 28.3133V46.4464H89.7153V13.2384H99.6378V16.3612C101.424 13.9063 104.733 12.3069 109.099 12.3069C115.782 12.3069 121.473 17.0877 121.473 26.0517" fill="black"></path><path d="M11.5122 0H0V46.4456H11.5122V0Z" fill="black"></path><path d="M54.5191 35.0375C52.9687 35.3587 51.4985 35.9023 50.1396 36.6312C50.6029 38.1384 51.2576 39.5467 52.073 40.8501C52.5363 41.5975 53.0613 42.3078 53.6234 42.9749L53.7778 43.1541L53.8273 43.2035L53.9137 43.3023H53.9199L54.0002 43.395L54.099 43.5062L54.1485 43.5617L54.1608 43.5741C54.2535 43.6729 54.3461 43.7718 54.4449 43.8706L54.5747 44.0003L54.7847 44.2165L54.8712 44.2968L54.8959 44.3153L54.9144 44.3339H54.9206C55.0503 44.4636 55.18 44.5871 55.3097 44.6983L55.5074 44.8713C55.6495 45.001 55.7915 45.1245 55.9398 45.2357L56.0139 45.2975L56.0386 45.316L57.3173 43.8644C56.3475 42.4314 55.6 40.8377 55.1244 39.1328C54.7538 37.8171 54.55 36.4397 54.5252 35.0251" fill="#EBAB5E"></path><path d="M54.4384 43.8706V43.8768L54.4323 43.8645L54.4384 43.8706Z" fill="#EBAB5E"></path><path d="M57.8731 34.6912H57.8607C56.718 34.6912 55.6 34.8085 54.519 35.0371C54.5437 36.4578 54.7537 37.8291 55.1243 39.1448C55.6 40.8434 56.3474 42.4371 57.3172 43.8763L58.5896 42.4309V42.4186L62.0426 38.5085L62.8147 37.6314C61.8572 36.8963 61.0851 35.9266 60.5539 34.7776C60.1277 34.7468 59.7138 34.7344 59.3432 34.722C58.6946 34.7035 58.1634 34.6973 57.8854 34.6973M60.3377 36.6122L60.4242 36.7357L60.5477 36.9149L60.4242 36.7419L60.3377 36.6122Z" fill="#EDBA7C"></path><path d="M83.4027 21.0044L83.4151 21.023L83.3469 20.9238L83.4027 21.0044Z" fill="#6FCCDD"></path><path d="M75.7369 14.3393C75.8296 14.3825 75.9223 14.4257 76.0211 14.4752L76.262 14.5987L76.3423 14.6419L76.3732 14.6605C76.4905 14.7222 76.6079 14.784 76.7253 14.8458L76.7747 14.8705C76.8735 14.9199 76.9662 14.9755 77.0588 15.0311L77.2874 15.1608L77.3121 15.1793C77.4665 15.272 77.6271 15.3646 77.7754 15.4635C78.0718 15.6488 78.356 15.8403 78.634 16.0379L78.8502 16.1924C79.3134 16.5321 79.7582 16.8904 80.1906 17.2733L80.3882 17.4525L80.6168 17.6625C80.7218 17.7613 80.833 17.8663 80.938 17.9713C81.0862 18.1134 81.2221 18.2617 81.3642 18.4099L81.4321 18.484C81.5371 18.5952 81.636 18.7064 81.7348 18.8238C81.8583 18.9597 81.9757 19.1017 82.0931 19.2438C80.2462 17.0015 77.8804 15.2288 75.1563 14.0798C75.2613 14.1231 75.3663 14.1725 75.4713 14.2219C75.5578 14.2651 75.6443 14.3022 75.7308 14.3454" fill="#6FCCDD"></path><path d="M83.7118 21.511L83.7367 21.5359L83.6869 21.4612L83.7118 21.511Z" fill="#6FCCDD"></path><path d="M54.0372 18.6324L54.0557 18.6139L54.2472 18.41L54.2843 18.3668C54.4078 18.2371 54.5375 18.1012 54.6672 17.9715C54.9514 17.6873 55.2541 17.4094 55.5567 17.1437C55.6803 17.0387 55.8038 16.9337 55.9273 16.8349C56.0756 16.7114 56.2177 16.6002 56.3659 16.4828C56.5142 16.3716 56.6562 16.2604 56.8045 16.1492L56.8415 16.1245C56.9589 16.0442 57.0763 15.9578 57.1875 15.8775C57.3789 15.7477 57.5704 15.618 57.7743 15.4883C57.9287 15.3895 58.0831 15.2906 58.2437 15.198C58.9788 14.7532 59.7571 14.3579 60.5663 14.012C61.0234 13.8082 61.4866 13.6352 61.9623 13.4746C58.812 14.4938 56.0632 16.3346 53.9384 18.7498L54.0434 18.6262L54.0372 18.6324Z" fill="#6FCCDD"></path><path d="M54.8649 44.304L54.8887 44.3278L54.8649 44.304Z" fill="#6FCCDD"></path><path d="M56.0314 45.3325V45.3265L56.0076 45.3086L56.0314 45.3325Z" fill="#6FCCDD"></path><path d="M60.4123 36.7252L60.3251 36.6069L60.4123 36.7252Z" fill="#6FCCDD"></path><path d="M60.5355 36.8971V36.9032L60.4118 36.7239L60.5355 36.8971Z" fill="#6FCCDD"></path><path d="M84.2301 39.6445C84.0325 40.0213 83.8286 40.3858 83.6063 40.744C83.668 40.6452 83.7298 40.5464 83.7854 40.4475C83.841 40.3611 83.8904 40.2746 83.9398 40.1881L83.9645 40.1325H83.9707L83.9769 40.1078C84.0387 39.9966 84.0942 39.8916 84.1498 39.7866V39.7742L84.1807 39.731V39.7187L84.224 39.6507V39.6445H84.2301Z" fill="#F69C6E"></path><path d="M61.9004 23.6916L61.9384 23.6662V23.6599L61.9004 23.6916Z" fill="#6FCCDD"></path><path d="M61.9004 23.6916L61.9384 23.6662V23.6599L61.9004 23.6916Z" fill="#6FCCDD"></path><path d="M58.2377 15.203C59.714 16.9696 60.8259 19.0389 61.4559 21.3058C63.6426 19.7554 66.2184 18.7362 68.9919 18.415C69.9246 18.3038 70.8882 18.2729 71.858 18.3285C73.1922 18.4027 74.477 18.6374 75.7001 19.008C77.2381 19.4713 78.6712 20.1569 79.9745 21.0279C80.7096 20.4596 81.4941 19.9593 82.3218 19.5269L82.1797 19.3477L82.0933 19.2427C81.9759 19.1007 81.8585 18.9586 81.735 18.8227C81.6362 18.7053 81.5373 18.5941 81.4323 18.483L81.3644 18.4088C81.2285 18.2606 81.0864 18.1123 80.9382 17.9703C80.8332 17.8653 80.7281 17.7664 80.617 17.6614L80.3884 17.4514L80.1907 17.2723C79.7584 16.8893 79.3136 16.531 78.8503 16.1913L78.6341 16.0369C78.35 15.833 78.0659 15.6477 77.7755 15.4624C77.6211 15.3636 77.4667 15.2709 77.3061 15.1783L77.2814 15.1597L77.0528 15.03C76.9602 14.9744 76.8613 14.9188 76.7687 14.8694L76.7193 14.8447C76.6019 14.7829 76.4845 14.7212 76.3672 14.6594L76.3363 14.6409L76.256 14.5976L76.0151 14.4741C75.9224 14.4247 75.8298 14.3814 75.731 14.3382C75.6445 14.295 75.558 14.2517 75.4715 14.2147C75.3665 14.1652 75.2615 14.122 75.1565 14.0788L75.0144 14.017C74.8909 13.9676 74.7735 13.9182 74.65 13.8688L74.4153 13.7761L74.3597 13.7514C74.0879 13.6464 73.8161 13.5475 73.5381 13.4611L73.3961 13.4117H73.3713L73.3096 13.3869L73.2231 13.3622L73.1675 13.3437L73.081 13.319C72.9637 13.2819 72.8463 13.2511 72.7289 13.214L72.5498 13.1646C72.3707 13.1152 72.1977 13.0719 72.0186 13.0349L71.8395 12.9916L71.6603 12.9546L71.4318 12.9051L71.2032 12.8619H71.16C71.055 12.8372 70.95 12.8187 70.845 12.8001C70.7276 12.7816 70.6041 12.7631 70.4805 12.7445C70.394 12.7322 70.3076 12.7198 70.2211 12.7075C70.0975 12.6889 69.974 12.6766 69.8443 12.6642L69.6775 12.6457C69.5787 12.6334 69.486 12.6272 69.3872 12.6148H69.3748C68.8498 12.5716 68.3186 12.5469 67.7812 12.5469C67.2994 12.5469 66.8176 12.5654 66.3481 12.6025C66.0516 12.621 65.7551 12.6519 65.4586 12.6889L65.3536 12.7013C65.2115 12.7198 65.0757 12.7384 64.9336 12.7569C64.7236 12.7878 64.5135 12.8248 64.3035 12.8619C64.0997 12.899 63.8897 12.9422 63.6796 12.9854L63.5808 13.004C63.4449 13.0349 63.3029 13.0719 63.167 13.1028C62.9384 13.1584 62.7099 13.2263 62.4813 13.2943C62.296 13.3499 62.1107 13.4055 61.9316 13.4672C61.4621 13.6278 60.9927 13.807 60.5356 14.0046C59.7264 14.3567 58.9543 14.7521 58.213 15.1906" fill="#EBB28F"></path><path d="M79.9804 21.028C81.1973 21.831 82.303 22.8008 83.2666 23.888C84.4896 25.284 85.4779 26.89 86.1759 28.6319C85.9721 26.9765 85.5582 25.4013 84.9591 23.925L84.922 23.8385L84.8973 23.7829L84.8046 23.5729L84.712 23.3691L84.6008 23.1405L84.5823 23.1035C84.5143 22.9614 84.4464 22.8255 84.3784 22.6896L84.3043 22.5475L84.2487 22.4425L84.119 22.1955L84.0325 22.0349L84.014 22.0102C83.9522 21.899 83.8904 21.7878 83.8225 21.6766L83.7607 21.5716L83.7484 21.5531V21.5345L83.7175 21.5098L83.6928 21.4666C83.5939 21.3122 83.5013 21.1577 83.4025 21.0095L83.3469 20.9292C83.2666 20.8056 83.1801 20.6759 83.0936 20.5524L83.0751 20.5215L83.0195 20.435L82.9392 20.3238L82.7971 20.1323L82.7106 20.015L82.6983 19.9965L82.6736 19.9656L82.5439 19.7926L82.5006 19.737L82.3277 19.5146C81.4999 19.947 80.7155 20.4536 79.9804 21.0157" fill="#D45E2B"></path><path d="M83.6867 21.4596L83.5508 21.2372L83.4952 21.1446L83.4334 21.0519V21.0396H83.4211V21.0272L83.4087 21.0149L83.3964 20.9963C83.4952 21.1446 83.5878 21.299 83.6867 21.4534" fill="#6FCCDD"></path><path d="M83.4024 21.0041C83.5012 21.1523 83.5939 21.3067 83.6927 21.4611L83.5568 21.2388L83.5012 21.1461L83.4456 21.0535V21.0411L83.4333 21.0349V21.0226L83.4209 21.0102L83.4086 20.9917L83.4024 21.0041Z" fill="#6FCCDD"></path><path d="M52.9623 19.9235L53.0122 19.8612L53.0682 19.7927H53.062L52.9623 19.9235Z" fill="#793678"></path><path d="M53.0612 19.7865L53.0674 19.7927L53.1047 19.7429L53.1172 19.718L53.0612 19.7865Z" fill="#613D83"></path><path d="M54.5376 33.7778C54.6858 31.1711 55.4394 28.7436 56.6439 26.6187C57.5211 25.0744 58.6453 23.6846 59.9486 22.511C60.4242 22.0848 60.9308 21.6833 61.4558 21.3065C60.8196 19.0457 59.7139 16.9702 58.2376 15.2036C58.077 15.2963 57.9226 15.3951 57.7681 15.4939C57.5705 15.6175 57.3728 15.7472 57.1813 15.8831C57.064 15.9634 56.9528 16.0437 56.8354 16.1302L56.7984 16.1549C56.6501 16.2599 56.508 16.3711 56.3598 16.4884C56.2115 16.6058 56.0633 16.7232 55.9212 16.8405C55.7977 16.9455 55.6741 17.0505 55.5506 17.1555C55.2479 17.4212 54.9514 17.6991 54.6611 17.9833C54.5314 18.113 54.4017 18.2427 54.2781 18.3786L54.2411 18.4218L54.0496 18.6257L54.0311 18.6442L53.9261 18.7616L53.8334 18.8666L53.6543 19.0766L53.4751 19.2866L53.4381 19.3298L53.3084 19.4904L53.2342 19.5831L53.191 19.6325L53.1663 19.6634L53.1169 19.7313L53.0983 19.7561L53.0613 19.8055L53.0057 19.8734L52.9563 19.9352L52.9439 19.9599L52.9316 19.9784L52.808 20.1452L52.7648 20.2008C52.6907 20.3058 52.6165 20.4108 52.5362 20.5158L52.5239 20.5405L52.4745 20.6085L52.4559 20.6332L52.4003 20.7197C52.3324 20.8185 52.2583 20.9235 52.1903 21.0285L52.0606 21.2324C51.9865 21.3497 51.9124 21.4733 51.8382 21.5906L51.8012 21.6524L51.7888 21.6771C51.7394 21.7636 51.69 21.8562 51.6344 21.9427V21.9551L51.5664 22.0662L51.5232 22.1404L51.4861 22.2083L51.4306 22.3133V22.3257C51.3564 22.4492 51.2947 22.5666 51.2329 22.6963C51.1773 22.8075 51.1217 22.9187 51.0661 23.0299L51.0105 23.141L50.9364 23.2893L50.8684 23.4375L50.8499 23.4746L50.7634 23.6661L50.677 23.8576C50.6337 23.9564 50.5905 24.0552 50.5534 24.1602C49.7257 26.2666 49.2748 28.5768 49.2748 31.0167C49.2748 32.9933 49.5713 34.8835 50.1272 36.6501C51.4861 35.9151 52.9563 35.3715 54.5067 35.0503C54.4943 34.6364 54.5067 34.2102 54.5314 33.7902" fill="#135758"></path><path d="M61.4619 21.3069C60.9369 21.6775 60.4304 22.079 59.9547 22.5114C58.6452 23.6912 57.5272 25.0748 56.65 26.6191C55.4455 28.744 54.6919 31.1777 54.5437 33.7782C54.5252 34.0685 54.519 34.3589 54.519 34.6492C54.519 34.7789 54.519 34.9086 54.519 35.0383C55.6 34.8098 56.718 34.6924 57.8607 34.6924H57.8731C58.1511 34.6924 58.6823 34.6924 59.3309 34.7171C59.7015 34.7295 60.1153 34.748 60.5415 34.7727C60.0412 33.6732 59.7632 32.4069 59.7632 31.0048C59.7632 30.3994 59.8127 29.8188 59.9115 29.269C60.2142 27.6074 60.943 26.1991 61.9808 25.1243C61.9931 24.939 61.9931 24.766 61.9931 24.6116C61.9931 24.0556 61.9375 23.7097 61.9314 23.6727L61.9005 23.6974L61.9314 23.6665C61.8264 22.8635 61.6658 22.0728 61.4557 21.3069" fill="#457879"></path><path d="M81.9269 43.0499L81.902 43.0748L81.8834 43.0935L81.9518 43.0188L81.9269 43.0499Z" fill="#F16873"></path><path d="M81.8581 43.1215L81.8826 43.097L81.901 43.0725L81.8581 43.1215Z" fill="#EF4641"></path><path d="M82.5134 42.3271L82.3279 42.5622L82.2784 42.624L82.2289 42.6797L82.365 42.5251L82.5134 42.3271Z" fill="#BD6973"></path><path d="M54.1425 43.5606L54.0931 43.505L53.9941 43.3936L53.9137 43.3132L54.1425 43.5606Z" fill="#FEDE62"></path><path d="M53.9137 43.3139L53.9943 43.3945L53.9137 43.3077L53.9075 43.3015L53.9137 43.3139Z" fill="#EBAB5E"></path><path d="M53.9137 43.3139L53.9943 43.3945L53.9137 43.3077L53.9075 43.3015L53.9137 43.3139Z" fill="#F6BE25"></path><path d="M54.6611 44.1112L54.5807 44.0185L54.5684 44.0061L54.5622 43.9999L54.4385 43.8762L54.6611 44.1112Z" fill="#FEDE62"></path><path d="M54.1421 43.5608L54.166 43.5847C54.166 43.5847 54.16 43.5787 54.154 43.5727L54.1421 43.5608Z" fill="#FEDE62"></path><path d="M54.1543 43.575L54.3028 43.7296L54.4326 43.8656C54.3399 43.7729 54.2409 43.6739 54.1481 43.575" fill="#EBAB5E"></path><path d="M54.1546 43.575C54.2474 43.6739 54.3401 43.7729 54.4391 43.8718L54.3092 43.7296L54.1608 43.575H54.1546Z" fill="#F6BE25"></path><path d="M54.563 44.0023L54.4385 43.8778V43.8716L54.563 44.0023Z" fill="#EBAB5E"></path><path d="M54.563 44.0023L54.4385 43.8778V43.8716L54.563 44.0023Z" fill="#F6BE25"></path><path d="M54.6613 44.1118L54.7788 44.217L54.5809 44.019L54.6613 44.1118Z" fill="#FAAD47"></path><path d="M54.5623 44.0064L54.7788 44.2167L54.5685 44.0064L54.5623 44.0002V44.0064Z" fill="#EBAB5E"></path><path d="M54.5623 44.0064L54.7788 44.2167L54.5685 44.0064L54.5623 44.0002V44.0064Z" fill="#F5A12E"></path><path d="M54.8649 44.304L54.8887 44.3219L54.8649 44.304Z" fill="#EBAB5E"></path><path d="M54.8887 44.3278V44.3219L54.8649 44.304L54.8887 44.3278Z" fill="#6FCCDD"></path><path d="M54.8887 44.3278V44.3219L54.8649 44.304L54.8887 44.3278Z" fill="#A8D165"></path><path d="M60.5355 36.8964V36.9026L60.4118 36.7356L60.5355 36.8964Z" fill="#FAC732"></path><path d="M60.4118 36.7362L60.5355 36.8971L60.4118 36.7239V36.7362Z" fill="#6FCCDD"></path><path d="M60.4118 36.7362L60.5355 36.8971L60.4118 36.7239V36.7362Z" fill="#A8D165"></path><path d="M60.4123 36.7377V36.7252L60.3251 36.6069L60.4123 36.7377Z" fill="#6FCCDD"></path><path d="M60.4123 36.7377V36.7252L60.3251 36.6069L60.4123 36.7377Z" fill="#D1AD47"></path><path d="M80.1966 36.6248L80.1657 36.6063L80.0731 36.5631C79.8939 36.4704 79.7148 36.3777 79.5295 36.2913C78.5906 35.8465 77.6023 35.4883 76.5707 35.2226H76.5522C76.4039 35.1794 76.2557 35.1423 76.1013 35.1115V35.0929C75.7553 35.0003 75.3909 34.9138 75.0141 34.8335C74.4644 36.0133 73.649 36.9954 72.6483 37.7243L73.4019 38.6262L74.5755 40.0222L74.7176 40.1889L79.233 45.5815L79.3071 45.5259C79.4121 45.4456 79.5171 45.3591 79.616 45.2788L79.7518 45.1676L79.8445 45.0873C79.9557 44.9946 80.0669 44.902 80.1781 44.8032L80.2522 44.7352L80.4684 44.5375L80.6413 44.3769C80.7402 44.2843 80.8328 44.1978 80.9255 44.099L81.117 43.9075L81.3023 43.716L81.4629 43.5492C81.5555 43.4504 81.6482 43.3454 81.7408 43.2404L81.7656 43.2095L81.852 43.1107L81.8891 43.0674L81.9138 43.0365L81.9385 43.0057V42.9933L82.0003 42.9315L82.0188 42.9006L82.1547 42.74L82.2041 42.6783L82.2535 42.6165L82.3029 42.5547L82.4883 42.32H82.4944L82.5438 42.2582L82.5994 42.1841V42.1779L82.6118 42.1594L82.6489 42.11L82.6736 42.0791L82.6983 42.0482H82.7045L82.7724 41.9432C82.8342 41.8567 82.8959 41.7764 82.9577 41.6961L83.0812 41.517L83.1677 41.3873L83.2171 41.3132C83.3036 41.1834 83.3901 41.0475 83.4766 40.9117L83.5816 40.7449C83.804 40.3866 84.014 40.016 84.2055 39.6392C83.0318 38.4409 81.6791 37.4217 80.1842 36.6248H80.1719H80.1966Z" fill="#2E384A"></path><path d="M70.9188 18.3044H70.8879C70.4184 18.3044 69.9552 18.3292 69.4981 18.3662C69.3313 18.3786 69.1645 18.3971 68.9977 18.4156C66.2242 18.7368 63.6484 19.7622 61.4618 21.3065C61.678 22.0724 61.8386 22.8569 61.9374 23.6661C61.9436 23.7031 61.9992 24.049 61.9992 24.605C61.9992 24.7594 61.9992 24.9324 61.9868 25.1177C63.4323 23.6167 65.483 22.7581 67.8056 22.7581C71.0485 22.7581 73.7478 24.4258 75.0326 27.1746C75.1624 26.8287 75.3785 26.421 75.6256 26.0195L75.7183 25.8589C75.848 25.6489 75.9839 25.4389 76.1136 25.2412L76.1754 25.1485L76.3051 24.9447C76.4348 24.7532 76.5645 24.5617 76.7066 24.3826C76.8425 24.1973 76.929 24.0799 76.929 24.0799V24.0676C77.0463 23.9317 77.1575 23.7896 77.2625 23.6599C77.3614 23.5425 77.454 23.4252 77.559 23.314L77.6887 23.1657C77.7752 23.0607 77.8679 22.9619 77.9667 22.8569L77.9976 22.826C78.1211 22.6963 78.2385 22.5727 78.362 22.4492C78.4794 22.3257 78.6029 22.2083 78.7265 22.0909L78.7821 22.0415C79.0353 21.8068 79.2948 21.5782 79.5665 21.3621C79.7024 21.2447 79.8507 21.1335 79.9928 21.0285C78.6894 20.1575 77.2563 19.4781 75.7183 19.0086C74.4952 18.638 73.2042 18.4033 71.8762 18.3292C71.8577 18.3292 71.833 18.3292 71.8144 18.3292C71.5241 18.3106 71.2338 18.3044 70.9435 18.3044H70.9311" fill="#ECC2A6"></path><path d="M71.8021 18.3292C71.8021 18.3292 71.8453 18.3292 71.8638 18.3292C73.1981 18.4095 74.4829 18.638 75.7059 19.0086C77.244 19.4719 78.6771 20.1575 79.9804 21.0285C78.6771 20.1575 77.244 19.4781 75.7059 19.0086C74.4829 18.638 73.1919 18.4033 71.8638 18.3292C71.8453 18.3292 71.8206 18.3292 71.8021 18.3292Z" fill="#EBB28F"></path><path d="M79.9806 21.0291C79.8386 21.1402 79.6965 21.2514 79.5544 21.3626C79.2826 21.5788 79.0232 21.8074 78.7699 22.0421L78.7144 22.0915C78.5908 22.2089 78.4673 22.3262 78.3499 22.4498C78.2264 22.5733 78.1028 22.6968 77.9855 22.8266L77.9546 22.8574C77.8619 22.9563 77.7693 23.0613 77.6766 23.1663L77.5469 23.3145C77.4419 23.4257 77.3492 23.5431 77.2504 23.6605C77.1392 23.7963 77.0342 23.9322 76.923 24.0681V24.0805C76.923 24.0805 76.8304 24.1978 76.6945 24.3832C76.5709 24.5499 76.4536 24.7167 76.3362 24.8897L76.293 24.9514L76.1633 25.1553L76.1015 25.2479C75.9718 25.4456 75.8359 25.6556 75.7062 25.8656L75.6135 26.0262C75.3726 26.4339 75.1502 26.8354 75.0205 27.1813C75.0885 27.311 75.1441 27.4469 75.1997 27.589C75.5517 28.4723 75.7679 29.4545 75.8173 30.5169V30.7269C75.8297 30.8196 75.8297 30.9122 75.8297 31.0049C75.8297 32.438 75.5394 33.7289 75.0143 34.8408C75.385 34.9149 75.7556 35.0014 76.1077 35.1002V35.1188C76.2497 35.1497 76.398 35.1867 76.5462 35.2238H76.5648C77.5963 35.4894 78.5846 35.8538 79.5235 36.2986C79.7089 36.385 79.888 36.4777 80.0671 36.5704L80.1598 36.6136L80.1907 36.6321H80.203C81.6978 37.4351 83.0568 38.4543 84.2242 39.6527C85.0334 38.1023 85.6264 36.4098 85.9723 34.6246C86.0712 34.1119 86.1515 33.593 86.207 33.0618C86.2812 32.3885 86.3182 31.7029 86.3182 31.0049C86.3182 30.2019 86.2688 29.4112 86.17 28.6391C85.4782 26.891 84.4837 25.2912 83.2606 23.8952C82.3032 22.8018 81.1975 21.8382 79.9745 21.0352M76.7377 28.8677V28.8862L76.7501 28.9232L76.7377 28.8738V28.8677ZM76.8613 29.5471L76.8736 29.6151V29.6398L76.8983 29.8189L76.886 29.7201L76.8613 29.5409V29.5471ZM76.9107 29.8992V29.9177V29.9486V29.9363V29.8992Z" fill="#DB8056"></path><path d="M76.7438 28.8611L76.756 28.9162L76.7438 28.8611Z" fill="#6FCCDD"></path><path d="M76.7438 28.8674L76.75 28.8799L76.7438 28.8611V28.8674Z" fill="#BA8057"></path><path d="M76.756 28.9162L76.7499 28.8795L76.7438 28.8611L76.756 28.9162Z" fill="#6FCCDD"></path><path d="M76.756 28.9162L76.7499 28.8795L76.7438 28.8611L76.756 28.9162Z" fill="#A88057"></path><path d="M76.8922 29.7191L76.886 29.6387L76.8798 29.6139L76.8674 29.5459L76.8922 29.7191Z" fill="#6FCCDD"></path><path d="M76.8922 29.7191L76.886 29.6387L76.8798 29.6139L76.8674 29.5459L76.8922 29.7191Z" fill="#A88057"></path><path d="M76.8858 29.6394L76.9044 29.8188L76.8858 29.6394Z" fill="#B08057"></path><path d="M76.892 29.7198V29.726L76.9044 29.8188L76.8858 29.6394L76.892 29.7198Z" fill="#6FCCDD"></path><path d="M76.892 29.7198V29.726L76.9044 29.8188L76.8858 29.6394L76.892 29.7198Z" fill="#A88057"></path><path d="M76.9169 29.8916V29.9227V29.929V29.9414V29.9103V29.8916L76.9044 29.8169L76.9169 29.8916Z" fill="#A88057"></path><path d="M134.696 15.7944H137.461V27.8924H134.696V15.7944Z" fill="black"></path><path d="M147.67 15.7944H150.435V27.8924H148.361L143.694 21.3249V27.8924H140.929V15.7944H143.003L147.67 22.3619V15.7944Z" fill="black"></path><path d="M157.962 28.1343C155.422 28.1343 153.797 26.9245 153.123 25.1444L155.508 23.7618C155.94 24.7642 156.683 25.4382 158.049 25.4382C159.362 25.4382 159.69 24.9197 159.69 24.4531C159.69 23.71 158.999 23.4161 157.184 22.9149C155.387 22.4137 153.624 21.5496 153.624 19.2337C153.624 16.9005 155.594 15.5525 157.686 15.5525C159.673 15.5525 161.229 16.503 162.11 18.2832L159.777 19.6485C159.362 18.7844 158.792 18.2486 157.686 18.2486C156.821 18.2486 156.389 18.6807 156.389 19.1646C156.389 19.7176 156.683 20.0979 158.567 20.6682C160.399 21.2212 162.456 21.8607 162.456 24.4185C162.456 26.7517 160.589 28.1343 157.962 28.1343Z" fill="black"></path><path d="M172.911 15.7944V18.456H169.8V27.8924H167.035V18.456H163.924V15.7944H172.911Z" fill="black"></path><path d="M175.511 15.7944H178.276V27.8924H175.511V15.7944Z" fill="black"></path><path d="M189.867 15.7944V18.456H186.756V27.8924H183.99V18.456H180.88V15.7944H189.867Z" fill="black"></path><path d="M197.046 28.1343C194.385 28.1343 192.38 26.5789 192.38 23.9865V15.7944H195.145V23.7445C195.145 24.6605 195.577 25.4382 197.046 25.4382C198.515 25.4382 198.947 24.6605 198.947 23.7445V15.7944H201.713V23.9865C201.713 26.5789 199.708 28.1343 197.046 28.1343Z" fill="black"></path><path d="M213.219 15.7944V18.456H210.108V27.8924H207.343V18.456H204.232V15.7944H213.219Z" fill="black"></path><path d="M218.584 25.2308H223.423V27.8924H215.819V15.7944H223.337V18.456H218.584V20.4608H222.905V23.0878H218.584V25.2308Z" fill="black"></path><path d="M145.135 43.9157C143.925 45.1255 142.45 45.7304 140.711 45.7304C138.971 45.7304 137.496 45.1255 136.286 43.9157C135.076 42.6944 134.471 41.2196 134.471 39.4914C134.471 37.7631 135.076 36.294 136.286 35.0843C137.496 33.8629 138.971 33.2523 140.711 33.2523C142.45 33.2523 143.925 33.8629 145.135 35.0843C146.345 36.294 146.95 37.7631 146.95 39.4914C146.95 41.2196 146.345 42.6944 145.135 43.9157ZM136.926 43.2936C137.963 44.3305 139.224 44.849 140.711 44.849C142.197 44.849 143.453 44.3305 144.478 43.2936C145.515 42.2451 146.034 40.9777 146.034 39.4914C146.034 38.005 145.515 36.7434 144.478 35.7064C143.453 34.6579 142.197 34.1337 140.711 34.1337C139.224 34.1337 137.963 34.6579 136.926 35.7064C135.9 36.7434 135.387 38.005 135.387 39.4914C135.387 40.9777 135.9 42.2451 136.926 43.2936Z" fill="black"></path><path d="M157.367 34.3065H151.578V39.1457H157.16V40.0098H151.578V45.5403H150.662V33.4424H157.367V34.3065Z" fill="black"></path><path d="M175.133 45.5403L173.958 42.464H167.892L166.716 45.5403H165.749L170.45 33.4424H171.417L176.101 45.5403H175.133ZM168.237 41.5999H173.63L170.933 34.5658L168.237 41.5999Z" fill="black"></path><path d="M186.38 44.5725C185.574 45.3444 184.502 45.7304 183.165 45.7304C181.829 45.7304 180.757 45.3444 179.951 44.5725C179.144 43.8005 178.741 42.7751 178.741 41.4962V33.4424H179.657V41.4962C179.657 42.5101 179.962 43.3224 180.573 43.933C181.184 44.5437 182.048 44.849 183.165 44.849C184.283 44.849 185.147 44.5437 185.758 43.933C186.38 43.3224 186.691 42.5101 186.691 41.4962V33.4424H187.607V41.4962C187.607 42.7751 187.198 43.8005 186.38 44.5725Z" fill="black"></path><path d="M195.529 45.7304C194.412 45.7304 193.461 45.477 192.678 44.97C191.906 44.4515 191.381 43.7544 191.105 42.8788L191.9 42.4121C192.119 43.1611 192.533 43.7544 193.144 44.1923C193.766 44.6301 194.561 44.849 195.529 44.849C196.509 44.849 197.257 44.6243 197.776 44.175C198.306 43.7256 198.571 43.1438 198.571 42.4294C198.571 41.7612 198.317 41.2484 197.81 40.8913C197.304 40.5341 196.514 40.1827 195.443 39.837C195.051 39.7103 194.763 39.6181 194.579 39.5605C194.406 39.4914 194.152 39.3934 193.818 39.2667C193.484 39.1284 193.236 39.0074 193.075 38.9037C192.914 38.8 192.718 38.6618 192.487 38.489C192.268 38.3161 192.107 38.1433 192.003 37.9705C191.9 37.7861 191.808 37.573 191.727 37.331C191.646 37.0775 191.606 36.801 191.606 36.5014C191.606 35.5221 191.952 34.7386 192.643 34.151C193.346 33.5518 194.221 33.2523 195.27 33.2523C196.215 33.2523 197.021 33.4885 197.689 33.9609C198.358 34.4333 198.847 35.0439 199.159 35.7928L198.381 36.2249C197.805 34.8308 196.768 34.1337 195.27 34.1337C194.44 34.1337 193.778 34.3526 193.282 34.7904C192.787 35.2283 192.539 35.7871 192.539 36.4669C192.539 37.1236 192.77 37.6133 193.231 37.9359C193.691 38.2585 194.446 38.5927 195.495 38.9383C196.163 39.1572 196.681 39.3473 197.05 39.5086C197.43 39.6584 197.834 39.8716 198.26 40.1481C198.698 40.4131 199.015 40.7357 199.21 41.1159C199.406 41.4846 199.504 41.9167 199.504 42.4121C199.504 43.4145 199.141 44.2211 198.415 44.8317C197.689 45.4309 196.727 45.7304 195.529 45.7304Z" fill="black"></path><path d="M210.137 33.4424V34.3065H206.335V45.5403H205.401V34.3065H201.599V33.4424H210.137Z" fill="black"></path><path d="M221.067 45.5403L218.163 40.5802H214.344V45.5403H213.428V33.4424H218.198C219.177 33.4424 220.018 33.7938 220.721 34.4966C221.424 35.1995 221.775 36.0406 221.775 37.0199C221.775 37.838 221.522 38.5638 221.015 39.1975C220.519 39.8313 219.886 40.2518 219.114 40.4592L222.121 45.5403H221.067ZM214.344 34.3065V39.716H218.198C218.935 39.716 219.563 39.4568 220.082 38.9383C220.6 38.4083 220.859 37.7688 220.859 37.0199C220.859 36.271 220.6 35.6315 220.082 35.1015C219.563 34.5715 218.935 34.3065 218.198 34.3065H214.344Z" fill="black"></path><path d="M233.556 45.5403L232.381 42.464H226.315L225.14 45.5403H224.172L228.873 33.4424H229.841L234.524 45.5403H233.556ZM226.661 41.5999H232.053L229.357 34.5658L226.661 41.5999Z" fill="black"></path><path d="M238.591 44.6762H244.294V45.5403H237.675V33.4424H238.591V44.6762Z" fill="black"></path><path d="M247.587 33.4424H248.503V45.5403H247.587V33.4424Z" fill="black"></path><path d="M261.032 45.5403L259.857 42.464H253.791L252.615 45.5403H251.648L256.349 33.4424H257.316L262 45.5403H261.032ZM254.136 41.5999H259.529L256.832 34.5658L254.136 41.5999Z" fill="black"></path></svg> 