<svg id="Layer_1" data-name="Layer 1" xmlns="http://www.w3.org/2000/svg" viewBox="0 0 445.83 76.8"><defs><style>.cls-1{fill:#232f84;}</style></defs><title>KBS_Logo-Standard_RGB_2019</title><polygon class="cls-1" points="0 15.07 8 15.07 8 44.61 0 44.61 0 15.07 0 15.07"/><polygon class="cls-1" points="20.16 15.07 11.53 30.22 20.88 44.61 29.67 44.61 20.07 30.13 17.76 30.13 26.18 15.07 20.16 15.07 20.16 15.07"/><path class="cls-1" d="M65.4,45.19,52.48,15.64H48.1l-13,29.55h5.72l3.12-7.37H54.21l2.94,7.37ZM52.27,33.46l-6.5-.06L49,25.66l3.28,7.8Z" transform="translate(0 -0.58)"/><path class="cls-1" d="M96.92,26.63C97.22,20.11,94.1,18,94.1,18c-3-3-12.58-2.4-12.58-2.4H75.25V45.19h7.49V34.8a41.46,41.46,0,0,0,5.89-.13c4-.13,8.13-4.38,8.29-8Zm-7.11-.84C89.56,30.16,86.26,30,86.26,30l-3.52,0V20.65c.51,0,2.39,0,3.26,0,1.18,0,4.06.8,3.81,5.18Z" transform="translate(0 -0.58)"/><polygon class="cls-1" points="124.28 39.52 114.31 39.52 114.31 15.07 106.82 15.07 106.82 44.61 112.37 44.61 114.31 44.61 124.28 44.61 124.28 39.52 124.28 39.52"/><path class="cls-1" d="M161,45.19,148.08,15.64h-4.37l-13,29.55h5.73l3.11-7.37h10.27l2.95,7.37ZM147.88,33.46l-6.51-.06,3.22-7.74,3.29,7.8Z" transform="translate(0 -0.58)"/><polygon class="cls-1" points="177.06 44.61 169.55 44.61 169.55 15.07 176.26 15.07 188.72 34.09 188.72 15.07 196.06 15.07 196.06 44.61 189.56 44.61 176.85 25.34 177.06 44.61 177.06 44.61"/><path class="cls-1" d="M0,53.77v6.07s37.2,18.4,99.32,17.5c58.59-.84,84-12,96.8-17.67s30.3-17.34,29.13-35c0,0-.34-13.47-17.51-24.07H202S223.9,12.7,221,28.35c-2.72,14.87-19.36,24.25-41.08,32,0,0-33.16,13.3-101.85,10.61,0,0-36.7.17-75.58-16.16L0,53.77Z" transform="translate(0 -0.58)"/><path class="cls-1" d="M241.76,53.57c.58-1.22,1.2-2.69,1.78-4.18h6.26c.52,1.43,1.09,2.87,1.59,4.18h3c-2.05-4.63-4.49-10.69-6-14.92h-2.52C244,43.13,241,49.93,239.22,53.57Zm5.08-12.42c.67,1.86,1.49,4.15,2.34,6.38h-4.92c.93-2.25,1.92-4.58,2.58-6.38Z" transform="translate(0 -0.58)"/><path class="cls-1" d="M256.26,38.75c.08,2.42.12,4.32.12,6.12,0,1.22,0,2.29,0,3.47,0,3.68,2.65,5.45,6.2,5.45s6.18-1.9,6.18-5.47c0-1.08-.06-2.3-.06-3.45,0-1.88,0-3.95.14-6.12h-2.44c.08,3,.08,5.79.08,8.82,0,3.27-1.59,4.26-3.69,4.26s-3.85-1.12-3.85-4.26,0-5.86.13-8.82Z" transform="translate(0 -0.58)"/><path class="cls-1" d="M282.24,39.27a9.1,9.1,0,0,0-4.13-.77c-3.16,0-5.31,1.86-5.31,4,0,1.86,1,3.18,3,4.07l1.75.75c1.82.8,2.34,1.44,2.34,2.6s-1,2-2.85,2a8.77,8.77,0,0,1-4-1l-.74,1.84a11.31,11.31,0,0,0,4.83,1c3,0,5.44-1.73,5.44-4.27,0-2-1-3.25-3.25-4.26l-1.49-.66c-1.94-.85-2.39-1.47-2.39-2.42s.93-1.82,2.79-1.82a7.44,7.44,0,0,1,3.26.73l.72-1.82Z" transform="translate(0 -0.58)"/><path class="cls-1" d="M292.73,45.9c0-2,0-3.41.09-5.27,1.83,0,3.76,0,5,.06V38.75H285.67l-.77,2c1.55-.13,3.1-.15,5.23-.15.06,1.84.08,3.29.08,5.27,0,3,0,4.71-.16,7.67h2.83c-.13-3-.15-4.65-.15-7.67Z" transform="translate(0 -0.58)"/><path class="cls-1" d="M303.41,47.51c.76,0,1.55,0,2.29,0,1,2,2.33,4.63,3.45,6.55l2.79-1c-1.09-1.63-2.89-4.61-3.84-6.32A4.08,4.08,0,0,0,311,42.86c0-2.74-2.32-4.11-6-4.11h-4.22c.11,2.93.13,4.65.13,7.67,0,2.79,0,4.4-.13,7.15h2.77c-.08-1.78-.1-3.89-.12-6.06Zm1.28-6.9c2.33,0,3.63.87,3.63,2.46s-1.26,2.6-3.63,2.6c-.54,0-1,0-1.28,0,0-1.34,0-3.74.06-5,.27,0,.74,0,1.22,0Z" transform="translate(0 -0.58)"/><path class="cls-1" d="M316.4,53.57c.57-1.22,1.19-2.69,1.77-4.18h6.26c.52,1.43,1.1,2.87,1.59,4.18h3c-2-4.63-4.48-10.69-6-14.92h-2.52c-1.86,4.48-4.86,11.28-6.66,14.92Zm5.08-12.42c.66,1.86,1.49,4.15,2.33,6.38h-4.92c.94-2.25,1.93-4.58,2.59-6.38Z" transform="translate(0 -0.58)"/><path class="cls-1" d="M334.55,46.42c0-3,0-4.71.12-7.67h-2.76c.1,3,.12,4.65.12,7.67,0,2.79,0,4.4-.12,7.15h8.59l.77-2c-1.58.08-4.45.12-6.66.12,0-1.81-.06-3.28-.06-5.26Z" transform="translate(0 -0.58)"/><path class="cls-1" d="M346.88,46.42c0-3,0-4.71.12-7.67h-2.77c.11,3,.12,4.65.12,7.67,0,2.79,0,4.4-.12,7.15H347c-.1-2.75-.12-4.36-.12-7.15Z" transform="translate(0 -0.58)"/><path class="cls-1" d="M352.28,53.57c.58-1.22,1.2-2.69,1.78-4.18h6.26c.52,1.43,1.09,2.87,1.59,4.18h3c-2.05-4.63-4.49-10.69-6-14.92h-2.52c-1.86,4.48-4.85,11.28-6.65,14.92Zm5.08-12.42c.66,1.86,1.49,4.15,2.34,6.38h-4.92c.93-2.25,1.92-4.58,2.58-6.38Z" transform="translate(0 -0.58)"/><path class="cls-1" d="M240.63,30.75h4.54c4.22,0,6.36-1.51,6.36-4.38,0-1.8-1.52-3.2-3.65-3.59a3.45,3.45,0,0,0,3-3.21c0-2.31-2.12-3.63-5.74-3.63h-4.5c.1,3,.12,4.65.12,7.66,0,2.79,0,4.4-.12,7.15Zm8.26-4.32c0,1.57-1,2.5-4,2.5-.6,0-1.16,0-1.53,0,0-1.63,0-3.22,0-4.85.41,0,1,0,1.51,0,2.79,0,4.11.82,4.11,2.39Zm-4.13-8.67c2.52,0,3.53.76,3.53,2.17s-1.14,2.25-3.57,2.25c-.54,0-1.1,0-1.45,0,0-1.53,0-3,0-4.38.37,0,1,0,1.45,0Z" transform="translate(0 -0.58)"/><path class="cls-1" d="M255.23,15.94c.08,2.41.12,4.32.12,6.11,0,1.22,0,2.3,0,3.47,0,3.68,2.64,5.46,6.2,5.46s6.18-1.9,6.18-5.48c0-1.07-.07-2.29-.07-3.45,0-1.88,0-3.94.15-6.11h-2.44c.08,3,.08,5.78.08,8.82,0,3.26-1.59,4.26-3.7,4.26s-3.84-1.12-3.84-4.26,0-5.87.13-8.82Z" transform="translate(0 -0.58)"/><path class="cls-1" d="M281.21,16.46a9.16,9.16,0,0,0-4.13-.77c-3.16,0-5.31,1.86-5.31,4,0,1.86,1,3.18,3,4.07l1.75.74c1.82.81,2.33,1.45,2.33,2.61s-1,2-2.85,2a8.73,8.73,0,0,1-4-.95L271.29,30a11.39,11.39,0,0,0,4.84,1c3,0,5.43-1.74,5.43-4.28,0-2-1-3.24-3.24-4.25l-1.49-.67c-1.94-.84-2.4-1.46-2.4-2.41s.93-1.82,2.79-1.82a7.6,7.6,0,0,1,3.27.72l.72-1.81Z" transform="translate(0 -0.58)"/><path class="cls-1" d="M287.86,23.6c0-3,0-4.71.12-7.66h-2.77c.11,3,.13,4.65.13,7.66,0,2.79,0,4.4-.13,7.15H288c-.1-2.75-.12-4.36-.12-7.15Z" transform="translate(0 -0.58)"/><path class="cls-1" d="M302.54,26.83c-1.76-2.71-4.63-7-7.52-10.89h-2.9c.11,3,.13,4.65.13,7.66,0,2.79,0,4.4-.13,7.15h2.44c-.14-3.9-.14-6.65-.14-11.71,2.13,2.95,5.22,7.56,7.95,11.71h2.48c-.1-2.75-.12-4.36-.12-7.15,0-3,0-4.69.12-7.66h-2.44c.13,3.61.13,6.36.13,10.89Z" transform="translate(0 -0.58)"/><path class="cls-1" d="M317.61,17.88V15.94H309c.1,3,.12,4.65.12,7.66,0,2.79,0,4.4-.12,7.15h8.51l.78-2c-1.59.08-4.4.1-6.59.1,0-1.59-.06-3.06-.06-4.81,2,0,4.3,0,5.77.1v-2c-1.43.08-3.7.1-5.77.1,0-1.57,0-2.91.06-4.44,2.17,0,4.63,0,5.91.08Z" transform="translate(0 -0.58)"/><path class="cls-1" d="M330.87,16.46a9.17,9.17,0,0,0-4.14-.77c-3.16,0-5.3,1.86-5.3,4,0,1.86,1,3.18,3,4.07l1.76.74c1.82.81,2.33,1.45,2.33,2.61s-1,2-2.85,2a8.77,8.77,0,0,1-4-.95L321,30a11.34,11.34,0,0,0,4.83,1c3,0,5.44-1.74,5.44-4.28,0-2-1-3.24-3.25-4.25l-1.48-.67c-1.95-.84-2.4-1.46-2.4-2.41s.93-1.82,2.79-1.82a7.55,7.55,0,0,1,3.26.72l.73-1.81Z" transform="translate(0 -0.58)"/><path class="cls-1" d="M344.19,16.46a9.17,9.17,0,0,0-4.14-.77c-3.16,0-5.3,1.86-5.3,4,0,1.86,1,3.18,3,4.07l1.76.74c1.81.81,2.33,1.45,2.33,2.61s-1,2-2.85,2a8.77,8.77,0,0,1-4-.95L334.27,30a11.34,11.34,0,0,0,4.83,1c3,0,5.44-1.74,5.44-4.28,0-2-1-3.24-3.25-4.25l-1.48-.67c-1.95-.84-2.4-1.46-2.4-2.41s.93-1.82,2.79-1.82a7.55,7.55,0,0,1,3.26.72l.73-1.81Z" transform="translate(0 -0.58)"/><path class="cls-1" d="M363,16.46a9.13,9.13,0,0,0-4.13-.77c-3.16,0-5.31,1.86-5.31,4,0,1.86,1,3.18,3,4.07l1.76.74c1.82.81,2.34,1.45,2.34,2.61s-1,2-2.85,2a8.77,8.77,0,0,1-4-.95L353.06,30a11.31,11.31,0,0,0,4.83,1c3,0,5.43-1.74,5.43-4.28,0-2-1-3.24-3.24-4.25l-1.49-.67c-1.94-.84-2.39-1.46-2.39-2.41s.92-1.82,2.78-1.82a7.6,7.6,0,0,1,3.27.72l.72-1.81Z" transform="translate(0 -0.58)"/><path class="cls-1" d="M374.23,31a9.82,9.82,0,0,0,4.83-1.08l-.74-1.77a6.7,6.7,0,0,1-3.66,1c-3.06,0-5.43-2.27-5.43-5.77,0-3.67,2.25-5.76,5.6-5.76a8.82,8.82,0,0,1,3.49.74l.68-1.85a10.58,10.58,0,0,0-4.36-.77c-4.55,0-8.2,3-8.2,8.08,0,4.3,3.34,7.21,7.79,7.21Z" transform="translate(0 -0.58)"/><path class="cls-1" d="M384.94,15.94h-2.77c.1,3,.12,4.65.12,7.66,0,2.79,0,4.4-.12,7.15h2.77c-.08-2.56-.1-4.13-.13-6.65h7.38c0,2.52,0,4.09-.14,6.65h2.79c-.11-2.75-.13-4.36-.13-7.15,0-3,0-4.71.13-7.66h-2.79c.1,2.41.12,4,.14,6.26h-7.38c0-2.25.05-3.85.13-6.26Z" transform="translate(0 -0.58)"/><path class="cls-1" d="M398.42,23.56c0,4.46,3.14,7.42,7.83,7.42a7.52,7.52,0,0,0,7.85-7.83c0-4.46-3.16-7.46-7.85-7.46a7.55,7.55,0,0,0-7.83,7.87Zm12.81-.23c0,3.48-1.94,5.79-5,5.79s-4.93-2.29-4.93-5.79,1.9-5.78,4.93-5.78,5,2.29,5,5.78Z" transform="translate(0 -0.58)"/><path class="cls-1" d="M417.18,23.56C417.18,28,420.32,31,425,31a7.52,7.52,0,0,0,7.85-7.83c0-4.46-3.16-7.46-7.85-7.46a7.55,7.55,0,0,0-7.83,7.87ZM430,23.33c0,3.48-1.94,5.79-5,5.79s-4.94-2.29-4.94-5.79,1.9-5.78,4.94-5.78,5,2.29,5,5.78Z" transform="translate(0 -0.58)"/><path class="cls-1" d="M439.11,23.6c0-3,0-4.71.13-7.66h-2.77c.1,3,.12,4.65.12,7.66,0,2.79,0,4.4-.12,7.15h8.59l.77-2c-1.57.08-4.44.12-6.65.12-.05-1.82-.07-3.28-.07-5.27Z" transform="translate(0 -0.58)"/></svg>