<?xml version="1.0" encoding="UTF-8"?><svg id="a" xmlns="http://www.w3.org/2000/svg" width="263.21" height="80" xmlns:xlink="http://www.w3.org/1999/xlink" viewBox="0 0 263.21 80"><defs><style>.h{fill:#5f6062;}.h,.i,.j,.k,.l,.m,.n{stroke-width:0px;}.i{fill:url(#b);}.j{fill:url(#c);}.k{fill:url(#e);}.l{fill:url(#f);}.m{fill:url(#d);}.n{fill:url(#g);}</style><linearGradient id="b" x1="104.18" y1="37.02" x2="188.95" y2="37.02" gradientUnits="userSpaceOnUse"><stop offset="0" stop-color="#e4f0d5"/><stop offset=".09" stop-color="#deedcd"/><stop offset=".24" stop-color="#cde6b8"/><stop offset=".41" stop-color="#b2da95"/><stop offset=".6" stop-color="#8dca66"/><stop offset=".73" stop-color="#73bf44"/><stop offset=".76" stop-color="#6bbd44"/><stop offset=".81" stop-color="#56b846"/><stop offset=".87" stop-color="#33b14a"/><stop offset=".94" stop-color="#04a64e"/><stop offset=".95" stop-color="#00a64f"/></linearGradient><linearGradient id="c" x1="103.32" y1="18.75" x2="199.32" y2="18.75" xlink:href="#b"/><linearGradient id="d" x1="103.7" y1="27.82" x2="191.42" y2="27.82" xlink:href="#b"/><linearGradient id="e" x1="-77.62" y1="-117.73" x2="-33.36" y2="-86.74" gradientTransform="translate(265.61 142.97) rotate(-7.42) scale(1.13 .88) skewX(-11.58)" gradientUnits="userSpaceOnUse"><stop offset=".1" stop-color="#73bf44"/><stop offset=".16" stop-color="#6bba47"/><stop offset=".24" stop-color="#56af51"/><stop offset=".34" stop-color="#339c62"/><stop offset=".46" stop-color="#048279"/><stop offset=".47" stop-color="#00807c"/><stop offset=".63" stop-color="#007874"/><stop offset=".86" stop-color="#036360"/><stop offset=".95" stop-color="#045a57"/></linearGradient><linearGradient id="f" x1="-95.91" y1="-143.48" x2="-49.99" y2="-143.48" gradientTransform="translate(269.3 145.12) rotate(-3.09) scale(1.11 .9) skewX(-13.69)" gradientUnits="userSpaceOnUse"><stop offset="0" stop-color="#73bf44"/><stop offset=".07" stop-color="#6bba47"/><stop offset=".18" stop-color="#56af51"/><stop offset=".32" stop-color="#339c62"/><stop offset=".47" stop-color="#048279"/><stop offset=".48" stop-color="#00807c"/><stop offset=".63" stop-color="#007874"/><stop offset=".86" stop-color="#036360"/><stop offset=".95" stop-color="#045a57"/></linearGradient><linearGradient id="g" x1="198.13" y1="17.65" x2="250.6" y2="47.94" gradientUnits="userSpaceOnUse"><stop offset="0" stop-color="#73bf44"/><stop offset=".12" stop-color="#60b54c"/><stop offset=".36" stop-color="#319b63"/><stop offset=".59" stop-color="#00807c"/><stop offset=".7" stop-color="#007874"/><stop offset=".88" stop-color="#036360"/><stop offset=".94" stop-color="#045a57"/></linearGradient></defs><path class="h" d="m146.02,79.84c-2.67,0-4.28-1.68-4.93-4.3-3.06,2.49-6.27,4.38-10.31,4.38-4.45,0-7.31-3.48-7.31-7.15,0-5.5,6.22-8.04,10.38-9.94l6.4-2.96c.64-.33.52-1.18.52-1.9,0-4.45-1.5-5.63-5.73-5.48-2.76.1-5.6,1.75-6.89,4.81l-3.74-2.36c2.77-3.74,8.23-4.58,11.41-4.58,7.22,0,10.54,2.05,10.54,9.58v10.8c0,1.64-.09,7.94,2.8,9.08h-3.13Zm-5.19-17.71c-3.91,1.9-11.32,3.84-11.32,9.08,0,2.42.97,5.05,5.07,5.05,2.53,0,4.51-1.82,6.25-3.39v-10.74Z"/><path class="h" d="m56.95,79.84c-2.67,0-4.28-1.68-4.93-4.3-3.06,2.49-6.27,4.38-10.31,4.38-4.45,0-7.31-3.48-7.31-7.15,0-5.5,6.22-8.04,10.38-9.94l6.4-2.96c.64-.33.52-1.18.52-1.9,0-4.45-1.51-5.63-5.73-5.48-2.77.1-5.61,1.75-6.89,4.81l-3.74-2.36c2.77-3.74,8.23-4.58,11.41-4.58,7.22,0,10.53,2.05,10.53,9.58v10.8c0,1.64-.09,7.94,2.8,9.08h-3.13Zm-5.19-17.71c-3.9,1.9-11.31,3.84-11.31,9.08,0,2.42.97,5.05,5.07,5.05,2.54,0,4.51-1.82,6.25-3.39v-10.74Z"/><path class="h" d="m168.25,56.47c-1.09-2.51-2.67-4.04-5.89-4.04-2.14,0-4.16.94-4.16,3.29,0,3.41,3.57,4.28,6.04,5.66,4.49,2.36,8.59,4.06,8.59,9.96,0,5.37-4.47,8.7-9.56,8.65-2.24-.02-8.08.35-10.88-5.96l2.5-3.87c1.04,4.2,3.25,7.71,8.06,7.71,2.86,0,5.46-1.14,5.46-4.28,0-3.74-3.77-4.94-6.57-6.38-3.77-1.97-7.8-4.13-7.8-9.05,0-4.52,3.56-7.8,9-7.8,2.02,0,5.83.5,7.7,2.27l-2.49,3.83Z"/><path class="h" d="m28.41,59.27c0-6.18-3.51-8.97-9.68-8.97-4.62,0-8.13,1.89-10.41,5.92h-.13v-4.91H0s2.21,1.22,2.73,3.56c.32,1.5.32,6.88.32,8.7l.02,6.34v9.93h5.5v-18.74c0-4.75,3.26-8.25,8.33-8.25,6.17,0,5.97,5.91,5.97,10.4l.02,16.59h5.53l-.02-20.55Z"/><path class="h" d="m94.57,79.83v-17.92c0-1.24-.14-6-.2-7.01-.18-3.05-3.04-4.25-3.04-4.25h8.77v29.18h-5.53Z"/><path class="h" d="m93.39,42.66c0-1.95,1.56-3.51,3.51-3.51s3.45,1.56,3.45,3.51-1.5,3.45-3.32,3.45c-1.95,0-3.64-1.43-3.64-3.45Z"/><path class="h" d="m82.28,50.68s2.5.95,1.74,3.26c-2.16,5.63-6.43,16.74-7.16,18.94l-6.31-15.67c-.26-.78-.79-2.11-1.16-2.95-1.23-2.81-2.08-3.59-4.29-3.59h-5.28s2.45.92,4.62,6.02l9.75,23.17h2.43l11.66-29.17c-.41,0-6,0-6,0Z"/><path class="h" d="m120.32,52.46v-1.78h-5.64v-7.53l-5.5,2.07-.02,28.35c0,4.87,1.81,6.26,6.66,6.26h3.24c-3.71-1.74-4.38-3.53-4.38-7.62v-19.74h5.64Z"/><path class="i" d="m104.18,25.98s48.33-1.13,75.1,5.67c8.24,2.04,9.07,7.14,9.15,11.79.05,1.98.51,4.68.51,4.68,0,0-1.66-8.49-10.38-11.36-29.24-9.9-74.38-10.77-74.38-10.77Z"/><path class="j" d="m197.07,21c2.23-2.02,6.54-10.16-9.46-8.73-40.04,2.64-84.28,8.92-84.28,8.92,0,0,62.14-6.5,85.06-3.75,8.04.95,5.55,7.15,5.19,7.96,1.33-2.16,3.03-3.92,3.47-4.37,0,0,.02-.02.03-.03Z"/><path class="m" d="m165.75,21.15c-20.18-.65-62.05,2.38-62.05,2.38,0,0,43.03-2.15,75.42,2.75,8.03,1.1,10.07,5.06,10.33,8.29.37-1.4.9-2.99,1.66-4.72,1.97-6.41-4.85-9.09-25.35-8.7Z"/><path class="k" d="m189.48,50.54s3.19,11.34,17.9,14.62c23.03,5.35,40.61-8.51,40.61-8.51,0,0-7.31,16.59-27.77,17.33-25.93.13-30.75-23.43-30.75-23.43Z"/><path class="l" d="m197.15,20.91s-2.08,2.01-3.62,4.54c-1.92,5.01,3.3,9.17,11.73,9.55,27.02-.19,38.79-13.66,38.79-13.66l5.64-21.35s-6.82,13.03-23.85,20.35c-13.36,6.13-27.06,6.66-28.87,3.69-1.09-1.78.18-3.13.18-3.13Z"/><path class="n" d="m191.12,29.79c-.99,3.92-1.84,15.77,21.55,14.79,30.91-2.28,50.54-24.77,50.54-24.77l-8.09,20.29s-19.21,19.53-46.97,15.86c-19.07-2.58-19.59-15.7-19.59-15.7,0,0-.08-4.47,2.56-10.48Z"/></svg>