<?xml version="1.0" encoding="utf-8"?>
<!-- Generator: Adobe Illustrator 25.4.1, SVG Export Plug-In . SVG Version: 6.00 Build 0)  -->
<svg version="1.1" id="Logo" xmlns="http://www.w3.org/2000/svg" xmlns:xlink="http://www.w3.org/1999/xlink" x="0px" y="0px"
	 viewBox="0 0 503.5 155.3" style="enable-background:new 0 0 503.5 155.3;" xml:space="preserve">
<style type="text/css">
	.st0{fill:#003087;}
</style>
<path class="st0" d="M213.4,7.1v5.8h-12.2v32.6H195V12.9h-12.2V7.1H213.4z"/>
<path class="st0" d="M238.6,45.4V28.9c0-3.9-2.4-6-6-6c-4.2,0-7.9,3.4-7.9,7.9v14.7h-6V6.8h6v15.6h0.3c0,0,2.4-5,8.9-5
	c6.5,0,10.7,4.2,10.7,11.3v16.7H238.6z"/>
<path class="st0" d="M277.6,31.2v1.9h-21.7c0.5,4.2,3.7,7.6,9.4,7.6c6.5,0,9.7-3.4,9.7-3.4h0.8v5.8c0,0-3.9,3.1-11.1,3.1
	c-8.5,0-14.5-6-14.5-14.4c0-8.1,6.3-14.4,14.1-14.4C272.4,17.4,277.6,22.7,277.6,31.2z M256.2,28.4h15.7c-0.5-2.9-2.9-5.5-7.3-5.5
	C259.8,22.9,257.2,25.8,256.2,28.4z"/>
<path class="st0" d="M217.3,95.7h-6.3V79.3h-18.3v16.5h-6.3V57.5h6.3v16h18.3v-16h6.3V95.7z"/>
<path class="st0" d="M238,96.5c-8.6,0-14.9-6.3-14.9-14.4c0-8.1,6.3-14.4,14.9-14.4c8.6,0,14.9,6.3,14.9,14.4
	C252.9,90.2,246.6,96.5,238,96.5z M238,91c5,0,8.6-3.7,8.6-8.9c0-5.2-3.7-8.9-8.6-8.9c-5,0-8.6,3.7-8.6,8.9
	C229.4,87.4,233,91,238,91z"/>
<path class="st0" d="M260.6,74h-5v-2.1l10.7-11.5h0.3v8.1h8.6V74h-8.6v12.3c0,3.1,1.8,4.7,4.2,4.7c2.9,0,4.4-2.1,4.4-2.1h0.8v5.2
	c0,0-2.4,2.4-6.5,2.4c-5.2,0-8.9-3.7-8.9-9.9V74z"/>
<path class="st0" d="M307,81.5v1.9h-21.7c0.5,4.2,3.7,7.6,9.4,7.6c6.5,0,9.7-3.4,9.7-3.4h0.8v5.8c0,0-3.9,3.1-11.1,3.1
	c-8.5,0-14.5-6-14.5-14.4c0-8.1,6.3-14.4,14.1-14.4C301.7,67.7,307,73,307,81.5z M285.5,78.7h15.7c-0.5-2.9-2.9-5.5-7.3-5.5
	C289.2,73.2,286.5,76.1,285.5,78.7z"/>
<path class="st0" d="M318.9,95.7h-6V56.8h6V95.7z"/>
<path class="st0" d="M358.8,61.5l-2.1,5c0,0-3.1-3.9-8.9-3.9c-3.7,0-5.8,1.8-5.8,4.4c0,6.5,18.3,6.5,18.3,18.1
	c0,6.5-5,11.5-13.3,11.5c-7.9,0-12.3-4.7-12.3-4.7l2.1-5c0,0,3.9,3.9,9.9,3.9c4.4,0,7.1-2.4,7.1-5.2c0-7.3-18.3-6.8-18.3-18.8
	c0-5.2,4.7-9.9,12-9.9C354.9,56.7,358.8,61.5,358.8,61.5z"/>
<path class="st0" d="M414.6,95.7V79.3c0-3.9-2.4-6-6-6c-4.2,0-7.9,3.4-7.9,7.9v14.7h-6V56.6h6v16.1h0.3c0,0,2.4-5,8.9-5
	s10.7,4.2,10.7,11.3v16.7H414.6z"/>
<path class="st0" d="M440.6,96.5c-8.6,0-14.9-6.3-14.9-14.4c0-8.1,6.3-14.4,14.9-14.4s14.9,6.3,14.9,14.4
	C455.5,90.2,449.2,96.5,440.6,96.5z M440.6,91c5,0,8.6-3.7,8.6-8.9c0-5.2-3.7-8.9-8.6-8.9s-8.6,3.7-8.6,8.9
	C432,87.4,435.6,91,440.6,91z"/>
<path class="st0" d="M474.8,96.5c-8.6,0-14.9-6.3-14.9-14.4c0-8.1,6.3-14.4,14.9-14.4s14.9,6.3,14.9,14.4
	C489.7,90.2,483.5,96.5,474.8,96.5z M474.8,91c5,0,8.6-3.7,8.6-8.9c0-5.2-3.7-8.9-8.6-8.9s-8.6,3.7-8.6,8.9
	C466.2,87.4,469.9,91,474.8,91z"/>
<path class="st0" d="M500.9,95.7h-6V56.8h6V95.7z"/>
<path class="st0" d="M221.3,145.6h-3.4l-5.2-11.5H192l-5.2,11.5h-3.4l17.5-38.2h2.9L221.3,145.6z M202.4,111.9h-0.3l-8.9,19.1h18.1
	L202.4,111.9z"/>
<path class="st0" d="M227.3,118.4v16.7c0,5.2,2.9,8.1,7.9,8.1c5.2,0,9.7-4.4,9.7-10.5v-14.4h3.1v27.2h-2.9l-0.3-4.7h-0.3
	c0,0-2.6,5.5-9.7,5.5c-6.3,0-10.7-4.4-10.7-11.3v-16.7H227.3z"/>
<path class="st0" d="M257.9,125.2c0,6.3,16.5,2.9,16.5,13.1c0,4.7-3.4,8.1-9.9,8.1c-6.5,0-10.5-4.2-10.5-4.2l1-2.9
	c0,0,3.4,3.9,9.4,3.9c4.7,0,6.8-2.1,6.8-5c0-7.1-16.5-3.7-16.5-13.1c0-4.2,3.4-7.6,8.9-7.6c6.5,0,9.4,3.9,9.4,3.9l-1.3,2.6
	c0,0-2.6-3.4-8.1-3.4C259.7,120.8,257.9,122.6,257.9,125.2z"/>
<path class="st0" d="M283,121.6h-5.2v-3.1h5.2v-6.8l3.1-1.3v8.1h8.9v3.1h-8.9v16.2c0,3.9,1.8,5.5,4.7,5.5s4.7-2.4,4.7-2.4h0.5v3.1
	c0,0-2.1,2.4-5.5,2.4c-4.4,0-7.6-3.1-7.6-8.6V121.6z"/>
<path class="st0" d="M342.9,140.9h-0.3c0,0-3.1,5.5-10.2,5.5c-7.1,0-13.1-6-13.1-14.4c0-8.4,6-14.4,13.1-14.4
	c7.1,0,10.2,5.5,10.2,5.5h0.3l0.3-4.7h2.9v27.2h-2.9L342.9,140.9z M332.7,120.8c-5.8,0-10.2,4.4-10.2,11.3c0,6.8,4.4,11.3,10.2,11.3
	c5.8,0,10.2-4.4,10.2-11.3C342.9,125.2,338.5,120.8,332.7,120.8z"/>
<path class="st0" d="M357,145.6h-3.1v-39.1h3.1V145.6z"/>
<path class="st0" d="M366.4,107.2c1.3,0,2.4,0.8,2.4,2.4c0,1.6-1,2.4-2.4,2.4c-1.3,0-2.4-0.8-2.4-2.4
	C364,108,365.1,107.2,366.4,107.2z M368,118.4v27.3h-3.1v-27.3H368z"/>
<path class="st0" d="M398.1,140.9h-0.3c0,0-3.1,5.5-10.2,5.5c-7.1,0-13.1-6-13.1-14.4c0-8.4,6-14.4,13.1-14.4
	c7.1,0,10.2,5.5,10.2,5.5h0.3l0.3-4.7h2.9v27.2h-2.9L398.1,140.9z M387.9,120.8c-5.8,0-10.2,4.4-10.2,11.3c0,6.8,4.4,11.3,10.2,11.3
	c5.8,0,10.2-4.4,10.2-11.3C398.1,125.2,393.6,120.8,387.9,120.8z"/>
<path class="st0" d="M379.6,67.8C379.5,67.8,379.5,67.8,379.6,67.8L379.6,67.8C379.5,67.8,379.5,67.8,379.6,67.8
	c-8.2,0-14.4,6.3-14.4,14.4s6.3,14.4,14.4,14.4c6.3,0,9.2-3.1,9.2-3.1v-5.5h-0.8c0,0-2.6,3.1-7.6,3.1c-5.2,0-9.1-3.7-9.1-8.9
	c0-5.2,3.9-8.9,9.1-8.9c0.1,0,0.2,0,0.3,0c4.8,0.1,7.3,3.1,7.3,3.1h0.8v-3.3v-2.2C388.7,70.9,385.8,67.8,379.6,67.8z"/>
<g>
	<path class="st0" d="M313.3,117.6c-6,0-8.4,5.5-8.4,5.5h-0.3l-0.3-4.7h-2.9v27.2h3.1v-17.3c0,0,2.6-7.6,8.4-7.6
		c1.8,0,3.1,0.5,4.1,1l1.3-2.7C317.3,118.4,315.6,117.6,313.3,117.6z"/>
</g>
<g>
	<g>
		<g>
			<g>
				<path class="st0" d="M77.5,44c0-2.7-0.8-7.4-4-11.7C70.8,28.7,60,21.9,51.3,16.1c-3.1-2.1-5.8-3.9-7.9-5.4
					C38.3,7,35.8,2.5,34.7,0h-0.1l0,22.8c0,7.2,4.5,11.3,6.8,12.8c0.3,0.2,1.2,0.8,1.2,0.8c13.8,9.3,20.5,14.3,23.8,16.8
					c1.8,1.4,5.7,4.8,7,6.2c2.2,2.4,3.5,4.3,4.1,5.8h0.1L77.5,44z"/>
			</g>
			<g>
				<path class="st0" d="M80.5,44c0-2.7,0.8-7.4,4-11.7c2.7-3.6,13.5-10.4,22.2-16.2c3.1-2.1,5.8-3.9,7.9-5.4
					c5.2-3.7,7.7-8.2,8.8-10.7l0.1,0l0,22.8c0,7.2-4.5,11.3-6.8,12.8c-0.3,0.2-1.2,0.8-1.2,0.8C101.7,45.7,95,50.7,91.7,53.2
					c-1.8,1.4-5.7,4.8-7,6.2c-2.2,2.4-3.5,4.3-4.1,5.8h-0.1L80.5,44z"/>
			</g>
		</g>
		<g>
			<g>
				<path class="st0" d="M80.5,108.2c0,2.7,0.8,7.4,4,11.7c2.7,3.6,13.5,10.4,22.2,16.2c3.1,2.1,5.8,3.9,7.9,5.4
					c5.2,3.7,7.7,8.2,8.8,10.7h0.1l0-22.8c0-7.2-4.5-11.3-6.8-12.8c-0.3-0.2-1.2-0.8-1.2-0.8C101.7,106.4,95,101.5,91.7,99
					c-1.8-1.4-5.7-4.8-7-6.2c-2.2-2.4-3.5-4.3-4.1-5.8h-0.1L80.5,108.2z"/>
			</g>
			<g>
				<path class="st0" d="M77.5,108.2c0,2.7-0.8,7.4-4,11.7c-2.7,3.6-13.5,10.4-22.2,16.2c-3.1,2.1-5.8,3.9-7.9,5.4
					c-5.2,3.7-7.7,8.2-8.8,10.7h-0.1l0-22.8c0-7.2,4.5-11.3,6.8-12.8c0.3-0.2,1.2-0.8,1.2-0.8c13.8-9.3,20.5-14.3,23.8-16.8
					c1.8-1.4,5.7-4.8,7-6.2c2.2-2.4,3.5-4.3,4.1-5.8h0.1L77.5,108.2z"/>
			</g>
		</g>
	</g>
	<g>
		<g>
			<g>
				<path class="st0" d="M111.1,74.6c2.7,0,7.4-0.8,11.7-4c3.6-2.7,10.4-13.5,16.2-22.2c2.1-3.1,3.9-5.8,5.4-7.9
					c3.7-5.2,8.2-7.7,10.7-8.8v-0.1l-22.8,0c-7.2,0-11.3,4.5-12.8,6.8c-0.2,0.3-0.8,1.2-0.8,1.2c-9.3,13.8-14.3,20.5-16.8,23.8
					c-1.4,1.8-4.8,5.7-6.2,7c-2.4,2.2-4.3,3.5-5.8,4.1v0.1L111.1,74.6z"/>
			</g>
			<g>
				<path class="st0" d="M111.1,77.6c2.7,0,7.4,0.8,11.7,4c3.6,2.7,10.4,13.5,16.2,22.2c2.1,3.1,3.9,5.8,5.4,7.9
					c3.7,5.2,8.2,7.7,10.7,8.8v0.1l-22.8,0c-7.2,0-11.3-4.5-12.8-6.8c-0.2-0.3-0.8-1.2-0.8-1.2c-9.3-13.8-14.3-20.5-16.8-23.8
					c-1.4-1.8-4.8-5.7-6.2-7c-2.4-2.2-4.3-3.5-5.8-4.1v-0.1L111.1,77.6z"/>
			</g>
		</g>
		<g>
			<g>
				<path class="st0" d="M46.9,77.6c-2.7,0-7.4,0.8-11.7,4c-3.6,2.7-10.4,13.5-16.2,22.2c-2.1,3.1-3.9,5.8-5.4,7.9
					c-3.7,5.2-8.2,7.7-10.7,8.8v0.1l22.8,0c7.2,0,11.3-4.5,12.8-6.8c0.2-0.3,0.8-1.2,0.8-1.2C48.7,98.8,53.6,92,56.1,88.8
					c1.4-1.8,4.8-5.7,6.2-7c2.4-2.2,4.3-3.5,5.8-4.1v-0.1L46.9,77.6z"/>
			</g>
			<g>
				<path class="st0" d="M46.9,74.6c-2.7,0-7.4-0.8-11.7-4C31.6,67.9,24.8,57.1,19,48.4c-2.1-3.1-3.9-5.8-5.4-7.9
					c-3.7-5.2-8.2-7.7-10.7-8.8v-0.1l22.8,0c7.2,0,11.3,4.5,12.8,6.8c0.2,0.3,0.8,1.2,0.8,1.2c9.3,13.8,14.3,20.5,16.8,23.8
					c1.4,1.8,4.8,5.7,6.2,7c2.4,2.2,4.3,3.5,5.8,4.1v0.1L46.9,74.6z"/>
			</g>
		</g>
	</g>
</g>
</svg>
